<?xml version="1.0" encoding="UTF-8"?><svg xmlns="http://www.w3.org/2000/svg" xmlns:xlink="http://www.w3.org/1999/xlink" width="269px" height="336px" viewBox="0 0 269 336" version="1.1">
    <!-- Generator: Sketch 55.2 (78181) - https://sketchapp.com -->
    <title>TNL001_05_Assets_Core_Logo_Core_HertiageBlue_sRGB</title>
    <desc>Created with Sketch.</desc>
    <g id="Page-1" stroke="none" stroke-width="1" fill="none" fill-rule="evenodd">
        <g id="TNL001_05_Assets_Core_Logo_Core_HertiageBlue_sRGB" fill-rule="nonzero">
            <g id="Graphics">
                <g id="Group">
                    <path d="M253.03,224.14 C246.96,236.18 238.95,243.2 226.73,243.2 C212.91,243.2 205.79,233.95 204,223.24 C196.42,232.17 186.61,235.18 176.37,232.03 C165.22,228.48 157.65,217.89 157.65,200.96 C157.65,177.77 170.57,148.36 185.27,135.88 L178.36,120.6 C177.52,122.64 171.27,134.85 168.25,139.92 L159.03,135.93 C159.03,135.93 165.45,121.81 166.87,118.82 C180.95,89 197.07,61.63 197.07,43.35 C197.07,35.77 191.81,30.54 187.4,30.42 C173.57,30.03 152.74,60.11 132.25,104.23 C115.95,139.1 106.64,164.07 105.23,182.33 L95.71,185.88 C83.24,167.77 64.88,154.14 42.68,154.14 C23.96,154.14 13.71,163.05 13.71,169.31 C13.71,175.11 19.5,177.33 22.63,178.22 C49.8,185.36 60.51,207.63 68.97,241.06 C81.45,289.66 113.55,322.190002 160.32,322.190002 C208.89,322.2 255.25,280.3 253.03,224.14 Z M117.39,253.44 L128.93,248.03 C140.28,281.51 172.96,290.68 203.21,274.93 L207.9,286.39 C168.22,308.92 131.32,294.54 117.39,253.44 Z" id="Shape" fill="#FFFFFF" data-id="elem_0"/>
                    <path d="M151.42,43.15 C142.5,23.55 134.93,13.74 128.7,13.74 C119.77,13.74 115.77,24.89 115.77,34.24 C115.77,45.39 119.78,60.99 127.81,81.94 C135.82,65.89 143.85,52.96 151.42,43.15 Z" id="Path" fill="#FFFFFF" data-id="elem_1"/>
                    <path d="M169.25,200.96 C169.25,216.12 175.93,221.84 183.95,221.790325 C194.1,221.72 205.01,208.1 212.59,185.79 C221.95,162.63 221.23,143.26 211.92,138.95 C192.68,130.08 169.25,172.43 169.25,200.96 Z M186.75,210.88 C181.04,210.88 176.4,206.26 176.4,200.52 C176.4,194.82 181.04,190.18 186.75,190.18 C192.47,190.18 197.1,194.82 197.1,200.52 C197.09,206.26 192.47,210.88 186.75,210.88 Z" id="Shape" fill="#FFFFFF" data-id="elem_2"/>
                    <path d="M226.73,232.03 C240.74,232.03 252.12,211.21 255.24,192.48 C257.91,176.44 253.91,164.41 245,164.41 C235.2,164.41 222.16,184.46 217.25,203.62 C214.15,214.33 213.36,232.03 226.73,232.03 Z M231.38,203.74 C236.53,203.74 240.69,207.92 240.69,213.06 C240.69,218.2 236.52,222.37 231.38,222.37 C226.24,222.37 222.069982,218.2 222.069982,213.06 C222.06,207.91 226.24,203.74 231.38,203.74 Z" id="Shape" fill="#FFFFFF" data-id="elem_3"/>
                    <path d="M245.01,152.37 C241.88,152.37 235.2,154.14 231.63,157.72 C232.98,142.11 227.19,130.54 216.49,126.53 C209.8,124.28 202.66,124.74 196.43,127.42 L187.73,106.47 C195.75,86.85 209.78,62.97 209.78,43.35 C209.78,28.21 202.13,17.05 187.42,17.05 C178.5,17.05 168.68,24.35 161.22,33.79 C150.98,11.07 140.27,0.36 128.7,0.36 C110.43,0.36 102.85,18.65 102.85,34.24 C102.85,47.16 106.41,68.56 120.24,98.88 C110.88,119.84 103.74,137.2 95.27,163.95 C84.14,152.37 65.86,140.78 42.69,140.78 C30.66,140.78 20.41,143.9 12.39,149.27 C4.82,154.61 0.36,161.73 0.36,169.32 C0.36,180.45 7.94,188.05 19.52,191.16 C39.57,196.5 48.49,212.55 56.06,244.19 C69.88,301.25 105.52,335.56 160.33,335.56 C218.26,335.56 265.49,288.32 265.49,230.36 C265.49,221.91 264.6,215.22 263.27,207.63 C265.04,203.18 266.38,198.27 267.28,194.27 C272.18,169.75 262.82,152.37 245.01,152.37 Z M160.33,322.2 C113.55,322.2 81.46,289.67 68.98,241.07 C60.52,207.64 49.82,185.37 22.64,178.23 C19.52,177.34 13.72,175.11 13.72,169.32 C13.72,163.05 23.97,154.15 42.69,154.15 C64.89,154.15 83.25,167.78 95.72,185.89 L105.24,182.34 C106.66,164.08 115.96,139.11 132.26,104.24 C152.75,60.12 173.58,30.04 187.41,30.43 C191.82,30.55 197.08,35.78 197.08,43.36 C197.08,61.64 180.96,89.01 166.88,118.83 C165.46,121.82 159.04,135.94 159.04,135.94 L168.26,139.93 C171.28,134.86 177.53,122.65 178.37,120.61 L185.28,135.89 C170.58,148.38 157.66,177.78 157.66,200.97 C157.66,217.9 165.23,228.48 176.38,232.04 C186.62,235.18 196.43,232.17 204.01,223.25 C205.8,233.97 212.92,243.21 226.74,243.21 C238.96,243.21 246.97,236.2 253.04,224.15 C255.25,280.3 208.89,322.2 160.33,322.2 Z M128.7,13.74 C134.93,13.74 142.5,23.55 151.42,43.15 C143.85,52.96 135.82,65.89 127.81,81.94 C119.77,60.99 115.77,45.38 115.77,34.24 C115.77,24.89 119.77,13.74 128.7,13.74 Z M212.58,185.79 C205,208.1 194.09,221.72 183.94,221.790325 C175.92,221.84 169.24,216.12 169.24,200.96 C169.24,172.43 192.67,130.07 211.91,138.95 C221.22,143.26 221.94,162.63 212.58,185.79 Z M245.01,164.41 C253.92,164.41 257.93,176.44 255.25,192.48 C252.12,211.21 240.75,232.03 226.74,232.03 C213.37,232.03 214.16,214.33 217.26,203.62 C222.16,184.46 235.21,164.41 245.01,164.41 Z" id="Shape" fill="#000000" data-id="elem_4"/>
                    <path d="M186.75,190.18 C181.04,190.18 176.4,194.82 176.4,200.52 C176.4,206.25 181.04,210.88 186.75,210.88 C192.47,210.88 197.1,206.26 197.1,200.52 C197.09,194.82 192.47,190.18 186.75,190.18 Z" id="Path" fill="#000000" data-id="elem_5"/>
                    <path d="M128.93,248.03 L117.39,253.44 C131.32,294.54 168.22,308.92 207.91,286.39 L203.22,274.93 C172.96,290.68 140.28,281.51 128.93,248.03 Z" id="Path" fill="#000000" data-id="elem_6"/>
                    <path d="M231.38,222.37 C236.53,222.37 240.69,218.2 240.69,213.06 C240.69,207.92 236.52,203.74 231.38,203.74 C226.24,203.74 222.069982,207.92 222.069982,213.06 C222.06,218.2 226.24,222.37 231.38,222.37 Z" id="Path" fill="#000000" data-id="elem_7"/>
                </g>
            </g>
            <g id="Graphics_LIVE" transform="translate(235.000000, 303.000000)" fill="#FFFFFF">
                <path d="M9.83,7.97 C10.22,7.8 10.53,7.53 10.78,7.16 C11.03,6.8 11.15,6.35 11.15,5.81 C11.15,5.14 10.93,4.61 10.47,4.21 C10.02,3.81 9.44,3.61 8.73,3.61 L5.79,3.61 L5.79,10.68 L7.54,10.68 L7.54,8.23 L8.05,8.23 L9.6,10.68 L11.57,10.68 L9.83,7.97 Z M9.18,6.65 C8.99,6.78 8.68,6.84 8.25,6.84 L7.54,6.84 L7.54,5.03 L8.54,5.03 C8.82,5.03 9.04,5.1 9.22,5.24 C9.39,5.38 9.47,5.61 9.47,5.94 C9.47,6.28 9.38,6.52 9.18,6.65 Z" id="Shape" data-id="elem_8"/>
                <path d="M15.15,4.44 C14.79,3.54 14.28,2.78 13.62,2.14 C12.96,1.51 12.18,1.01 11.28,0.66 C10.38,0.3 9.4,0.13 8.34,0.13 C7.29,0.13 6.31,0.3 5.41,0.66 C4.5,1.01 3.72,1.51 3.06,2.14 C2.41,2.78 1.9,3.54 1.53,4.44 C1.17,5.33 0.98,6.32 0.98,7.42 C0.98,8.5 1.17,9.48 1.53,10.38 C1.9,11.27 2.41,12.03 3.06,12.67 C3.72,13.3 4.5,13.8 5.41,14.15 C6.31,14.51 7.29,14.69 8.34,14.69 C9.4,14.69 10.38,14.51 11.28,14.15 C12.18,13.8 12.96,13.3 13.62,12.67 C14.28,12.03 14.79,11.27 15.15,10.38 C15.52,9.48 15.7,8.5 15.7,7.42 C15.7,6.32 15.52,5.33 15.15,4.44 Z M13.06,9.54 C12.8,10.17 12.44,10.72 11.99,11.18 C11.54,11.65 11,12 10.38,12.25 C9.75,12.5 9.08,12.62 8.34,12.62 C7.59,12.62 6.91,12.5 6.29,12.25 C5.68,12 5.15,11.65 4.7,11.18 C4.24,10.72 3.89,10.17 3.65,9.54 C3.4,8.9 3.28,8.2 3.28,7.42 C3.28,6.65 3.4,5.94 3.65,5.29 C3.89,4.65 4.24,4.1 4.7,3.65 C5.15,3.19 5.68,2.84 6.29,2.6 C6.91,2.35 7.59,2.22 8.34,2.22 C9.08,2.22 9.75,2.35 10.38,2.6 C11,2.84 11.54,3.19 11.99,3.65 C12.44,4.1 12.8,4.65 13.06,5.29 C13.31,5.94 13.44,6.65 13.44,7.42 C13.44,8.2 13.31,8.9 13.06,9.54 Z" id="Shape" data-id="elem_9"/>
            </g>
        </g>
    </g>
</svg>