<svg xmlns="http://www.w3.org/2000/svg" width="236" height="48" fill="none" viewBox="0 0 236 48"><g clip-path="url(#a)"><path fill="#fff" d="M233.437 16.843a9.7 9.7 0 0 0-.596-1.638c.258-.575.4-1.212.4-1.88V6.413a4.6 4.6 0 0 0-1.479-3.384c-1.158-1.072-2.662-1.87-4.597-2.44-1.329-.39-2.842-.589-4.498-.589-.528 0-1.082.02-1.647.06q-.485.035-.96.095a6104 6104 0 0 0-9.081 1.073l-.254.03-.159.005-19.786 1.38q-.255.018-.501.064a1342 1342 0 0 0-5.227.77c-1.541-.577-3.269-.872-5.144-.872a19.7 19.7 0 0 0-3.61.335l-8.793 1.62-.121.024a4.6 4.6 0 0 0-1.216-.077l-7.48.522c-.258.018-5.302 1.192-5.327 1.198a4.6 4.6 0 0 0-2.64-.616l-7.479.522a4.6 4.6 0 0 0-1.267.271c-.033.012-3.422 1.245-3.45 1.257l-.065.023a4.6 4.6 0 0 0-3.253-1.043l-30.619 2.18a4.6 4.6 0 0 0-2.762 1.171l-.034-.015-.791-.36-.02-.01-.007-.003-.057-.026a4.6 4.6 0 0 0-2.115-.354l-10.196.711a4.6 4.6 0 0 0-3.165 1.584l-.043-.007-5.485-1.04a16 16 0 0 0-2.89-.255c-.443 0-.901.016-1.364.049-2.478.173-4.683.768-6.554 1.77a15 15 0 0 0-1.77 1.114l-.063-.007c-.066-.008-9.264-.968-9.342-.976q-.403-.046-.815-.07c-.37-.021-.766-.032-1.176-.032-.633 0-1.328.026-2.067.077l-42.696 2.976C4.909 15.555 0 20.815 0 27.092l.001 16.297a4.61 4.61 0 0 0 4.933 4.6l15.853-1.106c.136-.01 6.23-.748 6.348-.767l.135-.014c1.189.32 2.491.485 3.888.485a20 20 0 0 0 3.05-.235c.11-.015 8.685-1.202 8.782-1.218a4.6 4.6 0 0 0 1.361.108l7.48-.522c.18-.012 4.463-.705 4.543-.72l.105-.016c1.776.93 3.637 1.414 5.511 1.414q1.121-.001 2.211-.227c.07-.013 7.932-1.654 7.992-1.668l.178-.038q1.22.194 2.548.196c.449 0 .914-.016 1.384-.05a18.4 18.4 0 0 0 3.208-.501l.15-.038 6.152-1.644.11-.03 2.772 2.703a4.61 4.61 0 0 0 4.742 1.05q.502-.177.978-.394c.03-.014 4.72-2.3 4.744-2.313 1.315-.66 2.438-1.654 3.309-2.922l1.645-.115q.168.199.361.379a4.6 4.6 0 0 0 3.474 1.235l58.863-4.124a4.6 4.6 0 0 0 3.154-1.571l.12.012c.071.007 5.994.623 6.074.63q.802.079 1.645.08c.449 0 .914-.016 1.384-.048 2.144-.15 4.093-.623 5.806-1.408.073.008 5.946.453 6.109.453q.159 0 .321-.011l19.785-1.38a4.6 4.6 0 0 0 1.737-.474c.093.005 5.292.251 5.429.255q.202.012.407.02.494.027 1.007.029c.5 0 1.024-.02 1.555-.056 1.764-.123 3.41-.506 4.892-1.138a12.7 12.7 0 0 0 4.07-2.736 12 12 0 0 0 2.69-4.17c.587-1.521.885-3.182.885-4.936 0-1.29-.15-2.503-.444-3.605"/><path fill="navy" d="M230.53 17.618a6.55 6.55 0 0 0-1.486-2.744 1.604 1.604 0 0 0 1.189-1.549l-.001-6.912c0-.447-.186-.873-.514-1.177-.81-.75-1.923-1.326-3.402-1.761-1.053-.31-2.281-.467-3.649-.467-.459 0-.942.017-1.438.052q-.696.05-1.357.16c-.138.019-8.106 1.238-8.193 1.251a1.6 1.6 0 0 0-.904-.207l-7.448.52c-.111.007-2.574.422-2.662.444a1.6 1.6 0 0 0-.886-.197l-8.79.613c-.114.008-5.878 1.093-5.947 1.11a10 10 0 0 0-.909-.412c-1.234-.484-2.656-.73-4.225-.73-.373 0-.762.015-1.155.042q-1.258.09-2.384.346-.12.026-.238.054c-.08.017-8.435 1.953-8.471 1.96q-.037-.04-.078-.08a1.6 1.6 0 0 0-1.205-.427l-7.48.522q-.218.017-.417.087c-.057.013-5.822 1.697-5.869 1.714l-.013.003a1.6 1.6 0 0 0-1.668-1.221l-7.479.522a1.6 1.6 0 0 0-.551.14c-.036.014-5.44 2.38-5.467 2.392a1.2 1.2 0 0 0-.302.173v-.598a1.6 1.6 0 0 0-1.715-1.6l-7.479.523a1.6 1.6 0 0 0-1.093.54l-.04.04-.039.04-.04.04-.039.04q-.02.018-.039.04l-.038.038-.039.04h-.001a1.6 1.6 0 0 0-1.376-.617l-7.479.523c-.58.04-1.069.385-1.318.871a1.6 1.6 0 0 0-1.403-.65l-10.196.712c-.695.049-1.28.54-1.446 1.217l-.258 1.05-3.196-1.667a1.6 1.6 0 0 0-.886-.196l-10.196.71a1.603 1.603 0 0 0-1.492 1.631l.011.588-.047-.01c-.04-.01-7.412-1.612-7.462-1.623a12.7 12.7 0 0 0-2.802-.296c-.373 0-.762.014-1.155.041-2.051.143-3.85.622-5.343 1.422a11.5 11.5 0 0 0-2.367 1.677l-.097-.009c-.065-.008-10.29-1.178-10.369-1.186q-.37-.046-.752-.07c-.313-.018-.65-.027-1.001-.027-.563 0-1.188.023-1.858.07l-10.164.709a1.6 1.6 0 0 0-.857.325h-.017a66 66 0 0 0-1.771-.142l-.112.004-7.48.521c-.337.024-.643.15-.89.348l-.08-.004c-.024 0-1.959-.129-2.05-.129l-.112.004-7.48.522a1.6 1.6 0 0 0-.809.289c-.085-.014-1.704-.1-1.794-.1q-.057 0-.112.003l-8.968.626c-4.698.327-8.378 4.269-8.377 8.972v16.297a1.603 1.603 0 0 0 1.716 1.6l15.854-1.106q.164-.012.317-.055l6.178-.953q.186.073.378.142c1.077.373 2.324.563 3.707.563.38 0 .777-.014 1.181-.043a16 16 0 0 0 1.682-.206q.166-.027.331-.058c.113-.017 8.372-1.483 8.471-1.501l.061-.011q.026.028.053.054a1.6 1.6 0 0 0 1.205.427l7.48-.522q.177-.013.341-.062c.09-.011 4.687-.957 4.765-.98l.06-.007c1.68 1.13 3.449 1.72 5.202 1.72q1.054-.002 2.075-.28c.07-.017 7.227-1.888 7.288-1.905l.099-.024c1.042.312 2.203.472 3.467.472q.572 0 1.174-.042c1.293-.09 2.489-.318 3.576-.678l6.768-2.222.009-.003 4.349 4.239a1.6 1.6 0 0 0 1.648.365 8.3 8.3 0 0 0 1.545-.724c.03-.018 4.81-2.842 4.834-2.858a6.35 6.35 0 0 0 2.072-2.114l3.84-.268a1.6 1.6 0 0 0 .929-.381c.015-.012.342-.272.356-.285l.008-.005-.004.736a1.606 1.606 0 0 0 1.715 1.608l7.48-.522a1.6 1.6 0 0 0 1.317-.872q.089.12.198.223a1.6 1.6 0 0 0 1.206.427l7.479-.522a1.6 1.6 0 0 0 1.301-.845l.026.022.211.194a1.6 1.6 0 0 0 1.205.427l12.978-.906a1.6 1.6 0 0 0 1.044-.492c.007.002.808.267.843.277a1.6 1.6 0 0 0 .649.09l12.978-.904c.38-.027.722-.186.982-.429l.009.001c.053.013.934.178.99.186a1.6 1.6 0 0 0 .488.042l7.48-.522a1.604 1.604 0 0 0 1.492-1.6v-.283l.01.001c.068.01 7.863.907 7.942.916a14 14 0 0 0 1.758.11c.379 0 .774-.014 1.174-.041 2.028-.142 3.819-.619 5.324-1.419l.151-.085c.04.003 6.556.542 6.649.542q.056 0 .112-.004l7.479-.522a1.6 1.6 0 0 0 1.034-.48h.038c.086.014 2.879.194 2.971.194q.057.001.113-.004l8.15-.568c.431-.03.812-.23 1.081-.53q.04.003.079.003c.126.008 6.576.317 6.714.322q.447.026.915.027c.432 0 .884-.016 1.346-.048 1.429-.1 2.749-.404 3.922-.904a9.7 9.7 0 0 0 3.114-2.088 9 9 0 0 0 2.02-3.136c.453-1.173.683-2.47.682-3.851 0-1.028-.115-1.98-.342-2.83"/><path fill="url(#b)" d="m60.756 31.922-1.367-1.279a6 6 0 0 0 1.26-.64 5.3 5.3 0 0 0 1.422-1.405q.591-.853.927-2.023.335-1.17.335-2.668 0-2.58-1.023-4.388t-3.388-2.471a9.2 9.2 0 0 0-2.078-.35q-1.119-.065-2.653.043l-10.164.709.001 23.19 7.48-.522v-6.35l4.654 4.355c2.93 2.739 6.093 3.372 8.934 1.862l-.057-7.412c-1.559.868-2.93.613-4.283-.651m-7.14-8.452q.703-.049 1.055.022t.544.217q.287.235.447.574.16.34.16.88 0 .542-.16.888-.16.345-.447.62-.192.174-.544.293-.352.12-1.054.17l-2.11.146v-3.663zm61.487-10.763.001 23.19-7.479.522.063-13.096-.064.004-3.004 11.42-5.21.363-2.873-10.63v.863c.05.87.075 2.349 0 4.843v2.823c0 4.008-1.657 6.749-4.625 7.787l-5.242-5.11c1.657-.542 2.39-1.717 2.39-3.567v-1.453h-.006l.005-.19v-6.735c-.044-4.473-.134-9.207-.134-9.207l10.196-.712 2.942 11.168 2.843-11.571zm10.2-.744.002 23.19-7.48.522-.001-23.19zm15.722 15.393v6.69l-12.977.905-.001-23.19 7.479-.521.001 16.5zm15.514-1.03v6.69l-12.977.905-.001-23.19 7.479-.521.001 16.5zm9.948-17.22.001 23.189-7.479.522-.002-23.19zm20.287 1.018q-1.263-1.52-3.228-2.291-1.967-.771-4.683-.581-2.75.192-4.698 1.235-1.95 1.044-3.213 2.74-1.262 1.698-1.853 3.953-.592 2.255-.591 4.867 0 2.611.591 4.785t1.855 3.693q1.262 1.521 3.212 2.292 1.95.772 4.699.58 2.717-.19 4.682-1.234 1.967-1.045 3.228-2.742 1.263-1.695 1.854-3.952.591-2.255.591-4.867t-.592-4.785q-.591-2.172-1.854-3.693m-5.289 10.945a5.6 5.6 0 0 1-.495 1.547q-.336.661-.863 1.048-.528.388-1.263.438-.735.053-1.262-.262a2.36 2.36 0 0 1-.863-.927q-.336-.613-.496-1.479a10.5 10.5 0 0 1-.16-1.916q0-2.07.655-3.454.655-1.383 2.126-1.486t2.125 1.19q.656 1.292.656 3.362 0 1.052-.16 1.939M210.884 5.86l.002 23.19-8.151.569-4.284-11.52-.064.005.193 11.805-7.479.522-.002-23.19 8.79-.613 3.645 10.926.064-.004-.161-11.17zm18.383 14.585q0 1.784-.575 3.273a7.4 7.4 0 0 1-1.662 2.585 8.1 8.1 0 0 1-2.605 1.742q-1.518.648-3.404.78-2.781.193-4.682-.454-1.903-.648-2.925-1.596l-.001-6.944.128-.01a13.6 13.6 0 0 0 3.26 1.541q1.694.535 3.197.43.927-.064 1.326-.284.4-.218.4-.569 0-.255-.272-.443-.272-.187-1.23-.408l-1.854-.444q-2.75-.636-4.124-2.308-1.374-1.673-1.375-4.475 0-1.784.607-3.244a7.3 7.3 0 0 1 1.71-2.509q1.103-1.048 2.669-1.683t3.484-.768q2.685-.188 4.523.353t2.765 1.4v6.912l-.127.01q-1.567-1.006-3.229-1.384t-3.132-.276q-.928.066-1.327.3-.399.235-.399.553 0 .288.288.49.287.204 1.214.393l1.534.34q1.63.363 2.749.954t1.806 1.419.975 1.907.288 2.417M20.464 42.28 4.61 43.386V27.09c0-3.855 3.033-7.104 6.885-7.373l8.968-.625v6.689l-8.374.584v2.37l6.277-.42v5.09l-6.277.42v2.351l8.375-.584zm20.343-6.693a8.5 8.5 0 0 1-1.646 3.188q-1.054 1.285-2.748 2.135-1.695.851-4.187 1.025-2.494.174-4.252-.436-1.759-.61-2.812-1.747a7.4 7.4 0 0 1-.96-1.383 7 7 0 0 1-.607-1.598 12 12 0 0 1-.32-1.904 25 25 0 0 1-.096-2.271V18.898l7.479-.521v12.136q0 1.402.017 2.101.015.7.176 1.135.351.963 1.374.891 1.023-.07 1.374-1.083.16-.457.176-1.159t.016-2.104V18.159l7.479-.522v13.698q0 2.516-.463 4.253m43.084-.554q1.262-1.696 1.853-3.952.591-2.254.591-4.867 0-2.611-.591-4.784-.592-2.173-1.855-3.694t-3.228-2.29-4.683-.582q-2.75.192-4.698 1.235-1.95 1.045-3.213 2.741-1.262 1.697-1.853 3.952t-.591 4.867.592 4.785 1.854 3.693 3.212 2.292 4.699.58q2.716-.19 4.682-1.234t3.229-2.742m-5.29-6.352a5.6 5.6 0 0 1-.496 1.548q-.335.66-.863 1.047-.528.388-1.263.439t-1.262-.262q-.528-.314-.863-.928-.337-.613-.496-1.478a10.5 10.5 0 0 1-.16-1.916q0-2.07.655-3.454.656-1.384 2.126-1.487 1.47-.102 2.125 1.19.656 1.292.656 3.363 0 1.05-.16 1.938"/><path fill="#fff" d="M185.949 8.54c-.353 1.097-1.155 2.305-1 3.188.088.917 1.113 1.373 1.7 2.005-.853-.132-1.73-.689-2.539-.25-.819.367-1.446 1.668-2.159 2.575.354-1.098 1.081-2.345.927-3.23-.089-.916-1.04-1.332-1.627-1.965.853.133 1.73.689 2.539.25.819-.367 1.446-1.667 2.159-2.574M47.497 33.952c.119.79-.86 1.302-1.375 1.936.935-.255 1.797-.872 2.82-.636 1.016.174 2.037 1.17 3.062 1.819-.663-.871-1.786-1.805-1.821-2.58-.12-.79.86-1.301 1.375-1.935-.935.254-1.872.917-2.894.68-1.017-.172-1.964-1.215-2.988-1.863.663.87 1.785 1.805 1.821 2.579m63.271-3.633c-.213.77-1.316.84-2.044 1.21.958.147 1.997-.066 2.835.566.858.571 1.385 1.897 2.057 2.906-.251-1.065-.897-2.375-.615-3.097.214-.77 1.317-.839 2.044-1.209-.958-.148-2.083.077-2.921-.555-.858-.571-1.299-1.908-1.971-2.918.251 1.065.897 2.375.615 3.097m-28.675-9.438c-.81.44-1.687-.117-2.54-.25.587.634 1.538 1.05 1.627 1.967.154.883-.573 2.13-.927 3.228.713-.907 1.34-2.207 2.159-2.573.81-.44 1.686.117 2.54.249-.587-.633-1.613-1.088-1.701-2.005-.155-.884.647-2.091 1-3.19-.713.907-1.34 2.208-2.159 2.574m144.4-1.558c-.88.572-1.901.287-2.867.368.7.42 1.795.565 1.954 1.349.232.74-.504 2.001-.829 3.046.741-.96 1.36-2.246 2.256-2.756.88-.572 1.901-.287 2.867-.367-.7-.42-1.882-.583-2.04-1.367-.231-.74.59-1.984.915-3.029-.741.96-1.36 2.246-2.256 2.756m-93.668-.038c-1.257.43-2.625-.223-3.952-.415.915.72 2.398 1.224 2.54 2.222.244.967-.881 2.275-1.426 3.444 1.105-.941 2.074-2.314 3.346-2.663 1.257-.43 2.625.223 3.952.415-.916-.719-2.514-1.271-2.655-2.269-.245-.966.996-2.228 1.541-3.397-1.105.941-2.074 2.314-3.346 2.663M8.815 22.289c-.627 1.171-2.072 1.626-3.174 2.39 1.16-.098 2.589-.74 3.373-.106.838.54.907 2.265 1.306 3.49.166-1.44-.062-3.106.63-4.23.627-1.171 2.072-1.626 3.174-2.39-1.16.098-2.705.784-3.49.15-.837-.539-.79-2.308-1.19-3.535-.165 1.442.063 3.107-.63 4.23"/><path fill="navy" d="M232.748 29.191q.244 0 .451.078a1 1 0 0 1 .337.207c.197.186.301.445.301.751s-.104.566-.301.751a1 1 0 0 1-.337.208 1.3 1.3 0 0 1-.451.077q-.242 0-.45-.077a1 1 0 0 1-.337-.208c-.197-.185-.301-.445-.301-.75 0-.307.104-.566.301-.752a1 1 0 0 1 .337-.207 1.3 1.3 0 0 1 .45-.078m0-.394c-.845 0-1.482.57-1.482 1.43s.637 1.43 1.482 1.43c.846 0 1.483-.57 1.483-1.43s-.637-1.43-1.483-1.43"/><path fill="navy" d="m232.963 30.939-.174-.508h-.226v.508h-.399v-1.416h.694c.288 0 .482.182.482.455 0 .15-.067.273-.18.354l.222.607zm-.4-1.09v.287h.21c.097 0 .152-.051.152-.144 0-.085-.055-.142-.152-.142z"/></g><defs><linearGradient id="b" x1="113.492" x2="120.522" y1="2.653" y2="52.673" gradientUnits="userSpaceOnUse"><stop stop-color="#ffc62c"/><stop offset=".314" stop-color="#eca100"/><stop offset=".438" stop-color="#ffcf64"/><stop offset=".724" stop-color="#eca100"/><stop offset=".96" stop-color="#ffc62c"/><stop offset="1" stop-color="#fff"/></linearGradient><clipPath id="a"><path fill="#fff" d="M0 0h235.032v48H0z"/></clipPath></defs></svg>