<svg xmlns="http://www.w3.org/2000/svg" width="317" height="77" fill="none" viewBox="0 0 317 77"><g clip-path="url(#a)"><path fill="#fff" d="M316.181 22.813a13 13 0 0 0-.807-2.219c.349-.779.542-1.64.542-2.546l-.001-9.362c0-1.74-.726-3.4-2.002-4.583-1.569-1.453-3.606-2.534-6.227-3.305-1.8-.53-3.85-.798-6.093-.798-.715 0-1.465.027-2.23.08q-.658.049-1.301.13a8321 8321 0 0 0-12.643 1.494q-.108.001-.216.007l-26.799 1.87q-.345.025-.678.085a1781 1781 0 0 0-7.08 1.043c-2.088-.78-4.428-1.18-6.967-1.18-.6 0-1.222.021-1.848.065a26 26 0 0 0-3.043.388c-.107.019-11.818 2.177-11.909 2.195q-.083.014-.165.032a6.2 6.2 0 0 0-1.646-.105l-10.131.707c-.351.025-7.182 1.616-7.215 1.623a6.25 6.25 0 0 0-3.576-.834l-10.131.707c-.6.042-1.175.17-1.715.367l-4.674 1.702q-.043.014-.087.032a6.25 6.25 0 0 0-4.406-1.413l-41.473 2.952c-1.425.1-2.73.678-3.741 1.587l-.046-.02c-.027-.015-.993-.455-1.071-.49l-.027-.012-.009-.004-.078-.035a6.2 6.2 0 0 0-2.864-.48l-13.811.964a6.23 6.23 0 0 0-4.287 2.145l-.058-.01-7.429-1.41a22 22 0 0 0-3.914-.343c-.6 0-1.221.022-1.848.066-3.356.234-6.343 1.04-8.877 2.397q-1.266.68-2.397 1.51l-.086-.01c-.09-.011-12.547-1.312-12.654-1.322a20 20 0 0 0-1.103-.095 28 28 0 0 0-1.593-.044c-.857 0-1.798.035-2.799.105l-57.83 4.03C6.647 21.07-.002 28.194 0 36.695L.001 58.77A6.247 6.247 0 0 0 6.682 65l21.474-1.498c.183-.013 8.437-1.013 8.598-1.04q.09-.007.182-.018c1.61.434 3.374.657 5.267.657a27 27 0 0 0 4.131-.318c.15-.021 11.762-1.629 11.894-1.65a6.2 6.2 0 0 0 1.844.146l10.13-.706c.246-.017 6.046-.955 6.155-.976l.141-.021c2.406 1.26 4.927 1.915 7.465 1.915q1.52-.001 2.995-.307c.096-.018 10.744-2.242 10.825-2.26q.12-.024.24-.052a22 22 0 0 0 3.452.266c.608 0 1.238-.022 1.874-.066a25 25 0 0 0 4.346-.68l.203-.052c.068-.017 8.276-2.21 8.333-2.226l.147-.041 3.756 3.66a6.25 6.25 0 0 0 6.423 1.423q.68-.238 1.325-.534c.041-.018 6.392-3.115 6.425-3.132 1.782-.895 3.302-2.24 4.482-3.959l2.227-.155q.23.27.489.513a6.25 6.25 0 0 0 4.706 1.674l14.258-.999c-.003.064-.01.127-.01.192v17.856c0 1.158.486 2.275 1.333 3.064a4.17 4.17 0 0 0 3.15 1.115l16.626-1.169a4.16 4.16 0 0 0 2.866-1.428.57.57 0 0 1 .65-.154l.306.119c2.015.748 3.93 1.111 5.854 1.111 2.863 0 5.612-.816 8.171-2.425q.067-.042.132-.087a13 13 0 0 0 1.635-1.317.57.57 0 0 1 .794.004c1.527 1.479 3.69 2.26 6.256 2.26.333 0 .682-.012 1.034-.037l.136-.01 12.469-.862a4.19 4.19 0 0 0 3.522-2.44.573.573 0 0 1 1.005-.07 4.19 4.19 0 0 0 3.819 1.916l15.648-1.1a4 4 0 0 0 .326-.034c1.499-.107 3.094-.275 4.665-1.03a.58.58 0 0 1 .528.015 4.2 4.2 0 0 0 2.328.518l14.782-1.04a4.2 4.2 0 0 0 1.522-.403.58.58 0 0 1 .393-.038 12.2 12.2 0 0 0 3.068.375c.353 0 .718-.013 1.085-.039 2.893-.203 5.284-1.052 7.108-2.523 2.117-1.708 3.283-4.157 3.283-6.897 0-1.127-.189-2.176-.562-3.118a.57.57 0 0 1 .019-.467c.403-.811.53-1.713.368-2.607-.348-1.925-1.281-3.542-2.645-4.742l.001-.002-3.306-2.98 7.246-.506a6.2 6.2 0 0 0 2.353-.641c.126.006 7.168.34 7.353.345q.274.016.552.026c.447.023.9.04 1.363.04.678 0 1.387-.026 2.107-.076 2.389-.167 4.618-.685 6.626-1.541 2.11-.9 3.965-2.147 5.512-3.707a16.3 16.3 0 0 0 3.643-5.649c.796-2.059 1.199-4.308 1.199-6.684 0-1.746-.202-3.39-.601-4.883"/><path fill="navy" d="M312.248 23.863a8.9 8.9 0 0 0-2.013-3.716 2.17 2.17 0 0 0 1.61-2.098V8.686c0-.605-.253-1.183-.697-1.594-1.097-1.016-2.604-1.796-4.607-2.386-1.427-.42-3.09-.632-4.944-.632-.62 0-1.275.024-1.946.07q-.943.07-1.839.218a9361 9361 0 0 0-11.097 1.695 2.17 2.17 0 0 0-1.225-.282l-10.087.704c-.15.01-3.486.572-3.605.602a2.17 2.17 0 0 0-1.201-.267l-11.906.83c-.154.012-7.962 1.482-8.054 1.504a14 14 0 0 0-1.232-.558c-1.672-.655-3.597-.988-5.722-.988-.506 0-1.032.02-1.564.056a21.4 21.4 0 0 0-3.231.47q-.162.034-.322.072c-.108.023-11.424 2.645-11.473 2.656q-.05-.056-.105-.109a2.17 2.17 0 0 0-1.633-.578l-10.131.707a2.2 2.2 0 0 0-.565.117c-.077.018-7.886 2.298-7.949 2.322q-.009 0-.018.004a2.17 2.17 0 0 0-.626-1.076 2.17 2.17 0 0 0-1.633-.578l-10.13.707a2.2 2.2 0 0 0-.747.19c-.048.018-7.368 3.222-7.405 3.24a1.7 1.7 0 0 0-.408.233v-.809a2.17 2.17 0 0 0-2.323-2.166l-10.131.706a2.17 2.17 0 0 0-1.48.734l-.053.053-.054.054-.053.054-.053.054-.053.053-.053.053q-.027.026-.052.053l-.001.002a2 2 0 0 0-.231-.257 2.17 2.17 0 0 0-1.633-.579l-10.13.707a2.17 2.17 0 0 0-1.785 1.18 2.17 2.17 0 0 0-1.9-.88l-13.811.964a2.17 2.17 0 0 0-1.958 1.649l-.35 1.423-4.329-2.26a2.16 2.16 0 0 0-1.199-.265l-13.811.963a2.17 2.17 0 0 0-2.02 2.208l.015.797-.064-.014-10.106-2.198a17.2 17.2 0 0 0-3.796-.401c-.506 0-1.032.019-1.564.056-2.78.194-5.215.842-7.238 1.925a15.6 15.6 0 0 0-3.205 2.272q-.065-.007-.131-.012c-.088-.011-13.937-1.595-14.045-1.606a16 16 0 0 0-1.02-.095 23 23 0 0 0-1.355-.037c-.763 0-1.61.032-2.516.095l-13.767.96c-.437.03-.834.192-1.16.44l-.024.002a90 90 0 0 0-2.4-.194q-.075 0-.15.005l-10.13.707a2.16 2.16 0 0 0-1.207.47q-.054-.004-.109-.005c-.032 0-2.653-.175-2.777-.175q-.075 0-.15.006l-10.131.706a2.16 2.16 0 0 0-1.096.392 100 100 0 0 0-2.431-.136q-.075 0-.152.005l-12.147.847c-6.362.444-11.346 5.782-11.346 12.153l.002 22.074a2.17 2.17 0 0 0 2.322 2.167l21.474-1.498q.223-.016.43-.075l8.368-1.291q.251.1.51.192c1.46.507 3.15.763 5.022.763.515 0 1.053-.02 1.6-.057a22 22 0 0 0 2.278-.28c.152-.023.3-.052.449-.078.152-.023 11.339-2.01 11.473-2.034l.083-.015q.035.038.071.074a2.17 2.17 0 0 0 1.632.578l10.131-.707q.24-.016.463-.085c.121-.014 6.348-1.295 6.453-1.327q.041-.004.081-.01c2.276 1.531 4.672 2.33 7.047 2.33.95 0 1.89-.129 2.81-.378.097-.023 9.789-2.557 9.871-2.58.045-.012.09-.02.135-.033 1.411.422 2.984.64 4.696.64.514 0 1.049-.02 1.591-.058 1.751-.122 3.37-.43 4.843-.918.067-.021 9.112-2.99 9.167-3.01l.012-.004 5.89 5.741a2.17 2.17 0 0 0 2.233.495q1.121-.394 2.092-.981l6.547-3.87c1.141-.709 2.083-1.677 2.807-2.864l5.201-.363a2.17 2.17 0 0 0 1.259-.516l.482-.385.01-.008-.004.997a2.17 2.17 0 0 0 2.323 2.178l10.13-.707a2.17 2.17 0 0 0 1.784-1.18 2.18 2.18 0 0 0 1.901.879l10.131-.707a2.17 2.17 0 0 0 1.762-1.144l.035.03.286.262a2.17 2.17 0 0 0 1.633.578l17.577-1.226a2.16 2.16 0 0 0 1.415-.666c.009.002 1.094.361 1.141.375a2.2 2.2 0 0 0 .88.123l17.577-1.227c.516-.036.978-.25 1.331-.58l.011.002c.073.017 1.266.24 1.342.25a2.2 2.2 0 0 0 .661.058l10.131-.706a2.17 2.17 0 0 0 2.02-2.167v-.384l.014.001c.092.013 10.65 1.229 10.757 1.24q1.14.15 2.382.15c.513 0 1.048-.019 1.59-.056 2.747-.192 5.173-.838 7.211-1.921l.205-.117c.053.005 8.88.735 9.006.735q.075 0 .151-.005l10.13-.707a2.16 2.16 0 0 0 1.401-.65q.026 0 .051-.002c.117.02 3.899.265 4.024.265q.076 0 .153-.005l11.039-.77a2.17 2.17 0 0 0 1.464-.717l.107.004c.171.01 8.907.428 9.094.434q.605.037 1.24.038c.584 0 1.197-.022 1.823-.066 1.936-.135 3.722-.546 5.312-1.224 1.624-.692 3.043-1.644 4.218-2.828a12.3 12.3 0 0 0 2.735-4.248c.614-1.589.925-3.344.925-5.216 0-1.392-.156-2.682-.464-3.833"/><path fill="url(#b)" d="m82.299 43.24-1.852-1.732a8.2 8.2 0 0 0 1.706-.867 7.1 7.1 0 0 0 1.927-1.903q.8-1.155 1.255-2.741.454-1.584.454-3.613 0-3.494-1.385-5.943t-4.59-3.348A12.5 12.5 0 0 0 77 22.621q-1.515-.089-3.593.056l-13.768.96.002 31.41 10.131-.706v-8.6l6.304 5.897c3.967 3.71 8.253 4.568 12.1 2.523L88.1 44.12c-2.112 1.177-3.97.831-5.801-.881m-9.671-11.448q.951-.066 1.429.03.476.096.736.294.39.318.606.777.216.46.216 1.193 0 .735-.216 1.202a2.8 2.8 0 0 1-.606.84q-.26.234-.736.397-.477.162-1.429.229l-2.857.2v-4.962zm83.281-14.577.002 31.41-10.131.706.086-17.739-.087.006-4.068 15.468-7.057.492-3.891-14.399v1.17c.068 1.18.101 3.182 0 6.56v3.823c0 5.43-2.245 9.141-6.265 10.548l-7.101-6.92c2.245-.736 3.237-2.328 3.237-4.834v-1.968h-.007l.007-.256v-9.124a1582 1582 0 0 0-.182-12.47l13.81-.963 3.984 15.125 3.852-15.672zm13.816-1.008.002 31.41-10.131.707-.002-31.41zm21.294 20.85.001 9.06-17.577 1.226-.002-31.41 10.13-.707.002 22.35zm21.013-1.396.001 9.06-17.577 1.227-.002-31.41 10.13-.707.002 22.35zm13.475-23.326.002 31.41-10.131.707-.002-31.41zm27.478 1.38q-1.71-2.059-4.373-3.103-2.662-1.044-6.342-.787-3.724.26-6.364 1.674-2.641 1.413-4.351 3.712-1.71 2.298-2.511 5.352-.8 3.055-.8 6.593t.801 6.48 2.512 5.002q1.71 2.061 4.351 3.105 2.64 1.046 6.364.786 3.68-.257 6.342-1.672t4.373-3.713q1.709-2.298 2.51-5.353t.801-6.593-.801-6.48q-.802-2.943-2.512-5.002m-7.164 14.825q-.216 1.202-.671 2.096-.454.896-1.169 1.419-.714.524-1.71.594t-1.71-.355-1.169-1.256-.671-2.003a14.3 14.3 0 0 1-.217-2.595q0-2.805.888-4.679.887-1.873 2.879-2.013 1.99-.138 2.879 1.612.887 1.75.887 4.554 0 1.425-.216 2.626m39.82-20.598.002 31.41-11.039.77-5.803-15.602-.086.006.26 15.989-10.13.706-.002-31.41 11.905-.83 4.937 14.8.087-.006-.218-15.13zm24.899 19.754q0 2.417-.779 4.433a10 10 0 0 1-2.251 3.501q-1.472 1.485-3.528 2.36-2.057.877-4.611 1.056-3.767.263-6.342-.615-2.577-.877-3.962-2.161v-9.406l.173-.012a18.4 18.4 0 0 0 4.416 2.087q2.294.724 4.329.582 1.255-.088 1.797-.384.54-.297.541-.771 0-.345-.368-.6t-1.667-.553l-2.511-.601q-3.724-.862-5.585-3.127-1.863-2.264-1.862-6.062 0-2.415.822-4.393a9.9 9.9 0 0 1 2.316-3.398q1.494-1.419 3.615-2.28t4.719-1.04q3.637-.255 6.126.478 2.489.732 3.745 1.896l.001 9.363-.174.012q-2.121-1.361-4.372-1.874-2.252-.512-4.243-.373-1.256.088-1.797.406t-.541.75q0 .388.39.663.39.274 1.645.532l2.078.46q2.208.493 3.724 1.293 1.514.8 2.446 1.922a6.7 6.7 0 0 1 1.32 2.582q.39 1.462.39 3.274M27.725 57.27 6.25 58.768V36.694c0-5.222 4.11-9.622 9.326-9.986l12.147-.848v9.06l-11.342.792v3.21l8.501-.57v6.896l-8.5.569V49l11.342-.791zm27.554-9.067q-.628 2.354-2.23 4.32-1.428 1.74-3.723 2.891t-5.67 1.388q-3.378.235-5.76-.59-2.38-.827-3.809-2.367a10 10 0 0 1-1.299-1.872 9.7 9.7 0 0 1-.823-2.165 17 17 0 0 1-.433-2.58 33 33 0 0 1-.13-3.076L31.401 25.6l10.13-.707.002 16.438a132 132 0 0 0 .021 2.847q.022.948.239 1.536.475 1.304 1.861 1.208 1.385-.097 1.862-1.467.216-.62.238-1.57t.022-2.85l-.002-16.438 10.131-.707.001 18.553q0 3.41-.627 5.76m58.354-.749q1.71-2.298 2.511-5.353t.8-6.592q0-3.537-.801-6.48t-2.511-5.003q-1.711-2.059-4.373-3.103t-6.343-.787q-3.724.259-6.364 1.673t-4.35 3.712-2.511 5.353q-.8 3.055-.8 6.592 0 3.54.8 6.48.801 2.944 2.512 5.003t4.351 3.105 6.364.786q3.68-.257 6.343-1.673 2.662-1.414 4.372-3.713m-7.165-8.604q-.217 1.203-.671 2.096-.455.895-1.169 1.42-.715.525-1.71.593-.996.07-1.71-.355-.714-.424-1.169-1.256-.455-.83-.671-2.002a14.3 14.3 0 0 1-.217-2.596q0-2.805.887-4.678.887-1.874 2.879-2.013 1.99-.14 2.879 1.611.887 1.75.888 4.555 0 1.423-.216 2.625"/><path fill="#fff" d="M251.865 11.566c-.479 1.487-1.564 3.123-1.355 4.32.119 1.242 1.509 1.859 2.303 2.716-1.155-.18-2.343-.933-3.439-.338-1.109.496-1.958 2.258-2.924 3.486.479-1.487 1.464-3.176 1.255-4.373-.12-1.242-1.408-1.805-2.203-2.663 1.155.18 2.343.933 3.439.338 1.11-.496 1.959-2.257 2.924-3.486M64.338 45.988c.16 1.071-1.167 1.764-1.863 2.622 1.267-.344 2.434-1.18 3.82-.86 1.376.234 2.76 1.584 4.147 2.462-.898-1.179-2.419-2.444-2.467-3.492-.161-1.072 1.166-1.764 1.863-2.623-1.267.345-2.535 1.243-3.92.923-1.377-.235-2.66-1.646-4.047-2.525.898 1.18 2.418 2.445 2.467 3.493m85.697-4.92c-.288 1.044-1.783 1.137-2.768 1.638 1.298.2 2.704-.09 3.839.767 1.162.774 1.877 2.57 2.788 3.937-.341-1.442-1.216-3.217-.834-4.195.289-1.044 1.784-1.137 2.769-1.638-1.298-.2-2.822.105-3.957-.751-1.161-.775-1.759-2.586-2.67-3.953.341 1.443 1.215 3.217.833 4.195m-38.84-12.783c-1.096.595-2.284-.159-3.439-.338.795.857 2.084 1.42 2.203 2.662.21 1.198-.776 2.886-1.254 4.374.965-1.229 1.814-2.99 2.923-3.486 1.097-.596 2.285.158 3.44.337-.795-.857-2.184-1.474-2.304-2.715-.209-1.197.877-2.833 1.355-4.32-.965 1.228-1.814 2.99-2.924 3.486m195.585-2.11c-1.191.775-2.574.388-3.883.497.948.569 2.432.766 2.647 1.827.313 1.002-.683 2.711-1.123 4.126 1.003-1.3 1.842-3.042 3.055-3.733 1.192-.775 2.575-.388 3.883-.497-.948-.569-2.548-.79-2.763-1.85-.313-1.003.799-2.688 1.24-4.103-1.004 1.3-1.842 3.041-3.056 3.732m-126.87-.052c-1.703.582-3.555-.302-5.352-.562 1.24.974 3.248 1.658 3.44 3.01.331 1.308-1.194 3.081-1.931 4.664 1.496-1.275 2.808-3.134 4.532-3.608 1.703-.581 3.555.303 5.353.563-1.241-.974-3.405-1.722-3.597-3.073-.331-1.309 1.35-3.018 2.087-4.601-1.496 1.275-2.808 3.134-4.532 3.607M11.943 30.188c-.848 1.587-2.806 2.203-4.298 3.239 1.57-.134 3.506-1.003 4.569-.145 1.134.731 1.228 3.068 1.769 4.728.224-1.952-.084-4.207.854-5.73.848-1.586 2.806-2.202 4.298-3.238-1.571.134-3.664 1.063-4.726.205-1.135-.73-1.071-3.128-1.612-4.788-.224 1.952.084 4.207-.854 5.73"/><path fill="navy" d="M175.799 65.144v6.682l5.479-.385V53.585l-5.479.385v6.469l-5.667.398V54.37l-5.48.385V72.61l5.48-.385v-6.682zm34.709.259c-.882.062-1.31-.363-1.31-1.325v-4.277l3.315-.233V55.64l-3.288.231v-3.475l-5.399.968v2.887l-1.658.116v3.93l1.631-.115v5.052c0 3.207 1.898 4.811 5.239 4.577 1.631-.115 3.074-.67 4.063-1.569l-.615-3.672c-.641.5-1.31.787-1.978.834m12.457-14.749-8.046.566v17.856l5.48-.385v-5.053l2.566-.18c2.111-.148 3.822-.83 5.132-2.071s1.951-2.837 1.951-4.788c0-4.09-2.593-6.26-7.083-5.944m-.669 8.628-1.897.133v-4.25l1.897-.133c1.39-.098 2.139.598 2.139 1.988s-.749 2.164-2.139 2.262m12.056-11.54c-1.711.12-2.994 1.28-2.994 2.884s1.283 2.61 2.994 2.49c1.738-.123 3.021-1.282 3.021-2.913 0-1.604-1.283-2.583-3.021-2.46m2.7 19.778V53.915l-5.4.379V67.9zm8.672-.269c1.577-.11 2.94-.58 4.036-1.433q1.644-1.278 2.085-3.274l-4.651-1.196c-.107 1.183-.642 1.916-1.497 1.976-1.203.084-1.764-.892-1.764-3.057 0-2.112.588-3.276 1.737-3.356.882-.062 1.337.547 1.444 1.85l4.597-1.366c-.294-2.973-2.619-4.628-6.174-4.378-2.112.149-3.823.91-5.079 2.282s-1.871 3.152-1.871 5.344c0 2.165.641 3.857 1.924 5.05q1.925 1.79 5.213 1.558m16.305-15.072-2.459 4.663-.748.053V46.711l-5.4.38v19.298l5.4-.379v-5.32l.748-.052 2.727 5.128 5.907-.415-3.956-6.993 3.582-6.587zm12.243 13.066c4.063-.286 6.496-2.248 6.496-5.241 0-1.417-.508-2.424-1.551-3.019-.668-.407-1.47-.618-3.421-.802-1.925-.185-2.245-.403-2.245-.911 0-.561.454-.94 1.202-.993.856-.06 1.444.38 1.524 1.095l4.384-.816c-.455-2.507-2.646-3.823-5.961-3.59-1.844.13-3.315.66-4.464 1.623-1.149.936-1.711 2.125-1.711 3.595 0 1.39.481 2.372 1.524 2.967.668.38 1.47.619 3.368.806 1.924.185 2.245.403 2.245.911 0 .615-.481.943-1.336 1.003-.882.062-1.577-.397-1.764-1.132l-4.411 1.245c.615 2.31 2.833 3.49 6.121 3.259m-82.996 7.938c-2.142 0-3.939-.511-4.827-.95-2.112-1.042-3.567-3.136-3.892-5.6-.336-2.546.569-5.036 2.42-6.662a1.38 1.38 0 0 1 1.623-.143l.59.358-.061-.681a7 7 0 0 1 .061-1.981c.413-2.68 2.149-5.352 4.89-7.536a1.39 1.39 0 0 1 1.401-.188c.467.2.785.638.829 1.144.062.693.022 1.463-.019 2.279l-.046.925.511-.227q.266-.117.558-.118.314 0 .598.137c3.116 1.501 5.316 4.941 5.603 8.763.266 3.53-1.173 6.649-3.948 8.557-1.716 1.26-3.888 1.923-6.291 1.923"/><path fill="url(#c)" d="M191.399 62.205c.669 3.139-.164 7.811-3.921 8.752-4.016-.935-4.724-7.192-1.587-9.946-.298 1.216-.196 2.78.781 3.502 1.103.815 2.289-.19 2.314-1.499.034-1.806-.774-3.431-.433-5.262.402-2.662 2.272-4.994 4.39-6.682-.678 2.139-1.185 4.466-.412 6.509.453 1.197 1.44 2.65 2.721 2.235 1.879-.608.314-3.664.066-4.629 5.115 2.464 7.084 11.114 1.45 14.96-2.62 1.9-5.106 1.621-5.271 1.571 2.57-2.36 3.54-6.248-.098-9.51"/><path fill="navy" d="M285.868 47.214q.329 0 .61.105.264.099.457.28c.266.252.407.604.407 1.018s-.141.766-.407 1.017q-.193.181-.457.281a1.7 1.7 0 0 1-.61.105q-.33 0-.61-.105a1.4 1.4 0 0 1-.457-.28c-.267-.252-.407-.604-.407-1.018s.14-.766.407-1.017q.193-.183.457-.281.28-.105.61-.105m0-.534c-1.146 0-2.009.771-2.009 1.937s.863 1.937 2.009 1.937 2.008-.771 2.008-1.937-.863-1.937-2.008-1.937"/><path fill="navy" d="m286.16 49.573-.236-.688h-.305v.688h-.541v-1.917h.94c.391 0 .653.247.653.616 0 .203-.091.37-.244.48l.3.821zm-.541-1.475v.388h.284c.131 0 .206-.07.206-.195 0-.115-.075-.193-.206-.193z"/></g><defs><linearGradient id="b" x1="153.728" x2="163.249" y1="3.596" y2="71.346" gradientUnits="userSpaceOnUse"><stop stop-color="#ffc62c"/><stop offset=".314" stop-color="#eca100"/><stop offset=".438" stop-color="#ffcf64"/><stop offset=".724" stop-color="#eca100"/><stop offset=".96" stop-color="#ffc62c"/><stop offset="1" stop-color="#fff"/></linearGradient><linearGradient id="c" x1="193.188" x2="190" y1="71.666" y2="51.536" gradientUnits="userSpaceOnUse"><stop stop-color="#ffc62c"/><stop offset="1" stop-color="#eca100"/></linearGradient><clipPath id="a"><path fill="#fff" d="M0 0h316.784v76.8H0z"/></clipPath></defs></svg>