<svg width="145" height="73" viewBox="0 0 145 73" fill="none" xmlns="http://www.w3.org/2000/svg">
<g id="gamban-vector-logo 1">
<path id="Vector" d="M71.7014 32.3303C71.6792 36.5427 68.9966 39.0259 65.028 39.0259C60.4164 39.0259 57.5342 35.7224 57.5342 32.0642C57.5342 28.3173 60.4607 25.1025 64.8284 25.1025C67.2672 25.1025 69.1296 25.9894 70.9033 27.6744L69.8834 28.6277C68.3758 27.1644 66.5799 26.3885 64.8506 26.3885C61.658 26.3885 58.9088 28.8273 58.9088 32.0199C58.9088 35.0795 61.4806 37.7843 65.0501 37.7843C67.5776 37.7843 69.8169 36.2767 70.1938 33.594H65.9591V32.3081H71.7014V32.3303ZM74.8718 33.7935C74.8497 35.9663 76.5568 37.74 78.7296 37.7843C80.9245 37.8508 82.7647 36.1215 82.809 33.9266C82.8756 31.7316 81.1462 29.8915 78.9513 29.8471C76.7564 29.7806 74.9162 31.5099 74.8718 33.7049C74.8718 33.7492 74.8718 33.7714 74.8718 33.7935ZM82.5652 28.8938H83.8067V38.7155H82.5652V37.0305C81.6118 38.2499 80.1485 38.9594 78.5966 38.9594C75.7587 38.8707 73.4972 36.4984 73.5859 33.6605C73.6746 30.9113 75.8917 28.7164 78.6409 28.6499C80.215 28.6277 81.6783 29.4037 82.5652 30.7118V28.8938ZM94.5818 38.6933H93.3402V33.6605C93.3402 32.9067 93.2737 32.2859 93.2515 31.8203C93.185 30.6674 92.1873 29.7806 91.0345 29.8249C90.1254 29.8249 89.2829 30.2462 88.7287 30.9778C88.0192 31.8868 87.9084 33.0397 87.9084 34.5252V38.6933H86.6446V28.8716H87.9084V30.5566C88.773 29.2928 89.8594 28.6277 91.2783 28.6277C92.786 28.6277 93.8502 29.4037 94.3823 31C95.2469 29.4259 96.555 28.6277 97.9961 28.6277C100.036 28.6277 101.344 30.091 101.344 32.8845V38.6933H100.08V33.328C100.08 32.5963 99.9915 32.042 99.9693 31.6873C99.9028 30.8226 99.0825 29.8471 97.7522 29.8471C96.4885 29.8693 95.38 30.6674 94.9587 31.8425C94.6705 32.6628 94.5596 33.5497 94.604 34.4143L94.5818 38.6933ZM113.05 33.7714C113.072 31.5986 111.343 29.8249 109.17 29.7806C107.042 29.7363 105.29 31.4434 105.268 33.5718C105.268 33.6383 105.268 33.6827 105.268 33.7492C105.268 35.8998 106.998 37.6513 109.148 37.6513C111.299 37.6513 113.028 35.922 113.05 33.7714ZM105.357 38.7155H104.093V25.1025H105.357V30.5788C106.288 29.3594 107.751 28.6277 109.303 28.6499C112.163 28.7386 114.403 31.1109 114.314 33.9709C114.225 36.7201 112.008 38.9372 109.259 38.9815C107.685 38.9815 106.222 38.2056 105.357 36.9196V38.7155ZM117.462 33.7935C117.44 35.9663 119.147 37.74 121.32 37.7843C123.515 37.8508 125.355 36.1215 125.399 33.9266C125.466 31.7316 123.737 29.8915 121.542 29.8471C119.347 29.7806 117.507 31.5099 117.462 33.7049C117.462 33.7492 117.462 33.7714 117.462 33.7935ZM125.156 28.8938H126.397V38.7155H125.156V37.0305C124.202 38.2499 122.739 38.9594 121.187 38.9594C118.349 38.8707 116.088 36.4984 116.176 33.6383C116.265 30.8892 118.482 28.6942 121.231 28.6277C122.805 28.6055 124.269 29.3815 125.156 30.6896V28.8938ZM130.499 30.6453C131.519 29.315 132.738 28.6277 134.179 28.6277C136.33 28.6277 137.815 30.1132 137.815 33.1949V38.7155H136.551V33.3723C136.551 31.0665 135.82 29.7806 133.913 29.7806C132.893 29.7806 131.918 30.2684 131.319 31.1109C130.587 32.0642 130.477 33.0397 130.477 34.5917V38.7155H129.213V28.8938H130.477L130.499 30.6453Z" fill="#141414"/>
<path id="Vector_2" d="M36.4048 44.28C36.1388 44.546 35.8949 44.7678 35.651 44.9895L35.4071 45.189C35.2076 45.3442 35.008 45.5216 34.8085 45.6768L34.5868 45.8541C34.3207 46.0537 34.0547 46.231 33.7886 46.4084L33.5669 46.5414C33.3452 46.6745 33.1457 46.8075 32.9018 46.9405L32.6357 47.0957C32.3697 47.2287 32.1036 47.3839 31.8376 47.4948L31.7711 47.5391C31.4607 47.6721 31.1725 47.8052 30.8621 47.9382L30.6404 48.0269C30.3965 48.1156 30.1304 48.2042 29.8644 48.2929C29.7979 48.3151 29.7314 48.3373 29.6648 48.3594C29.3545 48.4481 29.0219 48.5368 28.6893 48.6255C28.6672 48.6255 28.645 48.6477 28.6006 48.6477C28.3124 48.7142 28.002 48.7807 27.7138 48.825L27.4921 48.8694C27.1817 48.9137 26.8713 48.9581 26.5609 49.0024H26.4944C26.1618 49.0246 25.8293 49.0467 25.4967 49.0689H24.233C23.9004 49.0689 23.6122 49.0467 23.2796 49.0024L23.0579 48.9802C22.681 48.9359 22.3263 48.8915 21.9494 48.825L21.4394 48.7142C21.1512 48.6477 20.8408 48.5812 20.5526 48.4925L20.22 48.4038L20.0427 48.3373L24.4103 43.9918C30.5739 44.2357 35.784 39.4246 36.0057 33.261C36.0944 31.0218 35.518 28.8269 34.3207 26.9202L31.5715 29.6693V36.3871H26.96V27.1197L34.3873 19.6481C35.0746 20.158 35.7175 20.6901 36.3383 21.2887C42.7457 27.6296 42.7457 37.9169 36.4048 44.28ZM13.2805 44.3243C6.93964 37.9613 6.93964 27.674 13.2805 21.3331L13.3027 21.3109C13.5466 21.067 13.7905 20.8453 14.0343 20.6236L14.2782 20.4241C14.4778 20.2689 14.6773 20.0915 14.8547 19.9363L15.0764 19.7589C15.3424 19.5594 15.6085 19.382 15.8745 19.2047L16.0962 19.0716C16.3179 18.9386 16.5175 18.8056 16.7614 18.6726L17.0274 18.5174C17.2935 18.3843 17.5595 18.2291 17.8256 18.1183L17.8921 18.074C18.2025 17.9409 18.4907 17.8079 18.8011 17.6749L19.0228 17.5862C19.2667 17.4975 19.5327 17.4088 19.7988 17.3201L19.9983 17.2536C20.3087 17.1649 20.6413 17.0763 20.9738 16.9876H21.0625C21.3507 16.9211 21.6611 16.8546 21.9494 16.8102L22.1711 16.7659C22.4815 16.7215 22.7919 16.6772 23.1022 16.6328H23.1688C23.5013 16.6107 23.8339 16.5885 24.1665 16.5663H25.4302C25.7628 16.5663 26.051 16.5885 26.3835 16.6328L26.6053 16.655C26.8491 16.6772 27.0708 16.7215 27.3147 16.7437L27.7138 16.8102C27.8912 16.8324 28.0464 16.8767 28.2237 16.9211C28.512 16.9876 28.8223 17.0541 29.1106 17.1428L29.4431 17.2315L29.6205 17.298L25.2528 21.6435C19.0893 21.3996 13.8791 26.1885 13.6353 32.3742C13.5244 34.6356 14.1009 36.8527 15.2981 38.7373L18.0473 35.9881V29.2703H22.6588V38.5377L15.2316 46.0093C14.5443 45.4994 13.8791 44.9451 13.2805 44.3243ZM24.8316 12.7529C13.7461 12.7529 4.78906 21.7322 4.78906 32.7955C4.78906 43.8587 13.7683 52.838 24.8316 52.838C35.8949 52.838 44.8741 43.8587 44.8741 32.7955C44.8963 21.7322 35.917 12.7529 24.8316 12.7529Z" fill="#141414"/>
</g>
</svg>
