<?xml version="1.0" encoding="UTF-8"?>
<svg id="Layer_3" data-name="Layer 3" xmlns="http://www.w3.org/2000/svg" viewBox="0 0 662.51 209.32">
  <defs>
    <style>
      .cls-1 {
        fill: #231f20;
      }

      .cls-2 {
        fill: #fff;
      }
    </style>
  </defs>
  <g id="Layer_1" data-name="Layer 1">
    <g>
      <path class="cls-1" d="M230.97,166.42c11.92,0,21.45,9.59,21.45,21.51s-9.53,21.39-21.45,21.39-21.39-9.47-21.39-21.39,9.47-21.51,21.39-21.51M230.97,203.36c8.52,0,15.49-6.91,15.49-15.43s-6.97-15.55-15.49-15.55-15.43,7.09-15.43,15.55,6.97,15.43,15.43,15.43"/>
      <path class="cls-1" d="M266.15,167.49c0-.6.54-1.07,1.13-1.07h1.49l25.86,29.91h.06v-28.18c0-.6.48-1.13,1.13-1.13h3.81c.6,0,1.13.54,1.13,1.13v40.1c0,.6-.54,1.07-1.13,1.07h-1.55l-25.86-30.74h-.06v29.01c0,.6-.48,1.13-1.13,1.13h-3.75c-.6,0-1.13-.54-1.13-1.13v-40.1Z"/>
      <path class="cls-1" d="M317.54,168.15c0-.6.48-1.13,1.13-1.13h3.93c.6,0,1.13.54,1.13,1.13v35.03h16.15c.65,0,1.13.54,1.13,1.13v3.28c0,.6-.48,1.13-1.13,1.13h-21.21c-.66,0-1.13-.54-1.13-1.13v-39.44Z"/>
      <path class="cls-1" d="M353.61,167.02h3.93c.63,0,1.13.51,1.13,1.13v39.44c0,.62-.51,1.13-1.13,1.13h-3.93c-.62,0-1.13-.51-1.13-1.13v-39.44c0-.62.51-1.13,1.13-1.13Z"/>
      <path class="cls-1" d="M375.45,167.49c0-.6.54-1.07,1.13-1.07h1.49l25.86,29.91h.06v-28.18c0-.6.48-1.13,1.13-1.13h3.81c.6,0,1.13.54,1.13,1.13v40.1c0,.6-.54,1.07-1.13,1.07h-1.55l-25.86-30.74h-.06v29.01c0,.6-.48,1.13-1.13,1.13h-3.75c-.6,0-1.13-.54-1.13-1.13v-40.1Z"/>
      <path class="cls-1" d="M426.84,168.15c0-.6.48-1.13,1.13-1.13h23.83c.66,0,1.13.54,1.13,1.13v3.34c0,.6-.48,1.13-1.13,1.13h-18.83v12.15h15.91c.6,0,1.13.54,1.13,1.13v3.34c0,.65-.54,1.13-1.13,1.13h-15.91v12.81h18.83c.66,0,1.13.54,1.13,1.13v3.28c0,.6-.48,1.13-1.13,1.13h-23.83c-.66,0-1.13-.54-1.13-1.13v-39.44Z"/>
      <path class="cls-2" d="M319.05,0c3.08,0,5.58,2.5,5.58,5.58v126.64c0,3.08-2.5,5.58-5.58,5.58H5.58c-3.08,0-5.58-2.5-5.58-5.58V56.73C0,25.4,25.4,0,56.73,0"/>
      <path class="cls-1" d="M605.78,137.79h-262.32c-3.08,0-5.58-2.49-5.58-5.58V5.58c0-3.08,2.5-5.58,5.58-5.58h313.47c3.08,0,5.58,2.5,5.58,5.58v75.48c0,31.33-25.4,56.73-56.73,56.73"/>
      <path class="cls-2" d="M370.12,95.96l5.1-9.01c.87-1.41,2.93-1.19,3.69-.65.43.22,8.25,5.97,15.41,5.97,4.34,0,7.49-2.71,7.49-6.51,0-4.56-3.8-8.03-11.18-10.96-9.34-3.69-21.06-10.96-21.06-23.99,0-10.75,8.36-21.6,25.08-21.6,11.29,0,19.97,5.75,23.23,8.14,1.3.76,1.09,2.71.65,3.48l-5.54,8.36c-.76,1.19-2.71,2.17-3.69,1.41-.98-.54-8.9-6.51-15.52-6.51-3.91,0-6.84,2.61-6.84,5.54,0,4.02,3.26,7.06,11.83,10.53,8.47,3.37,21.93,9.99,21.93,24.75,0,11.18-9.66,22.47-25.62,22.47-14.11,0-21.93-5.86-24.43-8.36-1.09-1.09-1.41-1.52-.54-3.04"/>
      <path class="cls-2" d="M446.22,46.24h-15.53c-1.19,0-2.06-.98-2.06-2.06v-11.83c0-1.08.87-2.06,2.06-2.06h48.2c1.19,0,2.06.98,2.06,2.06v11.83c0,1.09-.87,2.06-2.06,2.06h-15.52v57.97c0,1.08-.98,2.06-2.06,2.06h-13.03c-1.09,0-2.06-.98-2.06-2.06v-57.97Z"/>
      <path class="cls-2" d="M527.31,29.19c21.71,0,39.08,17.48,39.08,39.19s-17.37,38.97-39.08,38.97-38.97-17.26-38.97-38.97,17.26-39.19,38.97-39.19M527.31,89.99c11.94,0,21.71-9.77,21.71-21.6s-9.77-21.82-21.71-21.82-21.6,9.88-21.6,21.82,9.77,21.6,21.6,21.6"/>
      <path class="cls-2" d="M580.77,32.34c0-1.08.87-2.06,2.06-2.06h26.16c13.35,0,24.32,10.86,24.32,23.99s-10.96,24.43-24.21,24.43h-11.4v25.51c0,1.09-.98,2.06-2.06,2.06h-12.81c-1.2,0-2.06-.98-2.06-2.06V32.34ZM608.02,62.85c4.67,0,8.58-3.69,8.58-8.58,0-4.56-3.91-8.03-8.58-8.03h-10.31v16.61h10.31Z"/>
      <path class="cls-1" d="M106.44,64.27c0-1.08-.87-2.05-1.95-2.05h-17.37c-.52,0-1.03.21-1.4.58l-10.63,10.98c-.34.34-.55.8-.55,1.32,0,.91.62,1.66,1.47,1.84.12.03.26.04.4.04h13.1v11.27c-3.26,1.31-6.51,1.74-9.66,1.74-5.69,0-10.89-2.26-14.73-5.93-4.16-3.96-6.76-9.54-6.76-15.68,0-11.94,9.55-21.94,21.38-21.94,5.32,0,10.1,1.42,14.22,5.22.67.5,1.54.61,2.3.29.22-.09.44-.22.64-.4l8.58-9.11c.86-.87.76-2.17-.23-2.94-7.38-6.4-17.37-10.2-26.48-10.2-21.6,0-38.97,17.37-38.97,39.08s17.37,38.86,38.97,38.86c15.74,0,26.92-7.06,26.92-7.06.44-.32.87-1.2.87-1.73l-.11-34.19Z"/>
      <path class="cls-1" d="M161.36,77.12l-7.93-21.66c-.32-.86-1.54-.87-1.86,0l-8.03,21.66c-.24.65.24,1.33.93,1.33h15.95c.69,0,1.16-.68.93-1.33M164.95,91.89h-25.35c-1.01,0-1.91.61-2.29,1.55l-4.56,11.26c-.38.93-1.28,1.55-2.29,1.55h-12.89c-1.75,0-2.95-1.77-2.29-3.4l28.85-71.53c.25-.62.86-1.03,1.53-1.03h13.82c.68,0,1.29.41,1.53,1.04l28.21,71.54c.64,1.62-.56,3.38-2.3,3.38h-12.91c-1.01,0-1.92-.62-2.3-1.56l-4.46-11.23c-.37-.94-1.29-1.56-2.3-1.56"/>
      <path class="cls-1" d="M196.02,103.37l11.5-71.71c.13-.8.82-1.39,1.63-1.39h12.07c.67,0,1.27.4,1.52,1.02l17.57,42.23c.34.81,1.49.81,1.83,0l17.57-42.23c.26-.61.86-1.02,1.52-1.02h12.07c.81,0,1.5.59,1.63,1.39l11.66,72.66c.16,1-.61,1.91-1.63,1.91h-14.16c-.83,0-1.53-.61-1.63-1.43l-5.36-40.28c-.13-1-1.5-1.18-1.89-.25l-16.97,40.45c-.39.92-1.28,1.52-2.28,1.52h-2.86c-1,0-1.89-.6-2.28-1.52l-16.97-40.45c-.39-.93-1.76-.75-1.89.25l-5.27,39.57c-.16,1.23-1.21,2.15-2.45,2.15h-12.47c-1.52,0-2.68-1.36-2.44-2.86"/>
    </g>
  </g>
</svg>