<svg xmlns="http://www.w3.org/2000/svg" width="206" height="88" fill="none" viewBox="0 0 206 88"><g clip-path="url(#a)"><path fill="#fff" d="M10.9 83.218c-3.02 0-5.56-.894-7.55-2.66C-.303 77.316-.317 72.788.312 69.56l.008-.04c.193-1.176 1.877-11.74 1.877-20.614 0-9.424-1.367-18.65-1.381-18.743a7 7 0 0 1-.079-1.067c0-4.702 2.627-7.007 4.834-8.111 1.887-.945 4.266-1.43 8.773-1.783 2.87-.224 4.719-.362 6.196-.362 3.831 0 6.57 1.183 8.295 3.688.253.368.654.857 1.098.857q.07 0 .14-.008c.492-.05.745-.603.936-1.059 1.524-3.643 4.803-5.998 8.906-5.998 4.369 0 8.174 3.092 9.252 7.52a1.35 1.35 0 0 0 1.816.936 31.9 31.9 0 0 1 9.637-2.236h.026a34 34 0 0 1 2.347-.081c5.027 0 9.883 1.03 14.246 3.006 1.21.547 3.61 1.768 4.82.907.859-.613.749-1.599.749-2.088V21.36c0-3.459 1.699-6.391 4.66-8.045 1.953-1.092 4.375-1.65 8.352-1.93 1.663-.117 3.014-.174 4.128-.174 2.235 0 4.822.196 7.076 1.644 1.26.811 3.436 2.705 3.841 6.301a1.355 1.355 0 0 0 1.344 1.202l.093-.002.599-.04a1.35 1.35 0 0 0 1.259-1.327c.058-3.378 1.754-6.246 4.658-7.866 1.954-1.093 4.375-1.651 8.352-1.93 1.663-.117 3.014-.172 4.128-.172 1.92 0 4.158.136 6.208 1.152a1.356 1.356 0 0 0 1.887-.79A13.6 13.6 0 0 1 152.343 0c7.513 0 13.626 6.113 13.626 13.626v.119a1.353 1.353 0 0 0 1.51 1.355c.48-.057.964-.103 1.439-.136h.033a30 30 0 0 1 2.1-.074c15.522 0 27.902 11.817 28.184 26.903a28 28 0 0 1-1.315 9.028 1.35 1.35 0 0 0 .458 1.474 7.32 7.32 0 0 1 2.84 5.803c0 4.056-3.3 7.355-7.356 7.355a7.33 7.33 0 0 1-3.653-.973 1.36 1.36 0 0 0-1.551.143c-5.129 4.366-11.571 7.031-18.142 7.506l-.064.005c-.682.047-1.379.071-2.069.071-5.277 0-10.729-1.457-15.352-4.106a1.35 1.35 0 0 0-1.172-.083c-.382.152-.675.47-.794.863-1.327 4.371-4.934 5.557-6.965 5.877a7 7 0 0 1-.608.069l-5.356.377c-.84.06-1.675.088-2.484.088-5.578 0-10.533-1.443-14.332-4.173a1.348 1.348 0 0 0-2.032.566c-1.177 2.75-3.396 4.495-6.597 5.182a7 7 0 0 1-.766.122c-.694.071-1.935.205-2.312.252-.723.093-2.248.213-2.87.26h-.038c-.826.06-1.649.091-2.446.091-3.762 0-7.205-.644-10.23-1.916a1.35 1.35 0 0 0-1.761.7 8.339 8.339 0 0 1-15.231.064 1.353 1.353 0 0 0-1.888-.625c-4.01 2.226-8.481 3.574-12.929 3.893l-.062.005a30 30 0 0 1-2.07.072c-5.092 0-10.179-1.298-14.712-3.75a1.37 1.37 0 0 0-1.073-.094 1.36 1.36 0 0 0-.802.72c-.918 2.005-2.918 4.467-7.234 4.818-.162.012-22.587 1.581-22.813 1.598l-.353.029c-.609.052-1.36.117-2.195.117z"/><path fill="navy" d="m203.776 57.61-.034-.033-.033-.033-.033-.034q-.017-.019-.034-.033-.017-.019-.033-.034l-.034-.033-.033-.033-.033-.034-.034-.033-.033-.034q-.017-.019-.034-.033-.016-.018-.033-.034-.017-.015-.033-.033l-.034-.033-.033-.034-.034-.033-.033-.034-.033-.033q-.017-.019-.034-.033l-.033-.034-.034-.033-.033-.033-.034-.034-.033-.033-.033-.034q-.017-.019-.034-.033l-.033-.033-.034-.034-.033-.033q-.006-.008-.017-.017a1.35 1.35 0 0 1-.088-1.026 28 28 0 0 0 1.315-9.028 26.95 26.95 0 0 0-7.926-18.667l-.034-.033-.033-.034-.033-.033-.034-.034-.033-.033-.034-.033-.033-.034-.033-.033-.034-.034-.033-.033-.034-.033-.033-.034-.033-.033-.034-.034-.033-.033-.034-.033-.033-.034-.033-.033-.034-.034-.033-.033-.034-.033-.033-.034-.033-.033-.034-.034-.033-.033-.034-.033-.033-.034-.033-.033-.034-.034-.033-.033-.034-.033-.033-.034-.033-.033-.034-.034-.033-.033-.034-.033-.033-.034-.034-.033-.033-.034-.033-.033-.034-.033-.033-.034-.034-.033-.033-.034-.033-.033-.034-.033-.033-.034-.034-.033-.033-.034-.033-.033-.034-.033-.033-.034-.034-.033-.033-.034-.033-.033-.034-.033-.033-.034-.034-.033-.033-.034-.033-.033-.034-.033-.033-.034-.034-.033-.033-.034-.033-.033-.034-.033-.033-.034-.034-.033-.033-.034-.033-.033-.034-.033-.033-.034-.034-.033-.033-.034-.034-.033-.033-.033-.033-.034-.034-.033-.033-.034-.034-.033-.033-.033-.033-.034-.034-.033-.033-.034-.034-.033-.033-.033-.033-.034-.034-.033-.033-.034-.034-.033-.033-.033-.033-.034-.034-.033-.033-.034-.034-.033-.033-.034-.033-.033-.034-.033-.033-.034-.034-.033-.033-.034q-.017-.015-.033-.033l-.034-.033-.033-.034-.034-.033-.033-.034q-.017-.015-.033-.033l-.034-.033-.033-.034-.034-.033-.033-.034-.033-.033-.034-.033-.033-.034-.034-.033-.033-.034-.034-.033-.033-.033-.033-.034-.034-.033-.033-.034-.034-.033-.033-.033-.033-.034-.034-.033-.033-.034-.034-.033-.033-.033-.033-.034-.034-.033-.033-.034-.034-.033-.033-.033-.033-.034-.034-.033-.033-.034-.034-.033-.033-.033-.033-.034-.02-.019c4.777 4.798 7.74 11.326 7.879 18.617a28.1 28.1 0 0 1-1.315 9.028 1.35 1.35 0 0 0 .458 1.474 7.32 7.32 0 0 1 2.839 5.803c0 4.056-3.299 7.355-7.355 7.355a7.33 7.33 0 0 1-3.653-.973 1.36 1.36 0 0 0-1.551.143c-5.129 4.366-11.571 7.031-18.142 7.506l-.064.005c-.683.047-1.379.071-2.069.071-5.277 0-10.729-1.457-15.353-4.106a1.35 1.35 0 0 0-1.171-.083c-.382.153-.675.47-.795.864-1.326 4.37-4.934 5.556-6.964 5.876q-.3.047-.608.069l-5.357.377c-.839.06-1.674.088-2.483.088-5.578 0-10.534-1.443-14.332-4.173a1.35 1.35 0 0 0-2.033.566c-1.176 2.75-3.395 4.495-6.597 5.182q-.377.082-.766.122c-.694.071-1.934.205-2.311.252-.723.093-2.248.213-2.871.26h-.038c-.825.06-1.648.091-2.445.091-3.763 0-7.206-.644-10.23-1.916a1.353 1.353 0 0 0-1.762.7 8.339 8.339 0 0 1-15.231.064 1.354 1.354 0 0 0-1.887-.625c-4.01 2.226-8.482 3.574-12.929 3.893l-.062.005c-.685.048-1.381.072-2.07.072-5.092 0-10.179-1.298-14.712-3.75a1.37 1.37 0 0 0-1.074-.094c-.355.12-.644.38-.801.72-.919 2.005-2.918 4.467-7.234 4.818L13.525 83.14l-.355.029c-.609.052-1.36.117-2.195.117-3.02 0-5.562-.895-7.551-2.66a8 8 0 0 1-.294-.268l.034.034.033.033q.016.019.033.034l.034.033.033.033.034.034q.016.019.033.033l.033.034.034.033q.016.019.033.033l.034.034.033.033.033.034q.017.018.034.033l.033.033.034.034q.016.019.033.033l.033.034.034.033.033.034.034.033.033.033.033.034q.017.019.034.033l.033.034.034.033.033.033.033.034.034.033.033.034q.017.018.034.033l.033.033.033.034.034.033.033.034.034.033.033.033.033.034.034.033.033.034.034.033.033.033.033.034.034.033q.016.018.033.034l.034.033.033.033.033.034.034.033q.016.019.033.034l.034.033q.016.019.033.033l.033.034.034.033.033.034.034.033q.016.019.033.033l.033.034q.017.019.034.033l.033.034.034.033.033.033.034.034q.016.019.033.033l.033.034.034.033q.016.019.033.034l.034.033.033.033.033.034q.017.019.034.033l.033.034.034.033q.016.019.033.033l.033.034.034.033.033.034.034.033.033.033.033.034q.017.019.034.033l.033.034.034.033.033.033q.017.019.033.034l.034.033.033.034q.017.018.034.033l.033.033.033.034.034.033q.016.019.033.034l.034.033.033.034.033.033.034.033.033.034.034.033q.016.018.033.034l.033.033.034.033q.016.019.033.034l.034.033.033.034.033.033q.017.019.034.033l.033.034.034.033q.016.018.033.034.017.015.033.033l.034.033.033.034q.017.019.034.033l.033.034.033.033q.017.019.034.033l.033.034.034.033.033.034q.016.019.033.033l.034.033.033.034q.017.019.034.033l.033.034.033.033.034.033q.016.019.033.034l.034.033.033.034q.016.018.033.033l.034.034.033.033.034.033q.016.019.033.034l.033.033.034.034.033.033.034.033.033.034q.175.171.36.336c1.99 1.766 4.531 2.66 7.552 2.66.835 0 1.588-.064 2.194-.117l.354-.028c.226-.017 22.65-1.587 22.813-1.599 4.316-.353 6.318-2.815 7.234-4.817a1.35 1.35 0 0 1 1.875-.627c4.533 2.452 9.62 3.75 14.711 3.75.69 0 1.386-.024 2.071-.071l.062-.005c4.448-.322 8.919-1.668 12.93-3.894.116-.064.243-.11.371-.138l.024.024.034.033.033.034.033.033.034.033.033.034.034.033.033.034.033.033.034.033.033.034.034.033.033.034.034.033.033.033.033.034.034.033.033.034.034.033.033.034.033.033.034.033.033.034.034.033.033.033.033.034.034.033.033.034.034.033.033.033.033.034.034.033.033.034.034.033.033.034.034.033.033.033.033.034.034.033.033.034.034.033.033.033.033.034.034.033.033.034.034.033.033.033.033.034.034.033.033.034.034.033.033.033.033.034.034.033.033.034.034.033.033.034.033.033.034.033.033.034.034.033.033.034.033.033.034.033.033.034.034.033.033.034.033.033.034.033.033.034.034.033.033.034.034.033.033.033.033.034.034.033.033.034.034.033.033.033.033.034.034.033.033.034.034.033.033.033.033.034.034.033.033.034.034.033.033.033.033.034.034.033.033.034.034.033.033.034.033.033a8.35 8.35 0 0 0 5.912 2.467 8.36 8.36 0 0 0 7.63-4.972 1.355 1.355 0 0 1 1.761-.7c3.028 1.272 6.471 1.916 10.231 1.916.797 0 1.62-.028 2.445-.085h.038c.623-.05 2.145-.17 2.871-.263a165 165 0 0 1 2.311-.253 7 7 0 0 0 .766-.121c3.202-.687 5.421-2.432 6.597-5.182a1.353 1.353 0 0 1 2.033-.566c3.798 2.73 8.754 4.173 14.332 4.173.809 0 1.646-.029 2.483-.088l5.357-.377q.308-.022.608-.07c2.03-.32 5.638-1.505 6.964-5.876a1.352 1.352 0 0 1 1.966-.78c4.624 2.648 10.076 4.106 15.353 4.106.692 0 1.389-.024 2.069-.072l.064-.004c6.571-.475 13.013-3.14 18.142-7.506a1.36 1.36 0 0 1 1.553-.143 7.34 7.34 0 0 0 3.653.973c4.056 0 7.356-3.3 7.356-7.355 0-2-.797-3.873-2.212-5.252z"/><path fill="#ff00c7" d="M46.496 26.588c-4.7.718-5.771 1.79-6.49 6.49-.05.328-.524.328-.574 0-.718-4.7-1.79-5.772-6.49-6.49-.329-.05-.329-.525 0-.575 4.7-.718 5.772-1.79 6.49-6.49.05-.329.525-.329.575 0 .718 4.7 1.79 5.772 6.49 6.49.328.05.328.525 0 .575m114.897-12.583c-6.275.959-7.704 2.39-8.663 8.663-.067.44-.701.44-.768 0-.959-6.275-2.391-7.704-8.663-8.663-.442-.067-.442-.702 0-.769 6.275-.959 7.704-2.39 8.663-8.663.067-.441.701-.441.768 0 .959 6.275 2.391 7.704 8.663 8.663.441.067.441.702 0 .768"/><use href="#b"/><path fill="#ff00c7" d="M89.814 73.222c-3.593.548-4.414 1.369-4.963 4.962-.038.253-.4.253-.441 0-.549-3.593-1.37-4.414-4.962-4.962-.253-.039-.253-.401 0-.442 3.593-.549 4.413-1.37 4.962-4.962.038-.253.4-.253.441 0 .55 3.593 1.37 4.413 4.963 4.962.253.038.253.401 0 .442m108.059-14.957c-2.781.424-3.416 1.059-3.841 3.84-.031.197-.31.197-.341 0-.425-2.781-1.059-3.416-3.841-3.84-.196-.031-.196-.31 0-.342 2.782-.424 3.416-1.059 3.841-3.84.031-.196.31-.196.341 0 .425 2.781 1.06 3.416 3.841 3.84.196.032.196.31 0 .342"/><use href="#b"/><path fill="navy" d="M194.625 71.39q.387-.001.718.124.312.115.539.331c.315.296.479.711.479 1.198s-.167.902-.479 1.198q-.227.214-.539.331-.331.123-.718.124-.388.001-.719-.124a1.6 1.6 0 0 1-.539-.331c-.315-.296-.479-.711-.479-1.198s.167-.902.479-1.198a1.6 1.6 0 0 1 .539-.331 2.1 2.1 0 0 1 .719-.124m0-.63c-1.351 0-2.367.909-2.367 2.283s1.016 2.283 2.367 2.283 2.366-.909 2.366-2.283-1.016-2.283-2.366-2.283"/><path fill="navy" d="m194.969 74.172-.276-.812h-.361v.811h-.637v-2.259h1.107c.461 0 .771.291.771.725a.68.68 0 0 1-.286.566l.353.968zm-.637-1.74v.458h.334c.155 0 .244-.08.244-.231 0-.136-.089-.227-.244-.227z"/></g><defs><clipPath id="a"><path fill="#fff" d="M0 0h205.956v88H0z"/></clipPath><path id="b" fill="#ff0404" d="M112.994 57.198c.014.971-.081 2.283-.012 5.404.143 6.437.005 6.86-1.806 7.25 0 0-1.878.196-2.491.275s-2.489.22-2.489.22c-10.156.71-17.524-4.004-17.524-15.368 0-5.633 0-13.282-.3-13.56-.504-.368-1.811-.075-2.815-.005-.905.064-1.208-.62-1.208-5.347 0-2.436.115-3.946.177-4.953.09-1.463.725-1.759 1.331-1.79 3.52-.183 4.116-.489 4.116-2.3v-5.666c0-1.408.515-2.414 6.344-2.822 6.838-.48 7.441.15 7.441 1.858v5.667c0 1.81.038 1.963 5.674 1.615.971-.06 1.407.174 1.491 1.956.045.98.176 2.424.176 4.562 0 1.885-.014 3.433-.059 4.09-.093 1.323-.759 1.397-1.441 1.445-.857.06-3.899.127-5.099.415a.85.85 0 0 0-.63.659c-.112.558-.112 1.386-.112 1.746v8.856c0 4.326 5.18 4.464 6.284 4.388l1.301-.081c.553-.038 1.629.217 1.648 1.484zm29.751-3.681-1.348.086c-1.107.076-6.284-.062-6.284-4.388V40.36c0-.504 0-1.911.301-2.233.503-.437 4.826-.54 5.833-.609 1.107-.076 1.207-.587 1.207-5.516 0-2.865-.009-4.542-.129-5.473-.136-1.08-.837-1.097-1.381-1.06-5.633.395-5.833.208-5.833-1.602V18.2c0-1.71-.604-2.338-7.442-1.858-5.831.408-6.344 1.414-6.344 2.822v5.666c0 .647.007 1.325-.355 1.651-.656.587-2.076.532-3.758.65-.58.04-1.219.116-1.324 1.49a67 67 0 0 0-.186 5.252c0 2.004.1 3.035.193 3.913.114 1.097.582 1.412 1.465 1.367.797-.04 1.331-.186 1.956-.084a.62.62 0 0 1 .504.537c.207 1.658.207 8.203.207 13.175 0 11.364 7.442 15.973 17.601 15.262l5.356-.377c.952-.15 1.293-.403 1.403-2.011.071-1.05.064-9.77.064-10.777 0-1.425-1.116-1.403-1.708-1.36zm49.318-11.593c.103 5.509-1.997 10.896-5.912 15.17-4.19 4.57-10.078 7.443-16.157 7.882h-.048c-11.225.79-23.314-6.96-23.445-19.771-.055-5.357 2.08-10.641 6.01-14.883 4.423-4.774 10.583-7.766 16.903-8.208h.029c12.251-.844 22.398 8.043 22.62 19.812zm-22.56 9.395c2.092-.157 3.884-.985 5.182-2.395 1.369-1.486 2.113-3.572 2.092-5.871-.041-4.393-3.345-7.604-7.525-7.315h-.005a7.85 7.85 0 0 0-5.229 2.524 8.38 8.38 0 0 0-2.226 5.821c.054 4.364 3.418 7.537 7.668 7.239h.045zm-85.736-1.818c.103 5.51-1.997 10.897-5.912 15.17-4.19 4.571-10.078 7.444-16.157 7.883l-.048.002c-11.225.785-23.314-6.962-23.445-19.776-.055-5.357 2.08-10.641 6.01-14.883 4.423-4.774 10.583-7.766 16.903-8.207h.029c12.251-.845 22.398 8.042 22.62 19.812M61.204 58.9c2.093-.157 3.884-.985 5.182-2.395 1.37-1.486 2.114-3.572 2.093-5.872-.04-4.392-3.345-7.603-7.525-7.315h-.005a7.86 7.86 0 0 0-5.23 2.525 8.38 8.38 0 0 0-2.226 5.821c.055 4.364 3.419 7.537 7.668 7.239h.046zm-26.926.878c-1.349.482-3.45.926-7.158.969-.923.064-2.722-.033-3.047-.985-.408-1.2.341-7.857.341-15.745s-.816-16.34-.816-16.34c-.586-1.878-1.054-1.928-8.698-1.33-7.041.554-6.998 1.342-6.998 2.75 0 0 1.46 9.69 1.46 19.807S7.365 70.829 7.365 70.829c-.238 1.162-.603 3.178.737 4.366 1.277 1.133 3.185.856 4.794.73l22.782-1.596c.775-.062 1.379-.117 1.522-1.518.107-1.045.127-2.837.127-5.929 0-2.643-.108-4.657-.165-5.635-.064-1.15-1.556-1.947-2.887-1.47z"/></defs></svg>