<svg xmlns="http://www.w3.org/2000/svg" width="110" height="58" fill="none" viewBox="0 0 110 58"><g clip-path="url(#a)"><path fill="#fff" d="M105.982 43.558a.35.35 0 0 1 .013-.286 2.55 2.55 0 0 0 .225-1.595c-.475-2.622-2.72-4.318-5.718-4.318a9 9 0 0 0-.63.023c-1.014.072-1.942.298-2.758.675a.36.36 0 0 1-.282.005 2.54 2.54 0 0 0-1.162-.19l-.966.068-.074.003a1.053 1.053 0 0 1-.446-2.008q.08-.038.16-.079.195-.093.386-.19l.102-.054a16.7 16.7 0 0 0 3.08-2.073.705.705 0 0 1 .804-.074c.575.33 1.231.505 1.896.505a3.82 3.82 0 0 0 3.818-3.817c0-1.183-.538-2.28-1.474-3.012a.7.7 0 0 1-.238-.765c.482-1.523.712-3.1.683-4.686-.148-7.829-6.572-13.962-14.628-13.962q-.541 0-1.09.037h-.017q-.374.028-.747.072a.703.703 0 0 1-.784-.703v-.062A7.08 7.08 0 0 0 79.065 0a7.06 7.06 0 0 0-6.721 4.87.703.703 0 0 1-.98.41c-1.064-.528-2.226-.598-3.222-.598-.577 0-1.278.03-2.142.089-2.064.145-3.321.435-4.335 1.002-1.507.842-2.389 2.329-2.417 4.082a.703.703 0 0 1-.654.689l-.31.02-.05.002a.703.703 0 0 1-.696-.624c-.21-1.866-1.339-2.85-1.994-3.27-1.169-.752-2.512-.853-3.672-.853-.579 0-1.28.03-2.143.09-2.064.145-3.32.435-4.335 1.002-1.537.858-2.418 2.38-2.418 4.175v1.517c0 .254.058.767-.388 1.084-.628.447-1.873-.187-2.501-.471-2.265-1.025-4.785-1.56-7.394-1.56q-.605 0-1.218.04h-.014a16.6 16.6 0 0 0-5.001 1.16.7.7 0 0 1-.582-.026.7.7 0 0 1-.36-.459c-.56-2.298-2.535-3.903-4.802-3.903-2.13 0-3.831 1.223-4.623 3.113-.099.237-.23.523-.485.55l-.073.004c-.23 0-.437-.253-.569-.445-.896-1.3-2.317-1.914-4.305-1.914-.766 0-1.726.07-3.216.188-2.339.184-3.573.435-4.553.925-1.144.574-2.508 1.77-2.508 4.21q0 .277.04.554c.008.048.717 4.836.717 9.728 0 4.605-.874 10.088-.974 10.698q-.001.012-.004.021c-.327 1.675-.32 4.027 1.576 5.709 1.033.916 2.352 1.38 3.92 1.38.433 0 .824-.033 1.139-.06l.184-.015 11.84-.83c2.24-.183 3.28-1.461 3.755-2.5a.7.7 0 0 1 .973-.326 16.2 16.2 0 0 0 5.725 1.83c.516.074.902.517.902 1.04v10.843c0 .708.297 1.392.815 1.874a2.55 2.55 0 0 0 1.927.683l10.17-.715a2.55 2.55 0 0 0 1.753-.874.35.35 0 0 1 .397-.094q.093.038.187.073c1.234.457 2.405.68 3.582.68 1.75 0 3.432-.5 4.997-1.484q.041-.025.08-.053a8 8 0 0 0 1.001-.806.35.35 0 0 1 .486.003c.933.904 2.257 1.383 3.826 1.383.203 0 .417-.008.631-.023l.083-.006 7.628-.527a2.56 2.56 0 0 0 2.154-1.492.35.35 0 0 1 .295-.205h.025c.119 0 .23.06.296.161a2.57 2.57 0 0 0 2.336 1.173l9.572-.672q.09-.005.176-.02l.023-.002c.917-.065 1.892-.168 2.853-.63a.35.35 0 0 1 .324.01 2.6 2.6 0 0 0 1.424.317l9.041-.635c.325-.022.638-.107.931-.248a.35.35 0 0 1 .24-.023c.588.152 1.22.229 1.877.229.216 0 .44-.008.663-.024 1.77-.124 3.232-.644 4.348-1.544 1.295-1.045 2.008-2.543 2.008-4.219 0-.69-.115-1.33-.344-1.907z"/><path fill="#ff00c7" d="M102.697 30.244c-1.443.22-1.773.55-1.993 1.994-.016.102-.161.102-.177 0-.221-1.444-.55-1.773-1.994-1.994-.101-.016-.101-.16 0-.177 1.444-.22 1.773-.55 1.994-1.993.016-.102.161-.102.177 0 .22 1.443.55 1.773 1.993 1.993.102.016.102.161 0 .177m-78.566-16.44c-2.439.373-2.995.929-3.368 3.368-.026.17-.272.17-.298 0-.373-2.44-.929-2.995-3.368-3.368-.171-.026-.171-.273 0-.299 2.44-.372 2.995-.928 3.368-3.368.026-.17.272-.17.298 0 .373 2.44.93 2.996 3.368 3.368.171.026.171.273 0 .299m59.633-6.53c-3.257.497-3.998 1.24-4.496 4.496-.035.229-.364.229-.399 0-.498-3.257-1.24-3.999-4.496-4.496-.23-.035-.23-.364 0-.399 3.257-.498 3.998-1.24 4.496-4.496.035-.23.364-.23.399 0 .498 3.256 1.24 3.998 4.496 4.496.229.035.229.364 0 .399"/><path fill="#ff0404" d="M58.645 29.69c.008.505-.042 1.186-.006 2.806.074 3.34.002 3.56-.937 3.763 0 0-.975.101-1.293.142-.319.04-1.292.114-1.292.114-5.271.369-9.095-2.078-9.095-7.976 0-2.923 0-6.893-.156-7.038-.261-.19-.94-.038-1.46-.002-.47.033-.627-.322-.627-2.775 0-1.265.059-2.048.091-2.57.047-.76.377-.913.691-.93 1.827-.095 2.136-.254 2.136-1.193V11.09c0-.73.268-1.253 3.293-1.465 3.548-.249 3.862.078 3.862.965v2.94c0 .94.02 1.02 2.944.839.504-.031.73.09.774 1.015.024.509.092 1.258.092 2.368 0 .978-.008 1.782-.031 2.122-.048.687-.394.726-.748.75-.445.031-2.023.066-2.646.216a.44.44 0 0 0-.327.342c-.058.29-.058.72-.058.906v4.596c0 2.245 2.688 2.317 3.261 2.278l.675-.043c.288-.02.846.113.856.77zm15.441-1.91-.7.045c-.574.04-3.261-.032-3.261-2.277V20.95c0-.261 0-.992.156-1.159.261-.226 2.505-.28 3.027-.316.575-.04.627-.304.627-2.862 0-1.488-.005-2.358-.067-2.84-.07-.562-.434-.57-.717-.55-2.923.204-3.027.107-3.027-.833V9.45c0-.888-.314-1.214-3.862-.965-3.027.212-3.293.734-3.293 1.465v2.94c0 .336.004.688-.184.857-.341.305-1.078.277-1.95.337-.302.021-.633.06-.688.774a35 35 0 0 0-.096 2.725c0 1.04.051 1.576.1 2.031.06.57.302.733.76.71.414-.021.691-.097 1.015-.044a.32.32 0 0 1 .262.279c.107.86.107 4.257.107 6.838 0 5.897 3.863 8.29 9.135 7.92l2.78-.195c.494-.078.671-.21.728-1.044.037-.544.034-5.07.034-5.593 0-.74-.58-.728-.887-.706zm25.596-6.016c.053 2.859-1.036 5.655-3.068 7.872-2.175 2.373-5.23 3.864-8.386 4.092h-.024c-5.826.41-12.1-3.612-12.169-10.262-.028-2.78 1.08-5.522 3.12-7.724 2.295-2.478 5.492-4.03 8.772-4.26h.015c6.359-.438 11.625 4.175 11.74 10.283zM87.973 26.64c1.086-.082 2.016-.511 2.69-1.243.71-.771 1.097-1.854 1.086-3.047-.021-2.28-1.736-3.947-3.906-3.797h-.002c-1.037.073-2 .537-2.715 1.31a4.35 4.35 0 0 0-1.155 3.021c.029 2.265 1.775 3.912 3.98 3.757h.023m-44.497-.945c.054 2.86-1.036 5.655-3.068 7.873-2.174 2.373-5.23 3.863-8.385 4.091h-.025c-5.826.41-12.1-3.612-12.169-10.261-.028-2.78 1.08-5.523 3.12-7.724 2.295-2.478 5.493-4.03 8.773-4.26h.014c6.359-.438 11.625 4.174 11.74 10.283zm-11.71 4.878c1.086-.082 2.016-.512 2.69-1.243.71-.772 1.097-1.854 1.086-3.048-.021-2.28-1.736-3.946-3.906-3.796h-.002c-1.037.073-2 .537-2.715 1.31a4.35 4.35 0 0 0-1.155 3.021c.029 2.265 1.775 3.912 3.98 3.757h.023zm-13.975.455c-.7.25-1.79.48-3.715.503-.479.034-1.412-.017-1.58-.511-.213-.623.176-4.078.176-8.171 0-4.094-.423-8.481-.423-8.481-.305-.975-.548-1-4.515-.69-3.654.287-3.632.696-3.632 1.426 0 0 .758 5.03.758 10.28s-1.036 11.38-1.036 11.38c-.124.603-.314 1.65.382 2.266.663.588 1.653.445 2.488.379l11.824-.828c.402-.033.716-.061.79-.788.056-.542.066-1.472.066-3.077 0-1.372-.056-2.417-.086-2.925-.033-.597-.807-1.01-1.498-.763z"/><path fill="#ff00c7" d="M46.274 36.894c-1.627.248-1.999.62-2.248 2.247-.017.114-.182.114-.199 0-.249-1.627-.62-1.999-2.247-2.247-.114-.018-.114-.182 0-.2 1.627-.249 1.998-.62 2.247-2.247.017-.114.182-.114.2 0 .248 1.627.62 1.998 2.247 2.247.114.017.114.182 0 .2"/><path fill="#ff0404" d="M58.645 29.69c.008.505-.042 1.186-.006 2.806.074 3.34.002 3.56-.937 3.763 0 0-.975.101-1.293.142-.319.04-1.292.114-1.292.114-5.271.369-9.095-2.078-9.095-7.976 0-2.923 0-6.893-.156-7.038-.261-.19-.94-.038-1.46-.002-.47.033-.627-.322-.627-2.775 0-1.265.059-2.048.091-2.57.047-.76.377-.913.691-.93 1.827-.095 2.136-.254 2.136-1.193V11.09c0-.73.268-1.253 3.293-1.465 3.548-.249 3.862.078 3.862.965v2.94c0 .94.02 1.02 2.944.839.504-.031.73.09.774 1.015.024.509.092 1.258.092 2.368 0 .978-.008 1.782-.031 2.122-.048.687-.394.726-.748.75-.445.031-2.023.066-2.646.216a.44.44 0 0 0-.327.342c-.058.29-.058.72-.058.906v4.596c0 2.245 2.688 2.317 3.261 2.278l.675-.043c.288-.02.846.113.856.77zm15.441-1.91-.7.045c-.574.04-3.261-.032-3.261-2.277V20.95c0-.261 0-.992.156-1.159.261-.226 2.505-.28 3.027-.316.575-.04.627-.304.627-2.862 0-1.488-.005-2.358-.067-2.84-.07-.562-.434-.57-.717-.55-2.923.204-3.027.107-3.027-.833V9.45c0-.888-.314-1.214-3.862-.965-3.027.212-3.293.734-3.293 1.465v2.94c0 .336.004.688-.184.857-.341.305-1.078.277-1.95.337-.302.021-.633.06-.688.774a35 35 0 0 0-.096 2.725c0 1.04.051 1.576.1 2.031.06.57.302.733.76.71.414-.021.691-.097 1.015-.044a.32.32 0 0 1 .262.279c.107.86.107 4.257.107 6.838 0 5.897 3.863 8.29 9.135 7.92l2.78-.195c.494-.078.671-.21.728-1.044.037-.544.034-5.07.034-5.593 0-.74-.58-.728-.887-.706zm25.596-6.016c.053 2.859-1.036 5.655-3.068 7.872-2.175 2.373-5.23 3.864-8.386 4.092h-.024c-5.826.41-12.1-3.612-12.169-10.262-.028-2.78 1.08-5.522 3.12-7.724 2.295-2.478 5.492-4.03 8.772-4.26h.015c6.359-.438 11.625 4.175 11.74 10.283zM87.973 26.64c1.086-.082 2.016-.511 2.69-1.243.71-.771 1.097-1.854 1.086-3.047-.021-2.28-1.736-3.947-3.906-3.797h-.002c-1.037.073-2 .537-2.715 1.31a4.35 4.35 0 0 0-1.155 3.021c.029 2.265 1.775 3.912 3.98 3.757h.023m-44.497-.945c.054 2.86-1.036 5.655-3.068 7.873-2.174 2.373-5.23 3.863-8.385 4.091h-.025c-5.826.41-12.1-3.612-12.169-10.261-.028-2.78 1.08-5.523 3.12-7.724 2.295-2.478 5.493-4.03 8.773-4.26h.014c6.359-.438 11.625 4.174 11.74 10.283zm-11.71 4.878c1.086-.082 2.016-.512 2.69-1.243.71-.772 1.097-1.854 1.086-3.048-.021-2.28-1.736-3.946-3.906-3.796h-.002c-1.037.073-2 .537-2.715 1.31a4.35 4.35 0 0 0-1.155 3.021c.029 2.265 1.775 3.912 3.98 3.757h.023zm-13.975.455c-.7.25-1.79.48-3.715.503-.479.034-1.412-.017-1.58-.511-.213-.623.176-4.078.176-8.171 0-4.094-.423-8.481-.423-8.481-.305-.975-.548-1-4.515-.69-3.654.287-3.632.696-3.632 1.426 0 0 .758 5.03.758 10.28s-1.036 11.38-1.036 11.38c-.124.603-.314 1.65.382 2.266.663.588 1.653.445 2.488.379l11.824-.828c.402-.033.716-.061.79-.788.056-.542.066-1.472.066-3.077 0-1.372-.056-2.417-.086-2.925-.033-.597-.807-1.01-1.498-.763zm31.272 14.833c.446 2.09-.109 5.202-2.611 5.829-2.675-.623-3.147-4.791-1.058-6.625-.198.81-.13 1.851.52 2.333.735.542 1.525-.128 1.54-.998.023-1.203-.514-2.285-.288-3.504.268-1.774 1.513-3.326 2.924-4.45-.452 1.423-.79 2.974-.275 4.334.302.798.96 1.766 1.813 1.49 1.25-.406.209-2.44.044-3.083 3.407 1.64 4.718 7.402.966 9.964-1.745 1.265-3.4 1.08-3.51 1.046 1.71-1.572 2.357-4.161-.066-6.334z"/><path fill="navy" d="M39.556 48.61v4.088l3.352-.236V41.54l-3.352.235v3.956l-3.466.244V42.02l-3.352.235v10.923l3.352-.235v-4.088zm21.233.159c-.54.038-.802-.222-.802-.81v-2.617l2.027-.142v-2.403l-2.01.14v-2.125l-3.303.592v1.765l-1.014.072v2.404l.997-.07v3.09c0 1.962 1.16 2.943 3.204 2.8.998-.071 1.881-.41 2.486-.96l-.377-2.246c-.392.305-.801.481-1.21.51zm7.618-9.022-4.922.345v10.923l3.352-.235v-3.091l1.57-.11c1.292-.09 2.338-.508 3.14-1.267.8-.759 1.193-1.735 1.193-2.928 0-2.502-1.586-3.83-4.332-3.636zM68 45.024l-1.16.082v-2.6l1.16-.082c.85-.06 1.308.365 1.308 1.216 0 .85-.459 1.324-1.308 1.383zm7.374-7.058c-1.047.073-1.832.783-1.832 1.764 0 .98.785 1.596 1.832 1.523 1.062-.075 1.847-.784 1.847-1.782s-.785-1.58-1.847-1.506zm1.652 12.098v-8.322l-3.303.231v8.322zm5.304-.165c.965-.068 1.798-.355 2.47-.876a3.4 3.4 0 0 0 1.275-2.003l-2.846-.732c-.065.725-.392 1.173-.915 1.21-.735.051-1.078-.547-1.078-1.87 0-1.324.359-2.004 1.062-2.054.54-.038.817.336.883 1.132l2.812-.836c-.18-1.819-1.602-2.83-3.777-2.677-1.291.09-2.338.557-3.106 1.396-.77.838-1.145 1.928-1.145 3.269 0 1.34.393 2.36 1.178 3.09q1.177 1.093 3.189.953zm9.974-9.218L90.8 43.533l-.458.033v-6.23l-3.303.232v11.805l3.303-.231v-3.255l.458-.032 1.668 3.137 3.613-.254-2.42-4.277 2.191-4.03zm7.49 7.991c2.485-.174 3.973-1.374 3.973-3.206 0-.866-.311-1.482-.949-1.846-.408-.249-.899-.378-2.092-.49-1.178-.114-1.373-.247-1.373-.558 0-.343.277-.575.735-.608.524-.037.883.233.933.67l2.682-.499c-.278-1.534-1.619-2.339-3.647-2.196-1.128.079-2.027.403-2.73.993-.704.572-1.047 1.3-1.047 2.199 0 .85.295 1.451.933 1.815.408.233.899.378 2.06.493 1.178.114 1.373.246 1.373.557 0 .377-.294.577-.817.613-.54.039-.965-.242-1.078-.692l-2.699.762c.377 1.412 1.734 2.134 3.745 1.993z"/><path fill="navy" d="M107.843 45.419a.35.35 0 0 1 .012-.286 2.54 2.54 0 0 0 .226-1.595 5 5 0 0 0-1.396-2.694l-.017-.018-.017-.017-.018-.017-.017-.018-.017-.017-.018-.017-.017-.018-.017-.017-.018-.017-.017-.018-.017-.017-.018-.017-.017-.018-.017-.017-.018-.017-.017-.018-.017-.017-.018-.017-.017-.018-.017-.017-.018-.018-.017-.017-.018-.017-.017-.018-.017-.017-.018-.017-.017-.018-.017-.017-.018-.017-.017-.018-.017-.017q-.008-.01-.018-.017l-.017-.018-.017-.017q-.008-.01-.018-.017l-.017-.018-.017-.017-.018-.017-.017-.018-.017-.017-.018-.017-.017-.018-.017-.017-.018-.017-.017-.018-.017-.017-.018-.017-.017-.018-.017-.017-.018-.017-.017-.018-.017-.017q-.008-.01-.018-.017l-.017-.018-.017-.017q-.008-.01-.018-.017l-.017-.018-.017-.017-.018-.017-.017-.018-.017-.017-.018-.017-.017-.018-.017-.017-.018-.017-.017-.018-.017-.017-.018-.017-.017-.018-.017-.017-.018-.017-.017-.018-.017-.017-.018-.017-.017-.018-.017-.017-.018-.017-.017-.018-.017-.017-.018-.017-.017-.018-.017-.017-.018-.017-.017-.018-.017-.017-.018-.017-.017-.018-.017-.017-.018-.017-.017-.018-.017-.017-.018-.017-.017-.018-.017-.017-.018-.017-.017-.018-.017-.017-.018-.017-.017-.018-.017-.017-.018-.017-.017-.018-.018-.017-.017-.018-.009-.007a5 5 0 0 1 1.37 2.667 2.55 2.55 0 0 1-.225 1.595.35.35 0 0 0-.013.286c.228.576.345 1.217.345 1.907 0 1.675-.714 3.174-2.009 4.219-1.116.9-2.578 1.419-4.347 1.544a9 9 0 0 1-.664.023 7.5 7.5 0 0 1-1.876-.229.35.35 0 0 0-.24.024 2.6 2.6 0 0 1-.931.247l-9.042.636q-.09.006-.18.006c-.435 0-.864-.111-1.244-.323a.35.35 0 0 0-.323-.01c-.961.462-1.937.565-2.853.63l-.024.003a2 2 0 0 1-.176.018l-9.571.672q-.09.007-.18.007a2.57 2.57 0 0 1-2.157-1.18.35.35 0 0 0-.296-.16h-.025a.35.35 0 0 0-.294.204 2.56 2.56 0 0 1-2.155 1.492l-7.628.528-.083.006a9 9 0 0 1-.631.022c-1.57 0-2.893-.478-3.826-1.383a.35.35 0 0 0-.486-.002 8 8 0 0 1-1 .806l-.08.053c-1.566.984-3.248 1.483-4.998 1.483-1.177 0-2.348-.222-3.581-.68l-.187-.072a.35.35 0 0 0-.398.094 2.55 2.55 0 0 1-1.753.874l-10.17.714a2.56 2.56 0 0 1-1.923-.678l.013.015.004.002.015.015.004.003q.007.008.015.014l.003.003.015.015.004.002.015.015.003.003.015.014.004.003.015.015.004.002q.006.008.015.015l.003.003.015.014.004.003.015.015.003.002.015.015.004.003q.007.008.015.014l.004.003.014.015.004.002.015.015.004.003q.006.008.015.014l.003.003.015.015.004.002q.006.008.015.015l.003.003.014.014.004.003q.006.008.015.015l.003.002.015.015.004.003q.006.008.015.014l.003.003.015.015.004.002.015.015.004.003q.006.008.014.014l.004.003.014.015.004.002.014.015.004.003q.007.008.015.014l.004.003.015.015.003.002.015.015.004.003q.007.008.015.014l.003.003.015.015.004.002.014.015.003.003q.007.008.015.014l.004.003.015.015.003.002.015.015.004.003q.007.008.015.014l.004.003.014.015.004.002.015.015.004.003q.006.008.015.014l.003.003.015.015.004.002.015.015.003.003.015.014.004.003.015.015.004.002.014.015.004.003.015.015.004.002q.006.008.015.015l.003.002.015.015.004.003q.006.008.015.015l.003.002.015.015.004.002.015.015.004.003.014.015.004.002.015.015.004.002.015.015.003.003.015.015.004.002q.006.008.015.015l.003.002.015.015.004.003.015.015.004.002.014.015.004.002.015.015.004.003.015.015.003.002.015.015.004.002.015.015.004.003.014.015.004.002.015.015.004.002.014.015.004.003.015.015.004.002.013.015.004.002.015.015.004.003.014.015.004.002.015.015.004.002q.006.008.015.015l.003.003.015.015.004.002.015.015.003.003.014.014.004.003q.006.008.015.015l.003.002.015.015.004.003.015.014.004.003.014.015.004.002.015.015.004.003q.006.008.015.014l.003.003.014.015.004.002.014.015.004.003q.007.008.015.014l.004.003.015.015.003.002.015.015.004.003q.007.008.015.014l.004.003.014.015.004.002.015.015.004.003q.006.008.014.014l.004.003.015.015.004.002q.006.008.015.015l.003.003.015.014.004.003.015.015.003.002.015.015.004.003q.007.008.015.014l.004.003.014.015.004.002.015.015.004.003q.007.008.015.014l.003.003.015.015.004.002.015.015.004.003q.006.008.014.014l.004.003.015.015.004.002.014.015.004.003q.007.008.015.014l.004.003.015.015.003.002.015.015a2.56 2.56 0 0 0 1.927.682l10.17-.714a2.55 2.55 0 0 0 1.753-.874.35.35 0 0 1 .398-.094q.092.037.187.073c1.233.457 2.404.68 3.58.68 1.752 0 3.433-.5 4.998-1.484q.042-.026.08-.053a8 8 0 0 0 1.001-.806.35.35 0 0 1 .486.002c.933.904 2.257 1.383 3.826 1.383.203 0 .417-.007.631-.022l.083-.006 7.628-.528a2.56 2.56 0 0 0 2.155-1.492.35.35 0 0 1 .294-.204h.025q.03.001.06.007l.004.005.014.013.004.005.013.012.004.005q.006.008.014.012l.003.005.014.013.004.005.013.012.004.005q.006.008.014.012l.004.005.013.013.004.005.013.012.004.005q.006.008.014.012l.004.005q.005.007.013.013l.004.005.013.012.004.005.014.012.004.005.013.013.004.005.013.012.004.005.014.012.004.005q.005.007.013.013l.004.005.013.012.004.005.014.012.004.005q.005.007.013.013l.004.005q.006.007.014.012l.003.005.014.012.004.005q.005.007.013.013l.004.005.013.012.004.005q.006.008.014.012l.003.005.014.013.004.005.014.012.003.005.014.012.004.005.013.013.004.005.013.012.004.005q.006.007.014.012l.004.005a2.57 2.57 0 0 0 2.04.795l9.572-.672q.09-.006.176-.019l.023-.002c.917-.066 1.892-.169 2.853-.63a.35.35 0 0 1 .323.01 2.6 2.6 0 0 0 1.424.316l9.042-.635c.325-.022.638-.106.931-.248a.35.35 0 0 1 .24-.023 7.5 7.5 0 0 0 1.877.229q.325 0 .663-.023c1.77-.124 3.232-.644 4.348-1.545 1.295-1.045 2.008-2.543 2.008-4.218 0-.69-.115-1.331-.344-1.907zm-7.475-32.205q.02.027.042.052l.146.19.058.075q.067.09.131.18l.067.091.122.175.069.102.114.172q.036.054.07.109.054.083.107.17l.072.115.1.167.072.122.165.294.089.166.069.132.083.166.068.137.078.165.066.141.073.165.063.146.069.165.061.15a8 8 0 0 1 .121.32l.06.164.054.157.056.165.052.16.051.165.094.33.044.17q.022.08.042.163l.041.172q.02.082.037.165l.038.175.033.164.034.18.029.163.03.184a8 8 0 0 1 .051.353l.02.158.021.199.016.152.017.213q.007.07.011.142l.014.237.006.12q.008.178.011.358a14.6 14.6 0 0 1-.682 4.687.7.7 0 0 0 .238.765 3.8 3.8 0 0 1 1.473 3.012 3.82 3.82 0 0 1-3.817 3.817 3.8 3.8 0 0 1-1.896-.505.7.7 0 0 0-.805.074 14 14 0 0 1-.594.48q-.157.121-.316.238l-.171.126q-.204.146-.412.286-.136.09-.273.177l-.173.11q-.157.1-.317.194-.03.019-.06.035-.375.222-.761.425l-.004.002q-.24.126-.485.243-.079.04-.159.078a1.053 1.053 0 0 0 .446 2.007q.038 0 .074-.002l.966-.069q.09-.005.18-.006c.338 0 .668.066.982.196q.065.026.135.027.076 0 .147-.032a7 7 0 0 1 .822-.315 16.5 16.5 0 0 0 2.451-1.726.7.7 0 0 1 .806-.074c.574.33 1.231.505 1.896.505a3.82 3.82 0 0 0 3.817-3.817c0-1.038-.413-2.01-1.148-2.726l-.017-.017-.017-.017-.018-.018-.017-.017-.017-.017-.018-.018-.017-.017-.017-.017-.018-.018-.017-.017-.017-.017-.018-.018-.017-.017-.018-.017-.017-.018-.017-.017-.018-.017-.017-.018-.017-.017-.018-.017-.017-.018-.017-.017-.018-.018-.017-.017-.017-.017q-.008-.01-.018-.018l-.017-.017-.017-.017-.026-.026a.7.7 0 0 1-.046-.533c.483-1.523.712-3.099.682-4.685a13.98 13.98 0 0 0-4.131-9.706l-.017-.017-.017-.017-.018-.018-.017-.017-.035-.035-.017-.017-.017-.017-.018-.018-.017-.017-.017-.017-.018-.018-.017-.017-.017-.017-.018-.018-.017-.017-.017-.017-.018-.018-.017-.017-.017-.017-.018-.018-.017-.017-.017-.017-.018-.018-.017-.017-.017-.017-.018-.018-.017-.017-.017-.017-.018-.018-.017-.017-.017-.017-.018-.018-.017-.017-.017-.017-.018-.018-.017-.017-.017-.017-.018-.018-.017-.017-.017-.017-.018-.018-.017-.017-.017-.017-.018-.018-.017-.017-.017-.017-.018-.018-.017-.017-.017-.017-.018-.018-.017-.017-.017-.017-.018-.018-.017-.017-.017-.017-.018-.018-.017-.017-.018-.017-.017-.018-.017-.017-.018-.017-.017-.018-.017-.017-.018-.017-.017-.018-.017-.017-.018-.017-.017-.018-.017-.017-.018-.017-.017-.018-.017-.017-.018-.018-.017-.017-.017-.017-.018-.018-.017-.017-.017-.017-.018-.018-.017-.017-.017-.017-.018-.018-.017-.017-.017-.017-.018-.018-.017-.017-.017-.017-.018-.018-.017-.017-.017-.017-.018-.018-.017-.017-.017-.017-.018-.018-.017-.017-.017-.017-.018-.018-.017-.017-.017-.017-.018-.018-.017-.017-.017-.017-.018-.018-.017-.017-.017-.017-.018-.018-.017-.017-.017-.017-.018-.018-.017-.017-.017-.017-.035-.035-.017-.017-.018-.018-.017-.017-.017-.017-.018-.018-.017-.017-.017-.017-.018-.018-.017-.017-.017-.017-.018-.018-.017-.017-.017-.017-.018-.018-.017-.017-.017-.017-.018-.018-.017-.017-.017-.017-.018-.018-.017-.017-.035-.035-.017-.017-.009-.009q.56.563 1.053 1.184zm-70.192 29.12c0-.523-.385-.967-.903-1.041l-.257-.035q-.088-.011-.174-.024l-.252-.04-.179-.031-.247-.045q-.12-.023-.237-.048a12 12 0 0 1-.361-.08l-.205-.049q-.11-.027-.22-.057l-.22-.059a13 13 0 0 1-.747-.227 10 10 0 0 1-.444-.153q-.13-.048-.263-.1l-.155-.059a23 23 0 0 1-.401-.163l-.073-.032q-.171-.074-.342-.153l-.135-.063-.29-.14q-.063-.03-.125-.062a17 17 0 0 1-.399-.208.7.7 0 0 0-.558-.048.7.7 0 0 0-.416.374c-.477 1.04-1.515 2.318-3.754 2.5l-11.84.83-.185.014c-.316.028-.706.061-1.14.061-1.567 0-2.886-.464-3.918-1.38a4 4 0 0 1-.153-.14l.018.018.017.017.017.018.018.017.017.018.017.017q.008.01.018.017l.017.018.017.017q.008.01.018.017l.017.018.017.017.018.017q.008.01.017.018l.017.017.018.017q.008.01.017.018l.017.017.018.017.017.018.017.017.018.017.017.018.017.017.018.017.017.018.017.017q.008.01.018.017l.017.018.017.017q.008.01.018.017l.017.018.017.017.018.017.017.018.017.017.018.017q.008.01.017.018l.017.017.018.017.017.018.017.017q.008.01.018.017l.017.018.017.017.018.017.017.018.017.017.018.017q.008.01.017.018l.017.017q.009.01.018.017l.017.018.017.017.018.017.017.018.017.017.018.017q.008.01.017.018l.017.017.018.017.017.018.017.017.018.017.017.018.017.017.018.018.017.017.017.017.018.018q.008.01.017.017l.017.017.018.018q.008.01.017.017l.017.017.018.018.017.017.017.017.018.017.017.018.017.017.018.017.017.018.017.017.018.018.017.017.017.017.018.018.017.017.017.017.018.018q.008.01.017.017l.017.017.018.018q.008.01.017.017l.017.017.018.018.017.017.017.017.018.018.017.017.017.017.018.018.017.017.017.017.018.018.017.017.017.017.018.018.017.017.017.017.018.018q.008.01.017.017l.017.017.018.018.017.017.017.017.018.018.017.017.017.017.018.018.017.017.017.017.018.018.017.017.018.017q.008.01.017.018l.017.017.018.017q.008.01.017.018l.017.017.018.017.017.018.017.017.018.017.017.018.017.017.018.017.017.018q.09.09.187.174c1.033.917 2.351 1.381 3.919 1.381.433 0 .825-.033 1.14-.06l.182-.016c.118-.008 11.756-.823 11.84-.83 2.24-.182 3.28-1.46 3.755-2.5a.7.7 0 0 1 .973-.325 16.2 16.2 0 0 0 4.152 1.557v-1.162z"/><path fill="navy" d="M107.211 27.836q.202 0 .372.065.162.06.28.172a.83.83 0 0 1 .249.621.83.83 0 0 1-.249.622.8.8 0 0 1-.28.172 1.1 1.1 0 0 1-.372.064q-.201.001-.373-.064a.8.8 0 0 1-.28-.172.83.83 0 0 1-.249-.622.83.83 0 0 1 .249-.621.8.8 0 0 1 .28-.172q.172-.065.373-.065m0-.327c-.701 0-1.229.472-1.229 1.185s.528 1.185 1.229 1.185 1.228-.472 1.228-1.185-.527-1.185-1.228-1.185"/><path fill="navy" d="m107.392 29.28-.144-.421h-.187v.421h-.331v-1.173h.575c.239 0 .4.152.4.377a.35.35 0 0 1-.149.293l.184.503zm-.332-.903v.238h.173c.081 0 .127-.042.127-.12 0-.07-.046-.118-.127-.118z"/></g><defs><clipPath id="a"><path fill="#fff" d="M0 0h109.093v57.6H0z"/></clipPath></defs></svg>