<svg width="121" height="73" viewBox="0 0 121 73" fill="none" xmlns="http://www.w3.org/2000/svg">
<g id="problem-gambling-support-seeklogo.com-2 1" clip-path="url(#clip0_1777_162279)">
<g id="Desktop_Update">
<g id="Home-Page_Banner-Example-2">
<g id="Footer">
<g id="Group-2">
<g id="Group">
<g id="GamCare-Logo">
<path id="Shape" d="M39.8077 28.5594C39.8077 28.0716 39.8077 27.6061 39.7634 27.1183C39.4308 22.5289 37.4576 18.2056 34.2206 14.9686C33.4003 14.1261 32.4913 13.3501 31.5158 12.685C29.8529 11.5321 28.0128 10.6675 26.0617 10.091C24.4432 9.62543 22.7583 9.38155 21.0733 9.35938H20.785H0.254757C-0.011294 9.38155 -0.210831 9.55891 -0.277344 9.80279C-0.277344 9.89148 -0.277344 10.0023 -0.277344 10.091V39.8222C-0.277344 40.0218 -0.277344 40.2213 -0.277344 40.443C-0.277344 40.6647 -0.277344 40.9086 -0.233003 41.1303C0.0108776 44.2121 1.00857 47.183 2.64922 49.7992C5.24322 53.9008 9.27833 56.8495 13.9786 58.0911C15.3753 58.4458 16.8164 58.6675 18.2575 58.7119C19.1222 58.7119 19.9869 58.7119 20.8737 58.7119C21.6054 58.7119 22.337 58.6675 23.0686 58.5788C24.9753 58.335 26.8377 57.825 28.5892 57.0269C31.804 55.5858 34.5532 53.28 36.5264 50.3756C38.677 47.2273 39.8299 43.5248 39.852 39.7114L39.8077 28.5594ZM33.6663 39.9996C33.6663 41.4407 33.4225 42.8596 32.9569 44.2342C32.1809 46.54 30.6954 48.5354 28.7222 49.9543C26.9929 51.1959 24.9975 51.9941 22.8913 52.3045C20.1643 52.7257 17.3929 52.5705 14.7324 51.8167C13.1361 51.3733 11.6506 50.6195 10.3647 49.5774C9.03445 48.5132 7.97024 47.1386 7.2386 45.6088C6.44045 43.8795 5.99703 41.995 5.90834 40.1105C5.864 39.6227 5.864 39.0684 5.864 38.5363C5.864 35.4989 5.864 32.4837 5.864 29.4462C5.84183 28.2047 5.95269 26.9409 6.19657 25.7215C6.50696 24.0144 7.17209 22.3959 8.12544 20.9326C9.27833 19.2254 10.8746 17.873 12.7592 17.0083C14.3333 16.2989 15.9961 15.8333 17.7254 15.6781C19.1887 15.5007 20.6742 15.5007 22.1375 15.6559C24.3767 15.8555 26.5051 16.6093 28.3453 17.873C29.6977 18.8264 30.8285 20.0679 31.671 21.509C32.2474 22.4846 32.713 23.5488 33.0234 24.6351C33.1342 24.9012 33.1342 25.1894 32.979 25.4333C32.846 25.6772 32.6021 25.8324 32.3139 25.8767L27.0816 27.4065C26.8599 27.4952 26.6382 27.4952 26.4165 27.3843C26.2169 27.2735 26.0617 27.0739 26.0174 26.8522C25.8178 26.2315 25.5518 25.6107 25.2192 25.0564C24.5319 23.8813 23.379 23.061 22.0488 22.8171C20.2308 22.3737 18.3019 22.5511 16.5947 23.3049C15.3753 23.8592 14.4442 24.879 14.0007 26.1206C13.6238 27.1848 13.4465 28.2934 13.4686 29.4019C13.4686 32.4837 13.4686 35.5654 13.4686 38.6472C13.4465 39.8666 13.6682 41.0638 14.1116 42.1945C14.6437 43.5248 15.7301 44.5446 17.0825 45.0102C18.2797 45.4093 19.5213 45.5867 20.785 45.4758C21.6497 45.4537 22.4922 45.2763 23.2904 44.9881C24.5541 44.5225 25.5296 43.5026 25.973 42.2389C26.2613 41.4185 26.3943 40.576 26.4165 39.7114C26.4165 39.3123 26.4165 38.9132 26.4165 38.492C26.4165 38.3146 26.3721 38.2259 26.1726 38.2481C26.1061 38.2481 26.0395 38.2481 25.973 38.2481H20.9624C20.7407 38.2703 20.5412 38.2038 20.386 38.0486C20.2308 37.8934 20.1643 37.6938 20.1864 37.4721V32.6167C20.1864 31.8629 20.4081 31.619 21.1841 31.619H32.7352C32.8238 31.619 32.9347 31.619 33.0234 31.619C33.2008 31.619 33.3781 31.7077 33.489 31.8407C33.5998 31.9737 33.6663 32.1511 33.6442 32.3285V32.5502C33.6663 35.0111 33.6663 37.4943 33.6663 39.9996Z" fill="#141414"/>
<path id="Path" d="M50.5599 52.5041C49.8283 52.5484 49.0966 52.3489 48.4758 51.9498C47.9659 51.5729 47.589 51.0186 47.456 50.3978C47.4338 50.3313 47.4338 50.2648 47.4781 50.2205C47.5003 50.1761 47.5668 50.1318 47.6112 50.1096L48.8084 49.7105C48.8749 49.6662 48.9414 49.6884 49.0079 49.7105C49.0744 49.7549 49.1188 49.8214 49.1188 49.8879C49.2075 50.3756 49.6065 50.7526 50.1165 50.7969C50.4934 50.8634 50.8925 50.8412 51.2694 50.7082C51.6684 50.5752 51.8902 50.1761 51.8015 49.777C51.7571 49.5553 51.6019 49.378 51.4024 49.2893C50.9146 49.0454 50.4269 48.8459 49.9169 48.6685C49.4292 48.4911 48.9636 48.2251 48.5423 47.9147C47.9881 47.4269 47.6777 46.6953 47.7442 45.9415C47.7885 45.1877 48.1876 44.5225 48.8084 44.1013C49.5179 43.6579 50.3382 43.4805 51.1585 43.6135C52.2227 43.6357 53.1761 44.3008 53.5751 45.2985C53.7082 45.6089 53.686 45.6532 53.3756 45.7863L52.3779 46.141C52.134 46.2297 52.0897 46.2075 51.9788 45.9858C51.7793 45.6311 51.4467 45.365 51.0477 45.2542C50.6486 45.1433 50.2273 45.2098 49.8726 45.4315C49.6731 45.5646 49.5622 45.7863 49.5622 46.008C49.5622 46.2519 49.6731 46.4736 49.8726 46.5844C50.2938 46.8505 50.7373 47.05 51.2029 47.183C51.6684 47.3382 52.134 47.5378 52.5775 47.7816C53.2204 48.1807 53.6417 48.8459 53.7082 49.5997C53.7747 50.3535 53.5086 51.0851 52.9544 51.6172C52.2892 52.2158 51.4467 52.5262 50.5599 52.5041Z" fill="#141414"/>
<path id="Path_00000025405837348752886300000013648175732129161124_" d="M58.4529 51.4844C58.1647 51.8834 57.7656 52.1938 57.3 52.3934C56.5462 52.7037 55.7037 52.5264 55.1494 51.9278C54.8612 51.573 54.6838 51.1296 54.6617 50.664C54.5951 50.0211 54.6395 49.3781 54.6395 48.713C54.6395 47.8483 54.6395 46.9837 54.6395 46.119C54.6395 45.8529 54.6838 45.8308 54.9277 45.8308C55.3268 45.8308 55.748 45.8308 56.1693 45.8308C56.4132 45.8308 56.4575 45.8751 56.4575 46.119C56.4575 47.3606 56.4575 48.6021 56.4575 49.8659C56.4353 49.9767 56.4353 50.1098 56.4575 50.2206C56.524 50.5088 56.7457 50.7527 57.0339 50.8414C57.3222 50.9301 57.6326 50.8636 57.8543 50.664C58.209 50.4201 58.4307 49.9989 58.4307 49.5777C58.4307 48.4248 58.4307 47.2719 58.4307 46.0968C58.4307 45.8529 58.4529 45.8086 58.7189 45.8086H59.9827C60.16 45.8086 60.2266 45.8751 60.2266 46.0746V52.1051C60.2266 52.2603 60.1822 52.349 59.9827 52.349C59.5614 52.349 59.1402 52.349 58.6968 52.349C58.5416 52.349 58.4529 52.2825 58.4529 52.1273C58.4529 51.9721 58.4529 51.7282 58.4529 51.4844Z" fill="#141414"/>
<path id="Path_00000051345026263216385470000006021456696122272700_" d="M89.2686 48.8238C89.2686 49.245 89.2686 49.6884 89.2686 50.1097C89.2686 50.5309 89.4238 50.7305 89.8894 50.7748C90.0889 50.7748 90.2885 50.7748 90.4658 50.7748C90.5989 50.7748 90.6876 50.8413 90.6876 50.9743V52.1272C90.6876 52.2381 90.6432 52.3268 90.5102 52.3268C90.0224 52.3489 89.5125 52.3268 89.0247 52.2824C88.1157 52.1494 87.4506 51.3512 87.5393 50.4201C87.5393 49.4667 87.5393 48.5134 87.5393 47.5378C87.5393 47.3383 87.4949 47.2718 87.2954 47.294C87.0959 47.3161 86.9628 47.294 86.8076 47.294C86.6303 47.294 86.5859 47.2274 86.5859 47.0944V46.0524C86.5859 45.8972 86.6746 45.8307 86.8076 45.8307C86.9628 45.8307 87.1846 45.8307 87.3841 45.8307C87.5836 45.8307 87.5615 45.7863 87.5615 45.6533C87.5615 45.2542 87.5615 44.8552 87.5615 44.4561C87.5615 44.2787 87.628 44.2344 87.7832 44.2344H89.0691C89.2464 44.2344 89.2908 44.3009 89.2908 44.4783C89.2908 44.8773 89.2908 45.2764 89.2908 45.6977C89.2908 45.8307 89.3351 45.8529 89.446 45.8529C89.7785 45.8529 90.1111 45.8529 90.4437 45.8529C90.621 45.8529 90.7097 45.9194 90.7097 46.0967V47.0944C90.7097 47.2718 90.6432 47.3383 90.4658 47.3383C90.1333 47.3383 89.8007 47.3383 89.4682 47.3383C89.3351 47.3383 89.2908 47.3826 89.2908 47.5157C89.2908 47.9369 89.2686 48.4025 89.2686 48.8238Z" fill="#141414"/>
<path id="Path_00000041282881503634324500000002143043669251818935_" d="M83.3934 46.7608C83.6816 46.3174 84.125 45.9848 84.635 45.8074C84.8788 45.7409 85.1227 45.7188 85.3444 45.7188C85.4775 45.7188 85.5661 45.7853 85.5661 45.9183C85.5661 46.3395 85.5661 46.7608 85.5661 47.1599C85.5661 47.3151 85.4996 47.3816 85.3444 47.3816C85.0562 47.3816 84.7458 47.4037 84.4576 47.4703C83.8812 47.6476 83.4821 48.1797 83.4599 48.7783C83.4821 49.8647 83.4599 50.9289 83.4599 52.0153C83.4599 52.2813 83.4599 52.3035 83.1717 52.3035C82.7504 52.3035 82.3292 52.3035 81.8858 52.3035C81.7306 52.3035 81.6641 52.237 81.6641 52.0818C81.6641 50.0642 81.6641 48.0245 81.6641 45.9848C81.6641 45.8296 81.7306 45.7631 81.8636 45.7853H83.1495C83.3269 45.7853 83.3712 45.8739 83.3712 46.0291C83.3712 46.2287 83.3934 46.5391 83.3934 46.7608Z" fill="#141414"/>
<path id="Shape_00000116198446913363542650000010649795180427526063_" d="M73.9949 47.6927C73.9062 46.7837 73.2633 46.0077 72.3764 45.7639C71.4896 45.52 70.5363 45.8304 69.982 46.5398C69.982 46.3403 69.982 46.2073 69.982 46.0742C69.982 45.9412 69.9155 45.8082 69.7159 45.8082C69.3168 45.8082 68.9178 45.8082 68.4965 45.8082C68.2526 45.8082 68.2305 45.8304 68.2305 46.0742V54.4105C68.2305 54.6544 68.2748 54.6766 68.4965 54.6766H69.7603C70.0041 54.6766 70.0263 54.6544 70.0263 54.3883V51.8165C70.0263 51.75 70.0263 51.6835 70.0485 51.617C70.1593 51.7943 70.3145 51.9495 70.4697 52.0604C71.0905 52.526 71.9108 52.6147 72.6425 52.3265C73.3741 52.0382 73.8619 51.3509 73.9506 50.5749C74.1279 49.6438 74.1279 48.6682 73.9949 47.6927ZM72.1991 50.065C72.1547 50.5528 71.7556 50.9075 71.2679 50.9297C70.758 50.974 70.2924 50.6858 70.1372 50.198C70.0707 50.0428 70.0485 49.8876 70.0485 49.7325C70.0485 49.289 70.0485 48.8456 70.0485 48.4244C70.0485 48.0475 70.2259 47.6706 70.5363 47.471C70.8466 47.2493 71.2679 47.205 71.6226 47.3602C71.9995 47.4932 72.2434 47.8701 72.2434 48.2692C72.2434 48.5352 72.2434 48.8234 72.2434 49.0895C72.2434 49.3999 72.2212 49.7325 72.1991 50.065Z" fill="#141414"/>
<path id="Shape_00000181773455561649634920000005174948202851311785_" d="M67.1433 47.7593C67.099 47.1829 66.8551 46.6508 66.4339 46.2739C65.9683 45.8526 65.3475 45.6531 64.7267 45.7196C64.1059 45.7861 63.5295 46.0965 63.1304 46.5843C63.1304 46.3847 63.1304 46.2517 63.1304 46.0965C63.1304 45.9413 63.0639 45.8526 62.8865 45.8526C62.4653 45.8526 62.044 45.8526 61.6228 45.8526C61.4454 45.8526 61.3789 45.9191 61.3789 46.0965C61.3789 48.89 61.3789 51.6836 61.3789 54.4771C61.3789 54.6766 61.4676 54.7432 61.645 54.721C62.0662 54.721 62.4875 54.721 62.8865 54.721C63.1304 54.721 63.1748 54.6988 63.1748 54.4328V51.8831C63.1748 51.8166 63.1526 51.7501 63.1748 51.6836C63.6847 52.3487 64.5272 52.6591 65.3475 52.4817C66.3452 52.2822 67.0547 51.4397 67.099 50.442C67.2099 49.533 67.232 48.6461 67.1433 47.7593ZM65.3475 50.1094C65.281 50.5529 64.9041 50.9076 64.4385 50.9076C63.9507 50.9741 63.5073 50.708 63.3078 50.2646C63.1526 49.4886 63.1526 48.6905 63.3078 47.9367C63.5073 47.4711 63.9951 47.205 64.4828 47.2716C64.9928 47.2937 65.3918 47.715 65.3918 48.2249C65.414 48.5131 65.3918 48.8013 65.3918 49.0674C65.414 49.4221 65.3918 49.7547 65.3475 50.1094Z" fill="#141414"/>
<path id="Shape_00000148645664384407965660000000808903790797704635_" d="M80.6479 49.1773C80.6479 48.8004 80.6479 48.5122 80.6479 48.1796C80.6701 47.0489 79.9162 46.0512 78.8077 45.7852C78.2978 45.6521 77.7435 45.63 77.2336 45.6965C75.9698 45.763 74.9721 46.7829 74.9278 48.0466C74.8834 48.7339 74.8834 49.4434 74.9278 50.1307C74.95 51.2614 75.7925 52.2369 76.9232 52.3921C77.3888 52.4808 77.8543 52.503 78.3421 52.4586C79.4728 52.4364 80.4262 51.6161 80.6257 50.5297C80.6701 50.0641 80.6922 49.6207 80.6479 49.1773ZM78.8742 49.7981C78.8742 50.7293 78.2091 51.0397 77.4553 50.8845C77.034 50.7958 76.7236 50.4189 76.7458 49.9976C76.7015 49.399 76.7015 48.8226 76.7458 48.224C76.7458 47.7805 77.0562 47.4036 77.4996 47.315C77.81 47.2041 78.1647 47.2484 78.453 47.448C78.719 47.6475 78.8964 47.9579 78.8964 48.3126C78.8964 48.5787 78.8964 48.8669 78.8964 49.133L78.8742 49.7981Z" fill="#141414"/>
<path id="Path_00000124162405570144659370000006750720987839569814_" d="M84.0379 18.4494C85.0356 17.0304 86.8536 17.1413 87.4301 18.5824C87.5853 18.405 87.7183 18.2055 87.8957 18.0503C88.3391 17.6069 88.9377 17.3852 89.5585 17.4738C90.3566 17.5847 90.9553 18.2055 91.0439 19.0036C91.0883 19.2253 91.1105 19.4471 91.1105 19.6688C91.1105 21.0655 91.1105 22.4401 91.1105 23.8147C91.1105 24.1029 91.0661 24.1251 90.8001 24.1251H89.6028C89.3811 24.1251 89.3368 24.0808 89.3368 23.8369V20.1122C89.3368 19.9348 89.3146 19.7796 89.2703 19.6244C89.2259 19.4027 89.0486 19.2032 88.8269 19.1367C88.6051 19.0701 88.3613 19.0923 88.1617 19.2475C87.807 19.4914 87.6075 19.8683 87.6075 20.2895C87.6075 21.4646 87.6075 22.6618 87.6075 23.8369C87.6075 24.1251 87.6074 24.1473 87.2971 24.1473H86.122C85.8338 24.1473 85.8338 24.1473 85.8338 23.8591V20.0457C85.8338 19.9126 85.8116 19.7796 85.7894 19.6466C85.7229 19.4027 85.5455 19.2032 85.3017 19.1367C85.0578 19.0701 84.7917 19.1367 84.6144 19.2919C84.304 19.5579 84.1044 19.9348 84.1266 20.3561C84.1266 21.5089 84.1266 22.6618 84.1266 23.8369C84.1266 24.1251 84.1044 24.1695 83.794 24.1695C83.395 24.1695 82.9959 24.1695 82.5746 24.1695C82.3973 24.1695 82.3086 24.1251 82.3086 23.9256V17.8729C82.3086 17.6955 82.3751 17.629 82.5525 17.629C82.9737 17.629 83.395 17.629 83.8384 17.629C83.9936 17.629 84.0823 17.6955 84.0601 17.8729C84.0379 17.9838 84.0379 18.2055 84.0379 18.4494Z" fill="#141414"/>
<path id="Path_00000038403537232634671620000012413683617722421910_" d="M72.9089 19.6257V15.5019C72.9089 15.125 72.9089 15.125 73.2858 15.125H74.3722C74.6604 15.125 74.6826 15.1472 74.6826 15.4576V23.9047C74.6826 24.0599 74.6161 24.1264 74.4609 24.1264H73.0863C72.8867 24.1264 72.8867 23.9934 72.8867 23.8382V19.6257H72.9089Z" fill="#141414"/>
<path id="Path_00000101069856534803306460000017874741559850498488_" d="M56.5002 18.5381C56.8106 18.006 57.3427 17.6513 57.9635 17.5404C58.1187 17.5183 58.2961 17.4961 58.4513 17.4961C58.4956 17.4961 58.5621 17.4961 58.6065 17.5404C58.6508 17.5848 58.673 17.6291 58.6508 17.6956C58.6508 18.1169 58.6508 18.5381 58.6508 18.9594C58.6508 19.1146 58.5621 19.1811 58.4069 19.1811C58.03 19.1367 57.631 19.2254 57.2762 19.3806C56.8106 19.6023 56.5446 20.0679 56.5446 20.5779C56.5446 21.6642 56.5446 22.7284 56.5446 23.8148C56.5446 24.0809 56.5446 24.103 56.2342 24.103H55.0148C54.7709 24.103 54.7266 24.0587 54.7266 23.837C54.7266 21.8416 54.7266 19.824 54.7266 17.8287C54.7266 17.6291 54.7931 17.5626 54.9926 17.5626C55.3917 17.5626 55.7908 17.5626 56.1898 17.5626C56.3672 17.5626 56.4559 17.6291 56.4559 17.8065C56.4781 18.0282 56.5002 18.3164 56.5002 18.5381Z" fill="#141414"/>
<path id="Shape_00000134928373082110952160000017227830869646106265_" d="M71.8674 20.0026C71.8674 19.6922 71.823 19.404 71.7344 19.0936C71.557 18.2954 70.914 17.6747 70.0937 17.5195C69.2734 17.3199 68.4087 17.6303 67.8988 18.2954C67.8766 18.2289 67.8544 18.1402 67.8766 18.0737V15.4132C67.8766 15.1693 67.8323 15.125 67.5884 15.125H66.3025C66.1473 15.125 66.0586 15.1693 66.0586 15.3689V23.8825C66.0586 24.0821 66.1473 24.1264 66.3025 24.1264C66.7237 24.1264 67.1228 24.1264 67.544 24.1264C67.7214 24.1264 67.7879 24.0377 67.7879 23.8825V23.4613H67.8323C67.8323 23.4834 67.8544 23.5056 67.8766 23.5278C68.4974 24.2594 69.5173 24.5255 70.4041 24.1707C71.2909 23.8382 71.8674 22.9513 71.8452 21.998C71.8895 21.3107 71.8674 20.6677 71.8674 20.0026ZM70.0494 21.7319C70.0494 21.9758 69.9385 22.2197 69.7611 22.3971C69.5838 22.5744 69.3399 22.6631 69.0738 22.6631C68.8078 22.7075 68.5196 22.6409 68.2979 22.4636C68.0761 22.2862 67.9209 22.0423 67.8988 21.7763C67.7879 21.1333 67.7879 20.4904 67.8988 19.8474C68.0096 19.3818 68.4087 19.0271 68.8965 19.0271C69.2955 18.9827 69.6946 19.1823 69.8942 19.5592C70.005 19.7809 70.0494 20.0469 70.0494 20.2908C70.0494 20.4904 70.0494 20.6899 70.0494 20.9338C70.0494 21.1777 70.0937 21.4437 70.0494 21.7319Z" fill="#141414"/>
<path id="Shape_00000147913112654269971130000007199485612979234965_" d="M53.7971 17.6291C53.7084 16.9418 53.3093 16.321 52.7107 15.9663C52.2451 15.6781 51.7352 15.5229 51.2031 15.5451C50.2054 15.5451 49.252 15.5451 48.2765 15.5451C48.0104 15.5451 47.9883 15.5672 47.9883 15.8554V23.8592C47.9883 24.103 48.0326 24.1474 48.2765 24.1474C48.6977 24.1474 49.1412 24.1474 49.5624 24.1474C49.762 24.1474 49.8285 24.0809 49.8285 23.8813C49.8285 23.194 49.8285 22.4846 49.8285 21.7973C49.8285 21.6421 49.8728 21.5977 50.028 21.5977C50.5379 21.6199 51.07 21.5977 51.58 21.5534C52.6885 21.4869 53.5975 20.6887 53.8192 19.6023C53.9079 18.9372 53.9079 18.2721 53.7971 17.6291ZM51.979 19.1589C51.8904 19.6467 51.4691 19.9792 50.9814 19.9349C50.6266 19.9349 50.2719 19.9349 49.9393 19.9349C49.8063 19.9349 49.8063 19.8684 49.8063 19.7797C49.8063 19.3806 49.8063 18.9815 49.8063 18.5603C49.8063 18.1391 49.8063 17.7621 49.8063 17.3409C49.8063 17.2079 49.8063 17.1635 49.9615 17.1635C50.2941 17.1635 50.6266 17.1635 50.9592 17.1635C51.2252 17.1414 51.4913 17.2522 51.6908 17.4296C51.8904 17.607 52.0012 17.873 52.0012 18.1391C52.0456 18.4716 52.0456 18.8042 51.979 19.1589Z" fill="#141414"/>
<path id="Shape_00000088105701522828085850000016330830540484194995_" d="M65.0148 19.7134C64.9705 18.7822 64.3719 17.9619 63.485 17.6736C62.7091 17.3854 61.8666 17.3632 61.0684 17.6071C60.2037 17.8288 59.5386 18.5383 59.3834 19.4251C59.3169 19.8907 59.2947 20.3563 59.3169 20.8219V21.7531C59.2726 22.9503 60.1151 23.9923 61.3123 24.1697C61.8444 24.2806 62.3765 24.2806 62.9086 24.2141C64.0615 24.1032 64.9483 23.1942 65.037 22.0635C65.0813 21.2653 65.0813 20.4893 65.0148 19.7134ZM63.2412 21.7087C63.2412 21.9748 63.1525 22.2187 62.9529 22.396C62.7534 22.5734 62.5095 22.6621 62.2435 22.6621C61.5562 22.6621 61.1571 22.3739 61.1128 21.7309C61.0462 21.1323 61.0462 20.5115 61.1128 19.9129C61.1349 19.6468 61.2458 19.403 61.4675 19.2256C61.667 19.0482 61.9331 18.9817 62.1991 19.0261C62.4652 19.0039 62.7312 19.0926 62.9308 19.2921C63.1303 19.4695 63.2412 19.7134 63.2633 19.9794C63.2855 20.2898 63.2855 20.578 63.2633 20.8884C63.2633 21.1545 63.2633 21.4427 63.2412 21.7087Z" fill="#141414"/>
<path id="Shape_00000087411158985575014540000011780128143300846246_" d="M77.6066 21.3975C78.1608 21.3975 78.7151 21.3975 79.2694 21.3975C79.8236 21.3975 80.3779 21.3975 80.9544 21.3975C81.2426 21.3975 81.3313 21.331 81.3313 21.0871C81.3534 20.5994 81.3534 20.1116 81.3091 19.6238C81.2426 18.737 80.6661 17.961 79.8236 17.6285C79.225 17.4068 78.6042 17.3402 77.9835 17.4511C76.7419 17.5398 75.7885 18.5596 75.7442 19.779C75.6999 20.4442 75.6999 21.1093 75.7442 21.7744C75.722 22.8165 76.4093 23.7698 77.407 24.058C78.2939 24.3684 79.2915 24.3241 80.1562 23.9472C80.6661 23.7255 81.0652 23.3264 81.2869 22.8386C81.3534 22.6834 81.3313 22.5504 81.1761 22.4617C80.8657 22.3065 80.5553 22.1513 80.2449 21.974C80.1784 21.9296 80.1119 21.9296 80.0454 21.9518C79.9788 21.974 79.9345 22.0405 79.9123 22.107C79.6906 22.5726 79.2029 22.8608 78.6708 22.7943C78.3382 22.8386 78.0056 22.7278 77.7839 22.4839C77.5622 22.24 77.4292 21.9296 77.4735 21.5971C77.4292 21.464 77.4514 21.3975 77.6066 21.3975ZM77.4292 20.1116C77.3627 19.646 77.6065 19.2026 78.0056 19.0031C78.4712 18.7814 79.0033 18.87 79.3802 19.1804C79.6241 19.4465 79.735 19.8234 79.6684 20.1781C79.6684 20.289 79.5798 20.2446 79.5133 20.2446H77.5179C77.4735 20.2446 77.4292 20.2225 77.4292 20.1116Z" fill="#141414"/>
<path id="Path_00000036236176780866707350000016863242876710033536_" d="M63.5965 32.5724C64.5942 31.1535 66.4344 31.2643 66.9887 32.7054C67.1882 32.4394 67.4099 32.1733 67.676 31.9738C68.1194 31.6191 68.6958 31.486 69.2501 31.6191C69.9817 31.7743 70.5138 32.3729 70.6025 33.1045C70.6469 33.3927 70.669 33.681 70.669 33.9692C70.669 35.2773 70.669 36.5632 70.669 37.8713C70.669 38.1817 70.6247 38.226 70.3143 38.226C69.9374 38.226 69.5383 38.226 69.1614 38.226C68.9175 38.226 68.8732 38.1817 68.8732 37.9156V34.1909C68.8732 34.0357 68.851 33.8805 68.8289 33.7253C68.7845 33.5036 68.6293 33.304 68.4298 33.2154C68.2081 33.1267 67.9642 33.1489 67.7868 33.2819C67.4099 33.5036 67.166 33.9027 67.166 34.3461C67.166 35.5433 67.166 36.7405 67.166 37.9156C67.166 38.1595 67.1217 38.2038 66.8778 38.2038C66.4566 38.2038 66.0353 38.2038 65.6362 38.2038C65.4367 38.2038 65.3702 38.1151 65.3924 37.9378C65.3924 36.6962 65.3924 35.4546 65.3924 34.1909C65.3924 34.0357 65.3924 33.8805 65.348 33.7253C65.3037 33.4814 65.1041 33.2597 64.8603 33.1932C64.6164 33.1045 64.3503 33.171 64.1508 33.3484C63.8404 33.6144 63.6409 34.0135 63.663 34.4126C63.663 35.5655 63.663 36.7184 63.663 37.8934C63.663 38.1817 63.663 38.226 63.3526 38.226H62.1332C61.9559 38.226 61.8672 38.1595 61.8672 37.9599C61.8672 35.9646 61.8672 33.9692 61.8672 31.9516C61.8672 31.7743 61.9337 31.6856 62.1111 31.6856C62.5323 31.6856 62.9536 31.6856 63.3748 31.6856C63.5522 31.6856 63.6187 31.7521 63.6187 31.9295C63.5965 32.1068 63.5965 32.3285 63.5965 32.5724Z" fill="#141414"/>
<path id="Path_00000067946858035880475740000016885863240698729108_" d="M47.7235 33.9241C47.7014 33.3255 47.7235 32.7268 47.7679 32.1282C47.9009 30.8645 48.8543 29.8225 50.0958 29.6007C50.8718 29.4234 51.67 29.4455 52.4238 29.6894C53.3106 29.9998 53.9757 30.7093 54.2418 31.6183C54.3083 31.8178 54.2418 31.9287 54.0423 31.973C53.6432 32.1061 53.2441 32.2169 52.845 32.3278C52.6233 32.3943 52.5568 32.2391 52.5125 32.0839C52.4016 31.6626 52.069 31.3301 51.6478 31.2414C51.1157 31.0862 50.5393 31.1749 50.0737 31.4853C49.7411 31.7513 49.5637 32.1726 49.5859 32.5938C49.5416 33.5028 49.5416 34.4118 49.5859 35.3208C49.5859 35.6977 49.7411 36.0525 50.0072 36.3185C50.2732 36.5846 50.6501 36.6954 51.027 36.6733C51.4926 36.7398 51.9804 36.5846 52.3351 36.252C52.6011 35.8973 52.712 35.4539 52.6677 35.0104C52.6677 34.8996 52.579 34.9439 52.5125 34.9439H51.4704C51.2266 34.9439 51.2044 34.9439 51.2044 34.6557C51.2044 34.301 51.2044 33.9462 51.2044 33.5915C51.2044 33.4141 51.2709 33.3476 51.4483 33.3476H54.1975C54.3305 33.3476 54.4413 33.3476 54.4413 33.5472C54.4413 34.2566 54.4857 34.9661 54.4413 35.6756C54.3748 36.9837 53.3993 38.07 52.1134 38.2917C51.1157 38.5578 50.0293 38.4248 49.1425 37.9148C48.2556 37.3827 47.7457 36.4072 47.7679 35.3874C47.7014 34.8774 47.7235 34.3897 47.7235 33.9241Z" fill="#141414"/>
<path id="Path_00000010309842797795469130000002986200083127844277_" d="M86.3882 32.5937C86.6543 32.1947 87.0534 31.9064 87.4968 31.7291C88.1619 31.4408 88.9157 31.5295 89.4922 31.9729C89.9134 32.3277 90.1795 32.8598 90.2016 33.4141C90.246 33.7466 90.246 34.0792 90.246 34.4117V37.9148C90.246 38.1808 90.2016 38.2251 89.9356 38.2251H88.7605C88.4723 38.2251 88.4501 38.2251 88.4501 37.9148C88.4501 36.6732 88.4501 35.4316 88.4501 34.19C88.4501 34.057 88.4501 33.924 88.4058 33.8131C88.3171 33.5027 88.0954 33.281 87.785 33.1923C87.4746 33.1037 87.1642 33.1923 86.9425 33.4141C86.6321 33.6801 86.4326 34.057 86.4547 34.4783C86.4547 35.609 86.4547 36.7619 86.4547 37.8926C86.4547 38.1808 86.4326 38.2251 86.1222 38.2251C85.7231 38.2251 85.324 38.2251 84.9249 38.2251C84.6811 38.2251 84.6367 38.1808 84.6367 37.9369V31.9729C84.6367 31.7291 84.6589 31.6847 84.9249 31.6847C85.324 31.6847 85.7231 31.6847 86.1222 31.6847C86.3439 31.6847 86.3882 31.7291 86.3882 31.9508V32.5937Z" fill="#141414"/>
<path id="Path_00000016060129209024652820000007128040108525961635_" d="M80.4912 33.7259V37.9384C80.4912 38.2044 80.4468 38.2488 80.2029 38.2488C79.7817 38.2488 79.3826 38.2488 78.9614 38.2488C78.7397 38.2488 78.6953 38.2044 78.6953 37.9827V29.5356C78.6953 29.2917 78.7175 29.2695 78.9614 29.2695H80.1586C80.4912 29.2695 80.4912 29.2695 80.4912 29.6021V33.7259Z" fill="#141414"/>
<path id="Path_00000109012221045875646200000017274037011297277069_" d="M81.6862 34.9662V32.0174C81.6862 31.7292 81.6862 31.707 81.9745 31.707H83.1939C83.4377 31.707 83.4821 31.707 83.4821 31.9731C83.4821 33.9685 83.4821 35.9638 83.4821 37.9592C83.4821 38.1588 83.4156 38.2253 83.216 38.2253H81.9301C81.7306 38.2253 81.6641 38.1588 81.6641 37.9371C81.6862 36.9837 81.6862 35.9638 81.6862 34.9662Z" fill="#141414"/>
<path id="Path_00000078762773509847519480000017210188841269428651_" d="M82.5743 30.8431C82.3748 30.8431 82.1531 30.8431 81.9536 30.8431C81.887 30.8431 81.7984 30.8209 81.754 30.7766C81.7097 30.7322 81.6875 30.6435 81.6875 30.577V29.4907C81.6875 29.4241 81.7097 29.3576 81.754 29.2911C81.7984 29.2468 81.8649 29.2246 81.9314 29.2246C82.3526 29.2246 82.796 29.2246 83.2173 29.2246C83.2838 29.2246 83.3503 29.2468 83.3947 29.2911C83.439 29.3355 83.4612 29.402 83.4612 29.4685V30.577C83.4612 30.7544 83.3725 30.8209 83.1951 30.8209L82.5743 30.8431Z" fill="#141414"/>
<path id="Shape_00000124875846888519156920000010714932677292094620_" d="M96.9654 38.3815C96.8989 37.5833 96.2559 36.9403 95.4356 36.896C94.8148 36.8295 94.1719 36.8073 93.5289 36.8295C93.418 36.8295 93.3072 36.8073 93.1963 36.7851C93.0855 36.763 92.9968 36.6521 92.9968 36.5191C92.9968 36.3861 93.0855 36.2974 93.1963 36.253C93.3294 36.2087 93.4624 36.1865 93.5954 36.2087C93.9945 36.2309 94.3714 36.1865 94.7483 36.0979C95.2804 36.0092 95.7682 35.6766 96.0342 35.1888C96.3003 34.7011 96.3446 34.1246 96.1451 33.6147C96.0564 33.4373 95.9455 33.2821 95.8347 33.1269C96.1229 33.1269 96.3668 33.1269 96.6328 33.1269C96.8767 33.1269 96.9211 33.0604 96.8989 32.8609C96.8989 32.5727 96.8989 32.2844 96.8989 32.0184C96.8989 31.7302 96.8545 31.7523 96.6328 31.7523H93.8393C93.5511 31.7523 93.2407 31.7745 92.9525 31.841C92.1321 31.9519 91.4448 32.5283 91.2453 33.3265C90.9571 34.169 91.201 35.1002 91.8883 35.6544C91.9548 35.7209 92.0435 35.7653 92.1321 35.8318L92.0435 35.8983C91.7552 36.0535 91.5557 36.3417 91.5113 36.6743C91.467 37.0069 91.5779 37.3394 91.8217 37.5611C91.9326 37.6942 91.9326 37.7163 91.7774 37.805C91.2453 38.0267 90.9127 38.5588 90.9571 39.1353C90.9792 39.7782 91.4005 40.3325 92.0213 40.5099C93.1298 40.8646 94.3049 40.8646 95.4134 40.5542C96.2338 40.399 96.8324 39.7339 96.9432 38.9136C96.9432 38.9136 96.9432 38.9136 96.9654 38.9136V38.5145C96.9876 38.448 96.9654 38.3815 96.9654 38.3815ZM93.7506 33.0161C94.0167 32.9939 94.2827 33.0826 94.4823 33.26C94.6818 33.4373 94.7705 33.7034 94.7483 33.9694C94.7705 34.2355 94.6818 34.5015 94.4823 34.7011C94.2827 34.9006 94.0167 34.9893 93.7506 34.9671C93.4846 34.9893 93.1963 34.9006 93.019 34.7011C92.8194 34.5015 92.7086 34.2355 92.7307 33.9694C92.7086 33.7034 92.8194 33.4373 93.019 33.2378C93.2185 33.0604 93.4846 32.9717 93.7506 33.0161ZM94.9257 39.3126C94.5931 39.4678 94.2384 39.5343 93.8615 39.5122C93.5732 39.5122 93.285 39.4678 92.9968 39.3791C92.7086 39.2905 92.5312 39.0244 92.5534 38.714C92.5756 38.4258 92.8194 38.1819 93.1298 38.1819C93.3959 38.1597 93.6619 38.1597 93.928 38.1819C94.194 38.1597 94.4601 38.1597 94.7261 38.1819C94.97 38.2041 95.1696 38.3815 95.2139 38.6253C95.3247 38.9136 95.1917 39.2018 94.9257 39.3126Z" fill="#141414"/>
<path id="Shape_00000037655123324665480390000002094716972297985680_" d="M77.6525 34.2574C77.6525 33.9692 77.6304 33.6588 77.5638 33.3706C77.4087 32.5059 76.7435 31.8408 75.901 31.6412C75.0585 31.4417 74.1717 31.7521 73.6396 32.4394V29.4907C73.6396 29.2468 73.5953 29.2246 73.3735 29.2246H72.0876C71.9103 29.2246 71.8438 29.2911 71.8438 29.4685C71.8438 32.3064 71.8438 35.1442 71.8438 37.96C71.8438 38.1373 71.9103 38.2038 72.0876 38.2038H73.3735C73.4401 38.2038 73.5066 38.2038 73.5509 38.1595C73.5952 38.1152 73.6174 38.0486 73.6174 38.0043C73.5953 37.8491 73.5953 37.6717 73.6174 37.5165C73.7283 37.6717 73.8613 37.8048 74.0165 37.9156C74.6595 38.4034 75.5463 38.5142 76.2779 38.1817C77.0317 37.8491 77.5417 37.1396 77.6082 36.3193C77.6969 35.6542 77.6525 34.9669 77.6525 34.2574ZM75.8567 35.0112C75.8567 35.2994 75.8567 35.5877 75.8567 35.8537C75.8567 36.3636 75.4576 36.7627 74.9477 36.8071C74.4156 36.8958 73.9056 36.5854 73.7505 36.0754C73.7061 35.9202 73.6839 35.7429 73.6839 35.5877C73.6618 35.0999 73.6839 34.59 73.7283 34.1022C73.7726 33.7696 73.9722 33.4814 74.2604 33.3041C74.5486 33.1267 74.9033 33.1045 75.2137 33.2154C75.5906 33.3484 75.8567 33.7031 75.8789 34.1022C75.8789 34.3904 75.8789 34.7008 75.8567 35.0112Z" fill="#141414"/>
<path id="Shape_00000021091833953990633100000003408299862822136207_" d="M60.6925 35.7433C60.6925 35.0338 60.6925 34.3243 60.6925 33.6148C60.7146 32.7502 60.1382 31.9742 59.2957 31.7303C58.4089 31.4421 57.4333 31.4864 56.5908 31.8633C56.0366 32.085 55.6375 32.5728 55.5266 33.1493C55.5266 33.2823 55.5266 33.3488 55.6597 33.3931L56.9234 33.7257C56.9677 33.7479 57.0343 33.7479 57.0786 33.7257C57.1229 33.7035 57.1673 33.6592 57.1673 33.6148C57.1673 33.5705 57.2116 33.504 57.2338 33.4596C57.389 33.2158 57.655 33.0606 57.9433 33.0384C58.2315 32.9941 58.5197 33.0827 58.7414 33.2601C58.8079 33.3266 58.8523 33.4153 58.8966 33.5262C58.941 33.7479 58.9631 33.9696 58.9631 34.1913C58.9631 34.3465 58.9188 34.3908 58.7636 34.3687C58.0985 34.3243 57.4333 34.3908 56.7682 34.546C56.3248 34.6347 55.9479 34.8342 55.6375 35.1668C55.1497 35.7876 55.061 36.6523 55.3936 37.3839C55.837 38.2264 56.7904 38.6255 57.6994 38.3816C58.2315 38.2707 58.6971 37.9603 59.0075 37.5391V38.0269C59.0075 38.2486 59.0518 38.2929 59.2735 38.2929C59.6283 38.2929 59.9608 38.2929 60.3156 38.2929C60.6481 38.2929 60.6925 38.2929 60.6925 37.9382V35.7433ZM58.9631 35.8984C58.8744 36.4084 58.4754 36.8296 57.9654 36.9183C57.8324 36.9405 57.6994 36.9405 57.5885 36.9183C57.2338 36.9183 56.9456 36.6523 56.9234 36.2975C56.8791 35.9428 57.1229 35.6102 57.4777 35.5437C57.8546 35.455 58.2315 35.4107 58.6084 35.4107C58.9853 35.4107 58.9853 35.4107 58.9631 35.8984Z" fill="#141414"/>
</g>
</g>
</g>
</g>
</g>
</g>
</g>
<defs>
<clipPath id="clip0_1777_162279">
<rect width="121" height="73" fill="white"/>
</clipPath>
</defs>
</svg>
