<svg xmlns="http://www.w3.org/2000/svg" width="220" height="64" fill="none" viewBox="0 0 220 64"><path fill="#fff" d="M3.981 60.046A3.98 3.98 0 0 1 0 56.065v-33.59a3.98 3.98 0 0 1 3.704-3.972l46.401-3.244a3.98 3.98 0 0 1 3.493-2.69l62.698-4.385a3.98 3.98 0 0 1 3.287-2.196L205.081.01a3.983 3.983 0 0 1 4.259 3.972v42.413a3.98 3.98 0 0 1-3.704 3.972l-85.498 5.979q-.139.01-.278.01a3.98 3.98 0 0 1-3.281-1.727l-62.425 4.365q-.14.01-.278.01a3.98 3.98 0 0 1-3.555-2.188L4.26 60.036q-.138.01-.278.01"/><path fill="navy" d="m212.027 5.023-.005-.004-.023-.024-.005-.004-.023-.024-.005-.004-.023-.024-.005-.004-.023-.024-.005-.004-.023-.024-.005-.004-.023-.024-.005-.004-.023-.024-.005-.004-.023-.024-.005-.004-.023-.024-.005-.004-.023-.024-.005-.004-.023-.024-.005-.005-.023-.023-.005-.005-.023-.023-.005-.005-.023-.023-.005-.005-.023-.023-.005-.005-.023-.023-.005-.005-.023-.023-.005-.005-.023-.023-.006-.005-.022-.023-.006-.005-.023-.023-.005-.005-.023-.024-.005-.004-.023-.024-.005-.004-.023-.024-.005-.004-.023-.024-.005-.004-.023-.024-.005-.004-.023-.024-.005-.004-.023-.024-.005-.004-.023-.024-.005-.004-.023-.024-.005-.004-.023-.024-.005-.004-.023-.024-.005-.004-.023-.024-.005-.004-.023-.024-.005-.004-.023-.024-.005-.004-.023-.024-.005-.004-.023-.024-.005-.005-.023-.023-.005-.005-.023-.023-.005-.005-.023-.023-.005-.005-.023-.023-.006-.005-.022-.023-.005-.005-.023-.023-.006-.005-.022-.023-.006-.005-.022-.023-.006-.005q-.01-.012-.023-.023l-.005-.005-.023-.024-.005-.004-.023-.024-.005-.004-.023-.024-.005-.004-.023-.024-.005-.004-.023-.024-.005-.004-.023-.024-.005-.004-.023-.024-.005-.004-.023-.024-.005-.004-.023-.024-.005-.004-.023-.024-.005-.004-.023-.024-.005-.004-.023-.024-.005-.004-.023-.024-.005-.004-.023-.024-.005-.004-.023-.024-.005-.004-.023-.024-.005-.005-.023-.023-.005-.005-.023-.023-.005-.005-.023-.023-.005-.005-.023-.023-.005-.005-.023-.023-.006-.005-.022-.023-.005-.005-.023-.023-.006-.005-.022-.023-.006-.005-.023-.023-.005-.005-.023-.024-.005-.004-.023-.024-.005-.004-.023-.024-.005-.004-.023-.024-.005-.004-.023-.024-.005-.004-.023-.024-.005-.004-.023-.024-.005-.004-.023-.024-.005-.004-.023-.024-.005-.004-.023-.024-.005-.004-.023-.024-.005-.004-.023-.024-.005-.004-.023-.024-.005-.004-.023-.024-.005-.004-.023-.024-.005-.004-.023-.024-.005-.005-.023-.023-.005-.005-.023-.023-.005-.004-.023-.024-.005-.005-.023-.023-.005-.005-.023-.023-.005-.005-.023-.023-.006-.005-.022-.023-.006-.005-.022-.023-.006-.005-.022-.023-.006-.005-.023-.024-.005-.004-.023-.024-.005-.004-.023-.024-.005-.004-.023-.024-.005-.004-.023-.024-.005-.004-.023-.024-.005-.004-.023-.024-.005-.004-.023-.024-.005-.004-.023-.024-.005-.004-.023-.024-.005-.004-.023-.024-.005-.004-.023-.024-.005-.004-.023-.024-.005-.004-.023-.024-.005-.004-.023-.024-.005-.004-.023-.024-.005-.005-.023-.023-.005-.005-.023-.023-.005-.005-.023-.023-.005-.005-.023-.023-.005-.005-.023-.023-.005-.005-.023-.023-.006-.005-.022-.023-.006-.005-.022-.023-.006-.005-.023-.024-.005-.004-.023-.024-.005-.004-.023-.024-.005-.004-.023-.024-.005-.004-.023-.024-.005-.004-.023-.024-.005-.004-.023-.024-.005-.004-.023-.024-.005-.004-.023-.024-.005-.004-.023-.024-.005-.004-.023-.024-.005-.004-.023-.024-.005-.004-.023-.024-.005-.004-.023-.024-.005-.004-.023-.024-.005-.004-.023-.024-.005-.004-.023-.024-.005-.005-.023-.023-.005-.004-.023-.024-.005-.005-.023-.023-.005-.005-.023-.023-.006-.005a3.98 3.98 0 0 1 1.244 2.889v42.413a3.98 3.98 0 0 1-3.704 3.972l-85.498 5.979q-.14.01-.278.01a3.98 3.98 0 0 1-3.282-1.727l-62.425 4.365a3.98 3.98 0 0 1-3.832-2.178l-46.062 3.22q-.139.01-.278.01a3.98 3.98 0 0 1-2.71-1.065l.023.024.005.004.023.024.005.004.023.024.005.004.023.024.005.004.023.024.005.004.023.024.005.004.023.024.005.004.023.024.006.004q.01.013.022.024l.006.004.022.024.005.004.023.024.006.004.022.024.006.005.023.023.005.005.023.023.005.005.023.023.005.005.023.023.005.005.023.023.005.005.023.023.005.005.023.023.005.005.023.023.005.005.023.023.005.005.023.023.005.005.023.024.005.004.023.024.005.004.023.024.005.004.023.024.005.004.023.024.005.004.023.024.005.004.023.024.005.004.023.024.005.004.023.024.005.004.023.024.005.004.023.024.005.004.023.024.006.004.022.024.006.004.022.024.006.005.022.023.006.005.023.023.005.005.023.023.005.005.023.023.005.005.023.023.005.005.023.023.005.005.023.023.005.005.023.023.005.005.023.023.005.005.023.023.005.005.023.023.005.005.023.024.005.004.023.024.005.004.023.024.005.004.023.024.005.004.023.024.005.004.023.024.005.004.023.024.005.004.023.024.005.004.023.024.005.004.023.024.005.004.023.024.006.004q.01.013.022.024l.005.004.023.024.006.004.022.024.006.005.022.023.006.004q.01.013.023.024l.005.005.023.023.005.005.023.023.005.005.023.023.005.005.023.023.005.005.023.023.005.005.023.023.005.005.023.024.005.004.023.023.005.005.023.023.005.005.023.024.005.004.023.024.005.004.023.024.005.004.023.024.005.004.023.024.005.004.023.024.005.004.023.024.005.004.023.024.005.004.023.024.005.004.023.024.005.004.023.024.005.004.023.024.006.004.022.024.006.004.022.024.006.005.022.023.006.005.023.023.005.005q.01.012.023.023l.005.005.023.023.005.005.023.023.005.005.023.023.005.005.023.023.005.005.023.023.005.005.023.024.005.004.023.023.005.005.023.023.005.005.023.024.005.004.023.024.005.004.023.024.005.004.023.024.005.004.023.024.005.004.023.024.005.004.023.024.005.004.023.024.005.004.023.024.005.004.023.024.005.004.023.024.005.004.023.024.005.004.023.024.006.004.022.024.006.005.022.023.006.005.023.023.005.005.023.023.005.005.023.023.005.005.023.023.005.005.023.023.005.005.023.023.005.005.023.023.005.005.023.023.005.005.023.024.005.004.023.023.005.005.023.024.005.004.023.024.005.004.023.024.005.004.023.024.005.004.023.024.005.004.023.024.005.004.023.024.005.004.023.024.005.004.023.024.005.004.023.024.005.004.023.024.005.004.023.024.005.004.023.024.006.005.022.023.006.004.022.024.006.004q.01.013.023.024l.005.005.023.023.005.005.023.023.005.005.023.023a3.98 3.98 0 0 0 2.993 1.06l45.801-3.202.006.006.003.003.025.025.003.003.025.025.004.003.024.025.004.003.024.025.004.003.024.025.004.003.024.025.004.003.025.025.003.003.025.025.003.003.025.025.003.003.025.025.003.003.025.025.003.003.025.025.003.003.025.025.003.003.025.026.003.002.025.026.003.002.025.026.003.002.025.026.003.002.025.026.003.002.025.026.003.003.025.025.003.002.025.026.003.002.025.026.003.002.025.026.003.002.025.026.003.003.025.025.003.003.025.025.003.003.025.025.004.003.024.025.004.003.024.025.004.003.024.025.004.003.024.025.004.003.024.025.004.003.025.025.003.003.025.025.003.003.025.025.003.003.025.025.003.003.025.025.003.003.025.025.003.003.025.026a3.98 3.98 0 0 0 2.993 1.06l62.34-4.36.006.007.006.005.022.023.006.005.022.023.006.005.022.023.006.005.022.023.006.005.022.023.006.005.023.023.005.005.023.023.005.005.023.023.006.005.022.023.006.005.022.023.006.005.022.023.006.005.022.023.006.005.022.023.006.005.022.023.006.005.022.023.006.005.022.023.006.005.022.023.006.005.022.023.006.005.022.023.006.005.022.024.006.005.022.023.006.005.022.023.006.005.022.023a3.98 3.98 0 0 0 2.993 1.06l85.498-5.979a3.98 3.98 0 0 0 3.704-3.972V7.935a3.98 3.98 0 0 0-1.266-2.912"/><path fill="#00d6da" d="M53.877 52.576 3.983 56.065v-33.59l49.894-3.488z"/><path fill="navy" d="M11.5 44.171c.33 2.454 1.172 3.485 2.565 3.38 1.245-.093 2.015-.953 2.015-2.339 0-1.421-.916-2.555-2.712-3.915l-2.308-1.759c-2.748-2.09-3.774-4.419-3.774-7.08.037-4.122 2.858-7.088 6.852-7.367 4.03-.282 6.302 2.114 6.778 6.599l-4.69.753c-.22-1.843-.806-2.965-2.088-2.869-1.136.085-1.796 1.046-1.796 2.359 0 1.53.916 2.373 2.602 3.668l2.308 1.759c2.822 2.121 3.957 4.514 3.957 7.285 0 4.228-2.82 7.101-7.108 7.387-4.214.28-6.778-2.261-7.255-7.11zm16.237-4.949V46.4l7.169-.501v4.24l-12.115.848.036-2.632V27.613l-.037-2.69 11.97-.837v4.224l-7.023.491v6.083l5.813-.406v4.338zm18.307-11.701V46.7l.037 2.66-4.947.345.037-2.664V27.862l-4.934.345v-4.224l14.777-1.033v4.224z"/><path fill="#ef00c2" d="m205.359 46.395-85.498 5.979V9.96l85.498-5.978z"/><path fill="navy" d="m135.338 13.213-10.683.747v33.743l18.675-1.306v-9.985l-7.992.559zm21.315-1.49-10.714.749v33.743l10.714-.75zm2.673 33.556 10.715-.75-.063-12.571 6.458-.452v-8.801l-6.458.452v-3.055l8.4-.587v-9.312l-19.052 1.333zm32.143-11.515v-3.309l6.959-.486v-8.802l-6.959.487v-3.055l8.922-.624V8.664l-19.573 1.369v33.743l19.747-1.38v-9.268zM53.876 16.54l65.985-4.614v38.482l-65.985 4.614z"/><path fill="#fff" d="M60.23 46.878V23.835l-.037-2.677 12.808-.895v5.526l-6.05.424v5.891l5.075-.355v5.566l-5.075.355v8.694l.037 2.68-6.795.475zm22.764 1.494c-2.19.002-3.823-.48-5.01-1.474-1.57-1.314-2.624-3.446-2.624-9.586V31.32c0-6.184 1.044-8.477 2.624-10.02 1.437-1.359 3.464-2.114 6.218-2.305.394-.027.798-.043 1.162-.044 2.178-.002 3.825.481 5.058 1.476 1.907 1.596 2.662 4.294 2.662 9.62v5.992c0 5.306-.739 8.104-2.662 9.981-1.41 1.377-3.38 2.109-6.22 2.307-.412.028-.832.044-1.208.045m1.303-23.612c-.061 0-.12.008-.186.012-1.99.138-1.989 2.214-1.989 4.62v8.746c0 2.376 0 4.563 1.989 4.424l.186-.013c2.026-.142 2.025-2.235 2.025-4.663V29.14c0-2.255 0-4.524-2.025-4.38m11.598 19.624V21.343l-.037-2.678 8.208-.574 2.434-.074a8 8 0 0 1 .568-.02c4.172-.005 7.439 3.271 7.439 7.458v.465c0 3.256-1.458 5.948-4 7.386l-.025.015-.087.075-.164.137 4.896 12.146-7.012.49-3.993-10.571-1.506.105v8.169l.037 2.679-6.794.475zm9.045-20.865c-.067 0-.136.012-.204.017l-2.377.166v6.926l2.419-.17c2.924-.305 2.923-3.117 2.923-4.172 0-1.553-1.212-2.769-2.761-2.767"/><path fill="navy" d="M216.305 59.687a1.7 1.7 0 0 1 .596.103q.257.096.447.274c.26.246.397.59.397.995 0 .404-.137.748-.397.994q-.19.178-.447.274a1.7 1.7 0 0 1-.596.103q-.323 0-.596-.103a1.3 1.3 0 0 1-.447-.274c-.261-.246-.398-.59-.398-.994 0-.405.137-.75.398-.995q.188-.178.447-.274a1.7 1.7 0 0 1 .596-.103m0-.522c-1.12 0-1.963.754-1.963 1.894s.843 1.893 1.963 1.893c1.119 0 1.962-.754 1.962-1.893s-.843-1.894-1.962-1.894"/><path fill="navy" d="m216.594 61.993-.231-.672h-.298v.672h-.528V60.12h.918c.382 0 .638.24.638.602a.56.56 0 0 1-.238.468l.293.803zm-.529-1.441v.38h.277c.129 0 .202-.069.202-.192 0-.112-.073-.188-.202-.188z"/></svg>