<svg width="487" height="128" viewBox="0 0 487 128" fill="none" xmlns="http://www.w3.org/2000/svg">
<g clip-path="url(#clip0_4350_16865)">
<path d="M471.731 48.963C470.475 46.662 468.036 45.3709 465.549 45.5434L458.066 46.0635L462.336 18.8721C462.64 16.931 462.033 14.9416 460.688 13.4775C459.342 12.0136 457.411 11.238 455.447 11.3745L437.923 12.5926C436.803 12.6704 435.743 13.1025 434.896 13.8266L432.821 15.6L431.246 14.4012C430.203 13.6076 428.912 13.2189 427.618 13.3089L407.087 14.736C404.151 14.9401 401.768 17.1242 401.315 20.0285L398.213 39.8781L391.444 20.5337C390.465 17.7344 387.715 15.9288 384.778 16.1651L371.733 17.205C369.471 17.3855 367.495 18.7534 366.541 20.7998L360.889 32.9236C360.315 28.6653 358.291 25.9162 356.55 24.2896C351.381 19.4604 343.569 19.3381 337.34 19.7712L318.313 21.0937C315.419 21.2949 313.066 23.422 312.565 26.2645C308.456 23.3731 302.814 22.1546 295.75 22.646L239.047 26.5373C236.111 26.7414 233.729 28.9256 233.275 31.8298L232.796 34.8913C232.782 34.8776 232.769 34.8631 232.754 34.8495C227.582 30.0169 219.865 27.9204 209.815 28.6193L209.787 28.6212L209.747 28.6016L173.644 31.1336C170.714 31.3372 168.336 33.5117 167.874 36.4075L167.719 37.3806L156.157 4.38614C155.18 1.59993 152.447 -0.200673 149.524 0.0179149C146.601 0.235758 144.236 2.41568 143.784 5.30822L139.402 33.3544L8.13612 42.975C5.21963 43.1937 2.8583 45.3657 2.40068 48.2505L0.0822865 62.867C-0.143442 64.2901 0.0706351 65.7701 0.766576 67.0489C2.02613 69.3634 4.4822 70.6609 6.98017 70.4747L12.4203 69.9032L8.46848 95.361C8.16729 97.3007 8.77703 99.2873 10.1219 100.749C11.3388 102.071 13.0352 102.83 14.7997 102.862C14.9853 102.865 15.1719 102.861 15.3586 102.848C15.3586 102.848 112.484 96.6869 113.398 96.6233C120.75 96.1123 126.768 94.0372 131.552 90.3471C131.837 90.9874 132.226 91.5868 132.713 92.1166C134.058 93.5792 135.989 94.3542 137.952 94.2179L152.689 93.1935C155.62 92.9898 158 90.8124 158.459 87.9141L158.795 85.7964L170.646 117.373C171.596 119.902 173.997 121.576 176.636 121.623C176.856 121.627 177.078 121.62 177.301 121.601C180.194 121.352 182.523 119.182 182.97 116.316L186.956 90.8116L203.736 89.6453C212.383 89.0442 219.908 86.4627 225.745 82.1298C225.95 83.3652 226.51 84.5364 227.383 85.4858C228.6 86.8095 230.297 87.57 232.063 87.6016C232.249 87.6049 232.435 87.6002 232.622 87.5872L365.668 78.2737C368.061 78.1074 370.136 76.6143 371.043 74.4061L372.419 71.0566L378.658 70.5639L378.997 71.8971C379.772 74.9512 382.635 77.0334 385.761 76.8181L464.659 71.3376C467.6 71.1332 469.984 68.9425 470.433 66.0328L472.424 53.125C472.643 51.7073 472.426 50.235 471.731 48.963Z" fill="white"/>
<path d="M460.678 13.4768C462.023 14.9408 462.631 16.9303 462.326 18.8714L458.057 46.0628L465.515 45.5443L468.702 25.2473C469.006 23.3063 468.399 21.3167 467.054 19.8527C466.966 19.7572 466.875 19.665 466.783 19.5753C466.768 19.5604 466.753 19.545 466.738 19.5303C466.723 19.5153 466.708 19.4998 466.693 19.485C466.677 19.4701 466.663 19.4547 466.647 19.4399C466.632 19.4249 466.617 19.4095 466.602 19.3947C466.587 19.3797 466.572 19.3643 466.557 19.3496C466.542 19.3345 466.527 19.319 466.512 19.3042C466.496 19.2891 466.482 19.2736 466.466 19.2588C466.451 19.2439 466.436 19.2285 466.421 19.2137C466.406 19.1988 466.391 19.1834 466.376 19.1686C466.361 19.1535 466.346 19.1381 466.331 19.1233C466.316 19.1083 466.301 19.0929 466.286 19.0781C466.27 19.0632 466.256 19.0477 466.24 19.033C466.225 19.018 466.21 19.0025 466.195 18.9876C466.18 18.9727 466.165 18.9571 466.15 18.9423C466.135 18.9273 466.12 18.912 466.105 18.8973C466.09 18.8822 466.075 18.8668 466.059 18.852C466.044 18.837 466.03 18.8215 466.014 18.8067C465.999 18.7918 465.984 18.7764 465.969 18.7616C465.954 18.7466 465.939 18.7313 465.924 18.7166C465.909 18.7014 465.894 18.686 465.879 18.6711C465.863 18.6561 465.849 18.6406 465.833 18.6257C465.818 18.6109 465.803 18.5954 465.788 18.5807C465.773 18.5658 465.758 18.5503 465.743 18.5355C465.728 18.5205 465.713 18.5051 465.698 18.4903C465.683 18.4752 465.668 18.4598 465.652 18.445C465.637 18.4301 465.623 18.4147 465.607 18.4C465.592 18.385 465.577 18.3695 465.562 18.3546C465.547 18.3396 465.532 18.3241 465.517 18.3092C465.502 18.2943 465.487 18.2789 465.472 18.2642C465.456 18.2492 465.442 18.2338 465.426 18.219C465.411 18.2039 465.396 18.1885 465.381 18.1737C465.366 18.1588 465.351 18.1433 465.336 18.1285C465.321 18.1136 465.306 18.0982 465.291 18.0834C465.276 18.0684 465.261 18.0529 465.245 18.038C465.23 18.023 465.215 18.0075 465.2 17.9926C465.185 17.9777 465.17 17.9624 465.155 17.9476C465.14 17.9326 465.125 17.9172 465.11 17.9024C465.095 17.8875 465.08 17.872 465.065 17.8572C465.049 17.8422 465.035 17.8268 465.019 17.812C465.004 17.797 464.99 17.7817 464.974 17.7669C464.959 17.7519 464.944 17.7364 464.929 17.7216C464.914 17.7064 464.899 17.691 464.884 17.6761C464.868 17.6613 464.854 17.6458 464.839 17.631C464.823 17.6161 464.809 17.6007 464.793 17.5859C464.778 17.5709 464.763 17.5555 464.748 17.5407C464.733 17.5257 464.718 17.5102 464.703 17.4954C464.688 17.4806 464.673 17.4651 464.658 17.4503C464.643 17.4354 464.628 17.4198 464.612 17.405C464.597 17.39 464.582 17.3745 464.567 17.3596C464.552 17.3447 464.537 17.3293 464.522 17.3146C464.507 17.2995 464.492 17.2841 464.477 17.2693C464.462 17.2544 464.447 17.2389 464.432 17.2241C464.416 17.2092 464.402 17.1937 464.386 17.1789C464.371 17.164 464.357 17.1486 464.341 17.1339C464.326 17.1188 464.311 17.1033 464.296 17.0884C464.281 17.0734 464.266 17.0579 464.25 17.043C464.235 17.0282 464.221 17.0127 464.205 16.998C464.19 16.9831 464.176 16.9676 464.16 16.9528C464.145 16.9378 464.13 16.9224 464.115 16.9076C464.1 16.8926 464.085 16.8772 464.07 16.8624C464.055 16.8474 464.04 16.8319 464.025 16.8172C464.009 16.8023 463.995 16.7869 463.98 16.7721C463.964 16.757 463.949 16.7414 463.934 16.7266C463.919 16.7116 463.904 16.6962 463.889 16.6815C463.874 16.6665 463.859 16.6511 463.844 16.6363C463.829 16.6213 463.814 16.6058 463.798 16.591C463.783 16.5761 463.769 16.5607 463.753 16.5459C463.738 16.5309 463.723 16.5154 463.708 16.5006C463.693 16.4857 463.678 16.4703 463.663 16.4556C463.648 16.4405 463.633 16.4249 463.617 16.41C463.602 16.3951 463.588 16.3797 463.572 16.365C463.557 16.35 463.542 16.3345 463.527 16.3197C463.512 16.3048 463.497 16.2893 463.482 16.2745C463.467 16.2595 463.452 16.2441 463.437 16.2293C463.422 16.2143 463.407 16.1989 463.391 16.1841C463.376 16.1692 463.362 16.1537 463.346 16.139C463.331 16.1239 463.316 16.1084 463.301 16.0935C463.286 16.0786 463.271 16.0632 463.256 16.0484C463.241 16.0335 463.226 16.018 463.211 16.0032C463.195 15.9882 463.181 15.9728 463.165 15.958C463.15 15.943 463.136 15.9275 463.12 15.9127C463.105 15.8978 463.09 15.8824 463.075 15.8676C463.06 15.8526 463.045 15.8372 463.03 15.8225C463.015 15.8074 463 15.7919 462.984 15.7769C462.969 15.762 462.955 15.7466 462.939 15.7319C462.924 15.7169 462.909 15.7015 462.894 15.6867C462.879 15.6717 462.864 15.6562 462.849 15.6414C462.834 15.6265 462.819 15.611 462.804 15.5962C462.789 15.5812 462.774 15.5658 462.758 15.551C462.743 15.5361 462.729 15.5207 462.713 15.506C462.698 15.4909 462.683 15.4753 462.668 15.4604C462.653 15.4455 462.638 15.4301 462.623 15.4153C462.608 15.4004 462.593 15.3849 462.578 15.3701C462.562 15.3552 462.548 15.3397 462.532 15.3249C462.517 15.3099 462.502 15.2945 462.487 15.2797C462.472 15.2647 462.457 15.2493 462.442 15.2345C462.427 15.2196 462.412 15.2042 462.397 15.1894C462.382 15.1744 462.367 15.1589 462.351 15.144C462.336 15.129 462.321 15.1135 462.306 15.0986C462.291 15.0837 462.276 15.0683 462.261 15.0536C462.246 15.0386 462.231 15.0232 462.216 15.0084C462.201 14.9934 462.186 14.978 462.171 14.9632C462.155 14.9482 462.141 14.9327 462.125 14.9179C462.11 14.903 462.096 14.8876 462.08 14.8729C462.065 14.8579 462.05 14.8424 462.035 14.8275C462.02 14.8124 462.005 14.7969 461.99 14.7821C461.974 14.7672 461.96 14.7518 461.944 14.737C461.929 14.7221 461.915 14.7067 461.899 14.6919C461.884 14.6769 461.869 14.6614 461.854 14.6466C461.839 14.6317 461.824 14.6162 461.809 14.6014C461.794 14.5865 461.779 14.5711 461.764 14.5563C461.749 14.5413 461.734 14.5258 461.718 14.511C461.703 14.4959 461.688 14.4805 461.673 14.4656C461.658 14.4507 461.643 14.4353 461.628 14.4205C461.613 14.4055 461.598 14.3901 461.583 14.3753C461.568 14.3604 461.553 14.3449 461.537 14.3301C461.522 14.3151 461.508 14.2997 461.492 14.2849C461.477 14.27 461.462 14.2546 461.447 14.2398C461.432 14.2248 461.417 14.2092 461.402 14.1944C461.387 14.1794 461.372 14.1639 461.356 14.149C461.341 14.1342 461.327 14.1187 461.311 14.104C461.296 14.089 461.282 14.0736 461.266 14.0588C461.251 14.0438 461.236 14.0284 461.221 14.0136C461.206 13.9986 461.191 13.9831 461.176 13.9683C461.161 13.9534 461.146 13.938 461.131 13.9233C461.115 13.9083 461.101 13.8928 461.085 13.8779C461.07 13.8629 461.055 13.8474 461.04 13.8325C461.025 13.8176 461.01 13.8022 460.995 13.7875C460.98 13.7725 460.965 13.757 460.95 13.7422C460.935 13.7272 460.92 13.7118 460.904 13.697C460.889 13.6821 460.875 13.6666 460.859 13.6518C460.844 13.6369 460.829 13.6215 460.814 13.6067C460.799 13.5917 460.784 13.5762 460.769 13.5613C460.754 13.5463 460.739 13.5308 460.723 13.516C460.708 13.5011 460.694 13.4856 460.678 13.4709C460.663 13.456 460.648 13.4405 460.633 13.4257C460.618 13.4107 460.603 13.3953 460.588 13.3805C460.573 13.3655 460.558 13.3501 460.543 13.3353C460.528 13.3203 460.513 13.3049 460.498 13.2902C460.493 13.2858 460.488 13.2817 460.484 13.2773C460.549 13.3429 460.615 13.4083 460.678 13.4768Z" fill="#000080"/>
<path d="M158.791 85.7969L158.456 87.9145C157.997 90.8128 155.617 92.9903 152.685 93.194L137.949 94.2183C135.986 94.3547 134.055 93.5797 132.71 92.117C132.223 91.5872 131.834 90.9879 131.548 90.3476C126.764 94.0377 120.747 96.1127 113.395 96.6238C112.481 96.6874 15.355 102.848 15.355 102.848C15.1683 102.861 14.9818 102.866 14.7961 102.863C13.05 102.831 11.3722 102.085 10.1582 100.788C10.16 100.79 10.1616 100.792 10.1635 100.794C10.1764 100.808 10.1909 100.82 10.2038 100.834C10.2055 100.836 10.207 100.838 10.2088 100.84C10.2216 100.853 10.2361 100.865 10.249 100.879C10.2507 100.881 10.2523 100.883 10.254 100.885C10.2668 100.899 10.2813 100.91 10.2942 100.924C10.2959 100.926 10.2975 100.928 10.2992 100.93C10.312 100.944 10.3265 100.956 10.3394 100.969C10.3411 100.971 10.3427 100.973 10.3444 100.975C10.3572 100.989 10.3717 101.001 10.3846 101.015C10.3863 101.017 10.3879 101.019 10.3896 101.02C10.4025 101.034 10.417 101.046 10.43 101.06C10.4317 101.062 10.4332 101.064 10.4349 101.066C10.4477 101.079 10.4621 101.091 10.475 101.105C10.4768 101.107 10.4783 101.109 10.4801 101.111C10.4929 101.125 10.5074 101.137 10.5203 101.15C10.522 101.152 10.5236 101.154 10.5253 101.156C10.5381 101.17 10.5526 101.182 10.5656 101.196C10.5673 101.197 10.5688 101.199 10.5705 101.201C10.5833 101.215 10.5978 101.227 10.6108 101.241C10.6125 101.243 10.614 101.245 10.6157 101.246C10.6285 101.26 10.643 101.272 10.6559 101.286C10.6576 101.288 10.6592 101.29 10.6609 101.292C10.6738 101.306 10.6883 101.317 10.7012 101.331C10.7029 101.333 10.7045 101.335 10.7062 101.337C10.719 101.351 10.7336 101.363 10.7465 101.377C10.7482 101.378 10.7497 101.38 10.7514 101.382C10.7642 101.396 10.7787 101.408 10.7915 101.422C10.7933 101.423 10.7949 101.425 10.7966 101.427C10.8094 101.441 10.8239 101.453 10.8369 101.467C10.8386 101.469 10.8401 101.471 10.8418 101.473C10.8546 101.487 10.8692 101.498 10.8821 101.512C10.8838 101.514 10.8853 101.516 10.887 101.518C10.8999 101.532 10.9144 101.544 10.9273 101.557C10.929 101.559 10.9306 101.561 10.9323 101.563C10.9451 101.577 10.9596 101.589 10.9725 101.603C10.9742 101.604 10.9758 101.606 10.9775 101.608C10.9902 101.622 11.0048 101.634 11.0177 101.648C11.0194 101.65 11.0209 101.652 11.0227 101.653C11.0356 101.667 11.0501 101.679 11.0631 101.693C11.0647 101.695 11.0663 101.697 11.0679 101.699C11.0807 101.713 11.0952 101.724 11.108 101.738C11.1098 101.74 11.1114 101.742 11.1132 101.744C11.1259 101.758 11.1405 101.77 11.1534 101.783C11.1551 101.785 11.1566 101.787 11.1583 101.789C11.1712 101.803 11.1857 101.815 11.1986 101.829C11.2003 101.831 11.2019 101.832 11.2036 101.834C11.2164 101.848 11.2309 101.86 11.2438 101.874C11.2455 101.876 11.2471 101.878 11.2488 101.88C11.2616 101.893 11.2761 101.905 11.289 101.919C11.2908 101.921 11.2923 101.923 11.294 101.925C11.3068 101.939 11.3213 101.95 11.3342 101.964C11.3359 101.966 11.3375 101.968 11.3392 101.97C11.3521 101.984 11.3666 101.996 11.3796 102.01C11.3813 102.011 11.3828 102.013 11.3845 102.015C11.3972 102.029 11.4117 102.041 11.4246 102.055C11.4264 102.057 11.4279 102.059 11.4297 102.06C11.4425 102.074 11.457 102.086 11.4699 102.1C11.4716 102.102 11.4732 102.104 11.4749 102.106C11.4877 102.12 11.5022 102.131 11.5152 102.145C11.5169 102.147 11.5184 102.149 11.5201 102.151C11.5329 102.165 11.5474 102.177 11.5603 102.19C11.5621 102.192 11.5636 102.194 11.5653 102.196C11.5782 102.21 11.5927 102.222 11.6056 102.236C11.6073 102.237 11.6089 102.239 11.6106 102.241C11.6234 102.255 11.6378 102.267 11.6508 102.281C11.6525 102.283 11.654 102.285 11.6558 102.287C11.6686 102.301 11.6832 102.312 11.6961 102.326C11.6978 102.328 11.6993 102.33 11.701 102.332C11.7138 102.346 11.7283 102.357 11.7411 102.371C11.7428 102.373 11.7445 102.375 11.7462 102.377C11.759 102.391 11.7735 102.403 11.7865 102.416C11.7882 102.418 11.7897 102.42 11.7914 102.422C11.8042 102.436 11.8188 102.448 11.8316 102.462C11.8334 102.464 11.8349 102.466 11.8366 102.467C11.8495 102.481 11.864 102.493 11.8769 102.507C11.8786 102.509 11.8802 102.511 11.8819 102.513C11.8947 102.527 11.9092 102.538 11.9221 102.552C11.9238 102.554 11.9253 102.556 11.9271 102.558C11.9399 102.572 11.9544 102.584 11.9673 102.597C11.969 102.599 11.9706 102.601 11.9723 102.603C11.9852 102.617 11.9997 102.629 12.0127 102.643C12.0144 102.645 12.0159 102.646 12.0175 102.648C12.0303 102.662 12.0448 102.674 12.0577 102.688C12.0594 102.69 12.061 102.692 12.0627 102.694C12.0756 102.707 12.0901 102.719 12.103 102.733C12.1047 102.735 12.1063 102.737 12.108 102.739C12.1208 102.753 12.1353 102.764 12.1482 102.778C12.1499 102.78 12.1515 102.782 12.1532 102.784C12.166 102.798 12.1805 102.81 12.1934 102.823C12.1951 102.825 12.1966 102.827 12.1984 102.829C12.2112 102.843 12.2257 102.855 12.2386 102.869C12.2403 102.871 12.2419 102.873 12.2436 102.874C12.2565 102.888 12.2709 102.9 12.2839 102.914C12.2856 102.916 12.2872 102.918 12.2889 102.92C12.3016 102.934 12.3163 102.945 12.3292 102.959C12.3308 102.961 12.3324 102.963 12.334 102.965C12.3468 102.979 12.3613 102.99 12.3742 103.004C12.3759 103.006 12.3775 103.008 12.3793 103.01C12.3921 103.024 12.4066 103.036 12.4196 103.05C12.4213 103.051 12.4228 103.053 12.4245 103.055C12.4373 103.069 12.4518 103.081 12.4647 103.095C12.4665 103.097 12.468 103.099 12.4697 103.1C12.4825 103.114 12.497 103.126 12.5099 103.14C12.5116 103.142 12.5132 103.144 12.5149 103.146C12.5278 103.16 12.5422 103.171 12.5552 103.185C12.5569 103.187 12.5584 103.189 12.5602 103.191C12.5729 103.205 12.5875 103.217 12.6004 103.23C12.6021 103.232 12.6036 103.234 12.6053 103.236C12.6182 103.25 12.6328 103.262 12.6458 103.276C12.6474 103.278 12.6489 103.28 12.6506 103.281C12.6634 103.295 12.6779 103.307 12.6907 103.321C12.6925 103.323 12.6941 103.325 12.6958 103.327C12.7086 103.341 12.7232 103.352 12.736 103.366C12.7378 103.368 12.7393 103.37 12.741 103.372C12.7539 103.386 12.7684 103.398 12.7813 103.411C12.783 103.413 12.7846 103.415 12.7863 103.417C12.7991 103.431 12.8135 103.443 12.8265 103.457C12.8282 103.458 12.8297 103.46 12.8315 103.462C12.8442 103.476 12.8588 103.488 12.8717 103.502C12.8734 103.504 12.8749 103.506 12.8766 103.507C12.8895 103.521 12.904 103.533 12.9169 103.547C12.9186 103.549 12.9202 103.551 12.9219 103.553C12.9347 103.567 12.9492 103.578 12.9622 103.592C12.9639 103.594 12.9654 103.596 12.9671 103.598C12.9799 103.612 12.9944 103.624 13.0073 103.637C13.0091 103.639 13.0106 103.641 13.0123 103.643C13.0252 103.657 13.0397 103.669 13.0526 103.683C13.0543 103.684 13.0559 103.686 13.0576 103.688C13.0704 103.702 13.0849 103.714 13.0979 103.728C13.0996 103.73 13.101 103.732 13.1028 103.734C13.1156 103.747 13.1301 103.759 13.143 103.773C13.1447 103.775 13.1463 103.777 13.148 103.779C13.1608 103.793 13.1753 103.804 13.1882 103.818C13.1899 103.82 13.1915 103.822 13.1932 103.824C13.206 103.838 13.2205 103.85 13.2335 103.863C13.2352 103.865 13.2367 103.867 13.2384 103.869C13.2512 103.883 13.2658 103.895 13.2786 103.909C13.2804 103.911 13.2819 103.913 13.2836 103.914C13.2965 103.928 13.311 103.94 13.3239 103.954C13.3256 103.956 13.3272 103.958 13.3289 103.96C13.3417 103.974 13.3562 103.985 13.3692 103.999C13.3709 104.001 13.3723 104.003 13.3741 104.005C13.3869 104.019 13.4015 104.031 13.4143 104.044C13.416 104.046 13.4176 104.048 13.4193 104.05C13.4322 104.064 13.4467 104.076 13.4596 104.09C13.4613 104.091 13.4629 104.093 13.4646 104.095C13.4773 104.109 13.4918 104.121 13.5048 104.135C13.5065 104.137 13.508 104.139 13.5097 104.141C13.5225 104.154 13.5371 104.166 13.5499 104.18C13.5517 104.182 13.5532 104.184 13.5549 104.186C13.5678 104.2 13.5823 104.211 13.5952 104.225C13.5969 104.227 13.5985 104.229 13.6002 104.231C13.613 104.245 13.6275 104.257 13.6404 104.27C13.6422 104.272 13.6437 104.274 13.6454 104.276C13.6582 104.29 13.6728 104.302 13.6856 104.316C13.6873 104.318 13.6889 104.32 13.6906 104.321C13.7035 104.335 13.718 104.347 13.7309 104.361C13.7326 104.363 13.7342 104.365 13.7359 104.367C13.7486 104.381 13.7632 104.392 13.7761 104.406C13.7778 104.408 13.7793 104.41 13.781 104.412C13.7939 104.426 13.8084 104.438 13.8213 104.451C13.823 104.453 13.8246 104.455 13.8263 104.457C13.8391 104.471 13.8536 104.483 13.8665 104.497C13.8682 104.498 13.8698 104.5 13.8715 104.502C13.8843 104.516 13.8988 104.528 13.9117 104.542C13.9135 104.544 13.915 104.546 13.9167 104.547C13.9295 104.561 13.9441 104.573 13.957 104.587C13.9587 104.589 13.9603 104.591 13.962 104.593C13.9748 104.607 13.9893 104.618 14.0022 104.632C14.0039 104.634 14.0055 104.636 14.0072 104.638C14.0199 104.652 14.0345 104.664 14.0474 104.677C14.0491 104.679 14.0506 104.681 14.0523 104.683C14.0652 104.697 14.0797 104.709 14.0926 104.723C14.0943 104.725 14.0959 104.726 14.0976 104.728C14.1105 104.742 14.1249 104.754 14.1379 104.768C14.1396 104.77 14.1411 104.772 14.1429 104.774C14.1556 104.788 14.1701 104.799 14.183 104.813C14.1848 104.815 14.1863 104.817 14.188 104.819C14.2008 104.833 14.2154 104.845 14.2282 104.858C14.2299 104.86 14.2315 104.862 14.2332 104.864C14.2461 104.878 14.2606 104.89 14.2736 104.904C14.2753 104.905 14.2768 104.907 14.2785 104.909C14.2912 104.923 14.3057 104.935 14.3186 104.949C14.3204 104.951 14.3219 104.953 14.3237 104.954C14.3365 104.968 14.3511 104.98 14.3639 104.994C14.3656 104.996 14.3672 104.998 14.3689 105C14.3817 105.014 14.3962 105.025 14.4092 105.039C14.4109 105.041 14.4124 105.043 14.4142 105.045C14.4269 105.059 14.4415 105.071 14.4543 105.084C14.4561 105.086 14.4576 105.088 14.4593 105.09C14.4722 105.104 14.4867 105.116 14.4996 105.13C14.5013 105.131 14.5029 105.133 14.5046 105.135C14.5174 105.149 14.5318 105.161 14.5448 105.175C14.5465 105.177 14.548 105.179 14.5498 105.181C14.5626 105.195 14.5772 105.206 14.5901 105.22C14.5918 105.222 14.5934 105.224 14.595 105.226C14.6078 105.24 14.6223 105.251 14.6351 105.265C14.6369 105.267 14.6385 105.269 14.6403 105.271C14.653 105.285 14.6675 105.297 14.6805 105.31C14.6822 105.312 14.6837 105.314 14.6855 105.316C14.6982 105.33 14.7128 105.342 14.7256 105.356C14.7274 105.358 14.7289 105.36 14.7306 105.361C14.7435 105.375 14.758 105.387 14.7709 105.401C14.7726 105.403 14.7742 105.405 14.7759 105.407C14.7887 105.421 14.8032 105.432 14.8162 105.446C14.8179 105.448 14.8194 105.45 14.8211 105.452C14.8339 105.466 14.8484 105.478 14.8613 105.491C14.863 105.493 14.8646 105.495 14.8663 105.497C14.8792 105.511 14.8937 105.523 14.9067 105.537C14.9084 105.539 14.9099 105.54 14.9116 105.542C14.9243 105.556 14.9388 105.568 14.9517 105.582C14.9534 105.584 14.955 105.586 14.9567 105.588C14.9696 105.601 14.9841 105.613 14.997 105.627C14.9987 105.629 15.0003 105.631 15.002 105.633C15.0148 105.647 15.0293 105.658 15.0422 105.672C15.0439 105.674 15.0455 105.676 15.0472 105.678C15.06 105.692 15.0745 105.704 15.0875 105.717C15.0892 105.719 15.0907 105.721 15.0924 105.723C15.1052 105.737 15.1198 105.749 15.1326 105.763C15.1343 105.765 15.1359 105.767 15.1376 105.768C15.1505 105.782 15.165 105.794 15.1779 105.808C15.1796 105.81 15.1812 105.812 15.1829 105.814C15.1957 105.828 15.2103 105.839 15.2232 105.853C15.2249 105.855 15.2264 105.857 15.228 105.859C15.2408 105.873 15.2553 105.884 15.2682 105.898C15.27 105.9 15.2715 105.902 15.2733 105.904C15.2862 105.918 15.3006 105.93 15.3136 105.944C15.3153 105.945 15.3168 105.947 15.3186 105.949C15.3313 105.963 15.3458 105.975 15.3588 105.989C15.3605 105.991 15.362 105.993 15.3637 105.995C15.3765 106.008 15.3911 106.02 15.4039 106.034C15.4056 106.036 15.4072 106.038 15.4089 106.04C15.4218 106.054 15.4363 106.065 15.4492 106.079C15.4509 106.081 15.4525 106.083 15.4542 106.085C15.467 106.099 15.4815 106.111 15.4944 106.124C15.4962 106.126 15.4977 106.128 15.4994 106.13C15.5122 106.144 15.5268 106.156 15.5398 106.17C15.5414 106.172 15.543 106.174 15.5446 106.175C15.5574 106.189 15.5719 106.201 15.5848 106.215C15.5865 106.217 15.5881 106.219 15.5899 106.221C15.6026 106.235 15.6172 106.246 15.6301 106.26C15.6318 106.262 15.6333 106.264 15.635 106.266C15.6479 106.28 15.6624 106.292 15.6753 106.305C15.677 106.307 15.6786 106.309 15.6803 106.311C15.6931 106.325 15.7076 106.337 15.7205 106.351C15.7222 106.352 15.7238 106.354 15.7255 106.356C15.7383 106.37 15.7528 106.382 15.7657 106.396C15.7675 106.398 15.769 106.4 15.7707 106.401C15.7835 106.415 15.7981 106.427 15.8109 106.441C15.8126 106.443 15.8142 106.445 15.8159 106.447C15.8288 106.461 15.8433 106.472 15.8563 106.486C15.858 106.488 15.8594 106.49 15.8612 106.492C15.8739 106.506 15.8884 106.518 15.9013 106.531C15.9031 106.533 15.9046 106.535 15.9063 106.537C15.9192 106.551 15.9338 106.563 15.9466 106.577C15.9483 106.579 15.9499 106.58 15.9516 106.582C15.9644 106.596 15.9789 106.608 15.9919 106.622C15.9936 106.624 15.9951 106.626 15.9968 106.628C16.0096 106.642 16.0241 106.653 16.037 106.667C16.0387 106.669 16.0403 106.671 16.042 106.673C16.0548 106.687 16.0694 106.698 16.0822 106.712C16.0839 106.714 16.0855 106.716 16.0872 106.718C16.1001 106.732 16.1145 106.744 16.1275 106.757C16.1292 106.759 16.1307 106.761 16.1325 106.763C16.1453 106.777 16.1599 106.789 16.1728 106.803C16.1745 106.805 16.176 106.807 16.1777 106.808C16.1905 106.822 16.205 106.834 16.2178 106.848C16.2196 106.85 16.2212 106.852 16.2229 106.854C16.2357 106.868 16.2502 106.879 16.2632 106.893C16.2649 106.895 16.2664 106.897 16.2681 106.899C16.2809 106.913 16.2955 106.925 16.3084 106.938C16.3101 106.94 16.3116 106.942 16.3133 106.944C16.3262 106.958 16.3407 106.97 16.3536 106.984C16.3553 106.985 16.3569 106.987 16.3586 106.989C16.3713 107.003 16.3858 107.015 16.3988 107.029C16.4005 107.031 16.402 107.033 16.4038 107.035C16.4166 107.048 16.4311 107.06 16.444 107.074C16.4457 107.076 16.4473 107.078 16.449 107.08C16.4619 107.094 16.4764 107.106 16.4894 107.119C16.491 107.121 16.4925 107.123 16.4943 107.125C17.7111 108.447 19.4075 109.207 21.172 109.238C21.3576 109.242 21.5442 109.237 21.731 109.224C21.731 109.224 118.856 103.063 119.771 103C126.944 102.501 132.844 100.509 137.57 96.9845C137.578 96.9918 137.585 96.9989 137.593 97.0061C137.608 97.0211 137.623 97.0366 137.638 97.0515C137.653 97.0664 137.668 97.0818 137.683 97.0965C137.698 97.1115 137.713 97.127 137.728 97.1418C137.743 97.1567 137.758 97.1722 137.774 97.187C137.789 97.202 137.803 97.2174 137.819 97.2322C137.834 97.2471 137.849 97.2625 137.864 97.2772C137.879 97.2923 137.894 97.3078 137.909 97.3227C137.924 97.3377 137.939 97.3532 137.955 97.3681C137.97 97.3829 137.984 97.3984 138 97.4131C138.015 97.428 138.03 97.4435 138.045 97.4583C138.06 97.4733 138.075 97.4888 138.09 97.5035C138.105 97.5185 138.12 97.534 138.135 97.5488C138.15 97.5637 138.165 97.5791 138.18 97.5938C138.196 97.6088 138.21 97.6243 138.226 97.6392C138.241 97.6542 138.256 97.6697 138.271 97.6846C138.286 97.6995 138.301 97.7149 138.316 97.7296C138.331 97.7446 138.346 97.7601 138.361 97.7749C138.376 97.7898 138.391 97.8053 138.407 97.8201C138.422 97.835 138.436 97.8505 138.452 97.8653C138.467 97.8802 138.482 97.8956 138.497 97.9104C138.512 97.9253 138.527 97.9409 138.542 97.9557C138.557 97.9707 138.572 97.9863 138.588 98.0011C138.603 98.0161 138.617 98.0314 138.633 98.0462C138.648 98.0611 138.663 98.0766 138.678 98.0914C138.693 98.1063 138.708 98.1218 138.723 98.1366C138.738 98.1516 138.753 98.167 138.768 98.1818C138.783 98.1967 138.798 98.2121 138.813 98.2269C138.829 98.2419 138.843 98.2574 138.859 98.2722C138.874 98.2873 138.889 98.3028 138.904 98.3176C138.919 98.3326 138.934 98.3479 138.949 98.3627C138.964 98.3776 138.979 98.3931 138.994 98.4079C139.01 98.4229 139.024 98.4384 139.04 98.4531C139.055 98.4681 139.07 98.4836 139.085 98.4984C139.1 98.5133 139.115 98.5288 139.13 98.5436C139.145 98.5585 139.16 98.5739 139.175 98.5886C139.19 98.6037 139.205 98.6192 139.221 98.6342C139.236 98.6491 139.251 98.6645 139.266 98.6792C139.281 98.6942 139.296 98.7097 139.311 98.7245C140.641 100.036 142.468 100.723 144.324 100.594L159.061 99.5699C160.7 99.456 162.165 98.7246 163.22 97.5963L158.791 85.7969Z" fill="#000080"/>
<path d="M478.109 55.3389C477.789 54.7545 477.393 54.236 476.94 53.7893C476.925 53.7742 476.91 53.7591 476.895 53.7442C476.88 53.729 476.865 53.7138 476.85 53.6987C476.835 53.6836 476.82 53.6685 476.805 53.6536C476.79 53.6385 476.775 53.6233 476.759 53.6084C476.745 53.5933 476.729 53.5782 476.714 53.5632C476.699 53.5481 476.684 53.533 476.669 53.518C476.654 53.5029 476.639 53.4877 476.624 53.4728C476.609 53.4577 476.594 53.4426 476.579 53.4277C476.564 53.4124 476.549 53.3972 476.533 53.3822C476.518 53.3671 476.503 53.352 476.488 53.3371C476.473 53.322 476.458 53.3069 476.443 53.2918C476.428 53.2767 476.413 53.2616 476.398 53.2467C476.383 53.2316 476.368 53.2164 476.353 53.2015C476.338 53.1863 476.322 53.1712 476.307 53.1562C476.292 53.1411 476.277 53.1261 476.262 53.1111C476.247 53.0959 476.232 53.0808 476.217 53.0656C476.202 53.0505 476.187 53.0355 476.172 53.0205C476.157 53.0054 476.142 52.9903 476.126 52.9754C476.111 52.9602 476.096 52.9451 476.081 52.9301C476.066 52.915 476.051 52.8999 476.036 52.8849C476.021 52.8698 476.006 52.8546 475.991 52.8397C475.976 52.8246 475.961 52.8095 475.946 52.7946C475.931 52.7794 475.915 52.7642 475.9 52.7491C475.885 52.7341 475.87 52.7189 475.855 52.7041C475.84 52.6889 475.825 52.6738 475.81 52.6588C475.795 52.6437 475.78 52.6286 475.765 52.6136C475.75 52.5984 475.735 52.5833 475.719 52.5684C475.704 52.5533 475.689 52.5382 475.674 52.5232C475.659 52.5081 475.644 52.493 475.629 52.478C475.614 52.4628 475.599 52.4476 475.584 52.4325C475.569 52.4175 475.554 52.4024 475.539 52.3875C475.524 52.3724 475.509 52.3573 475.493 52.3423C475.478 52.3271 475.463 52.312 475.448 52.2971C475.433 52.2819 475.418 52.2668 475.403 52.2518C475.388 52.2367 475.373 52.2216 475.358 52.2066C475.343 52.1915 475.328 52.1764 475.313 52.1615C475.298 52.1464 475.282 52.1312 475.267 52.1161C475.252 52.101 475.237 52.0858 475.222 52.0708C475.207 52.0557 475.192 52.0407 475.177 52.0258C475.162 52.0106 475.147 51.9955 475.132 51.9805C475.117 51.9654 475.102 51.9503 475.086 51.9353C475.071 51.9202 475.056 51.905 475.041 51.8901C475.026 51.875 475.011 51.8599 474.996 51.845C474.981 51.8298 474.966 51.8147 474.951 51.7997C474.936 51.7845 474.921 51.7693 474.905 51.7542C474.89 51.7392 474.875 51.7242 474.86 51.7092C474.845 51.6941 474.83 51.679 474.815 51.664C474.8 51.6489 474.785 51.6338 474.77 51.6188C474.755 51.6036 474.74 51.5885 474.725 51.5735C474.71 51.5584 474.695 51.5434 474.68 51.5284C474.664 51.5133 474.649 51.4981 474.634 51.4831C474.619 51.4679 474.604 51.4527 474.589 51.4378C474.574 51.4227 474.559 51.4076 474.544 51.3927C474.529 51.3776 474.514 51.3625 474.499 51.3475C474.484 51.3323 474.468 51.3172 474.453 51.3022C474.438 51.2871 474.423 51.272 474.408 51.257C474.393 51.242 474.378 51.2268 474.363 51.212C474.348 51.1968 474.333 51.1816 474.318 51.1666C474.303 51.1514 474.288 51.1363 474.272 51.1212C474.257 51.1061 474.242 51.0911 474.227 51.0761C474.212 51.061 474.197 51.0459 474.182 51.0309C474.167 51.0158 474.152 51.0007 474.137 50.9857C474.122 50.9706 474.107 50.9555 474.092 50.9405C474.077 50.9254 474.062 50.9103 474.046 50.8954C474.031 50.8802 474.016 50.865 474.001 50.8501C473.986 50.8349 473.971 50.8197 473.956 50.8047C473.941 50.7896 473.926 50.7745 473.911 50.7596C473.896 50.7445 473.881 50.7293 473.865 50.7144C473.85 50.6993 473.835 50.6842 473.82 50.6692C473.805 50.654 473.79 50.6389 473.775 50.624C473.76 50.6088 473.745 50.5938 473.73 50.5789C473.715 50.5637 473.7 50.5485 473.685 50.5335C473.67 50.5183 473.654 50.5031 473.639 50.4882C473.624 50.4731 473.609 50.458 473.594 50.4431C473.579 50.4279 473.564 50.4128 473.549 50.3978C473.534 50.3827 473.519 50.3676 473.504 50.3527C473.489 50.3375 473.474 50.3224 473.459 50.3074C473.444 50.2924 473.429 50.2773 473.413 50.2623C473.398 50.2472 473.383 50.232 473.368 50.217C473.353 50.2018 473.338 50.1866 473.323 50.1716C473.308 50.1565 473.293 50.1414 473.278 50.1265C473.263 50.1114 473.248 50.0963 473.232 50.0813C473.217 50.0662 473.202 50.0511 473.187 50.0361C473.172 50.021 473.157 50.0059 473.142 49.9909C473.127 49.9758 473.112 49.9607 473.097 49.9457C473.082 49.9306 473.067 49.9154 473.052 49.9004C473.036 49.8852 473.021 49.8701 473.006 49.8551C472.991 49.84 472.976 49.8249 472.961 49.81C472.946 49.7949 472.931 49.7798 472.916 49.7648C472.901 49.7496 472.886 49.7345 472.871 49.7196C472.856 49.7044 472.841 49.6893 472.825 49.6744C472.81 49.6593 472.796 49.6442 472.78 49.6293C472.765 49.6141 472.75 49.5989 472.735 49.5839C472.72 49.5688 472.705 49.5536 472.69 49.5385C472.675 49.5235 472.66 49.5084 472.645 49.4935C472.63 49.4783 472.615 49.4632 472.599 49.4483C472.584 49.4331 472.569 49.418 472.554 49.403C472.539 49.3879 472.524 49.3728 472.509 49.3578C472.494 49.3427 472.479 49.3276 472.464 49.3127C472.449 49.2975 472.434 49.2824 472.418 49.2674C472.403 49.2522 472.388 49.237 472.373 49.222C472.358 49.2069 472.343 49.1918 472.328 49.177C472.313 49.1618 472.298 49.1467 472.283 49.1317C472.268 49.1166 472.253 49.1015 472.238 49.0865C472.223 49.0713 472.208 49.0562 472.192 49.0413C472.177 49.0262 472.162 49.0111 472.147 48.9962C472.132 48.981 472.117 48.9659 472.102 48.9508C472.087 48.9356 472.072 48.9205 472.057 48.9055C472.042 48.8904 472.027 48.8754 472.011 48.8604C471.996 48.8453 471.981 48.8302 471.966 48.8152C471.951 48.8 471.936 48.7849 471.921 48.77C471.906 48.7549 471.891 48.7397 471.876 48.7247C471.861 48.7096 471.846 48.6945 471.831 48.6795C471.816 48.6644 471.801 48.6493 471.786 48.6344C471.77 48.6192 471.755 48.604 471.74 48.5889C471.725 48.5739 471.71 48.5588 471.695 48.5438C471.68 48.5287 471.665 48.5136 471.65 48.4987C471.635 48.4836 471.62 48.4684 471.605 48.4534C471.589 48.4383 471.574 48.4232 471.559 48.4082C471.544 48.393 471.529 48.3779 471.514 48.363C471.499 48.3479 471.484 48.3328 471.469 48.3179C471.454 48.3027 471.439 48.2875 471.424 48.2724C471.409 48.2574 471.394 48.2422 471.378 48.2273C471.363 48.2122 471.348 48.1971 471.333 48.1821C471.318 48.167 471.303 48.1519 471.288 48.1369C471.273 48.1217 471.258 48.1066 471.243 48.0917C471.228 48.0766 471.213 48.0614 471.198 48.0464C471.183 48.0314 471.168 48.0163 471.152 48.0014C471.137 47.9861 471.122 47.9709 471.107 47.9559C471.092 47.9408 471.077 47.9257 471.062 47.9108C471.047 47.8956 471.032 47.8805 471.017 47.8656C471.002 47.8505 470.987 47.8353 470.971 47.8204C470.956 47.8053 470.941 47.7902 470.926 47.7751C470.911 47.76 470.896 47.7449 470.881 47.73C470.866 47.7148 470.851 47.6997 470.836 47.6849C470.821 47.6696 470.806 47.6544 470.79 47.6394C470.775 47.6243 470.76 47.6091 470.745 47.5943C470.73 47.5792 470.715 47.564 470.7 47.549C470.685 47.5339 470.67 47.5188 470.655 47.5038C470.646 47.4951 470.637 47.4872 470.628 47.4785C471.054 47.9105 471.429 48.4064 471.733 48.963C472.427 50.235 472.645 51.7073 472.426 53.125L470.435 66.0327C469.986 68.9425 467.602 71.1331 464.661 71.3375L385.763 76.818C382.636 77.0333 379.774 74.9512 378.998 71.8971L378.66 70.5639L372.42 71.0566L371.045 74.4061C370.138 76.6143 368.063 78.1074 365.67 78.2737L232.623 87.5872C232.437 87.6001 232.25 87.6049 232.065 87.6015C230.299 87.5699 228.602 86.8095 227.385 85.4858C226.512 84.5363 225.951 83.3652 225.747 82.1298C219.91 86.4627 212.385 89.0441 203.737 89.6452L186.957 90.8115L182.972 116.316C182.524 119.182 180.196 121.352 177.302 121.601C177.08 121.62 176.858 121.627 176.638 121.623C174.992 121.594 173.44 120.932 172.273 119.825C172.288 119.839 172.302 119.855 172.318 119.869C172.333 119.884 172.347 119.9 172.363 119.914C172.378 119.929 172.393 119.945 172.408 119.959C172.423 119.974 172.438 119.99 172.453 120.005C172.469 120.02 172.483 120.035 172.499 120.05C172.514 120.065 172.528 120.081 172.544 120.095C172.559 120.11 172.574 120.126 172.589 120.14C172.604 120.155 172.619 120.171 172.634 120.185C172.649 120.2 172.664 120.216 172.679 120.231C172.695 120.246 172.709 120.261 172.725 120.276C172.74 120.291 172.754 120.307 172.77 120.321C172.785 120.336 172.8 120.352 172.815 120.366C172.83 120.381 172.845 120.397 172.86 120.412C172.876 120.427 172.89 120.442 172.906 120.457C172.921 120.472 172.935 120.487 172.951 120.502C172.966 120.517 172.98 120.533 172.996 120.547C173.011 120.562 173.026 120.578 173.041 120.593C173.056 120.607 173.071 120.623 173.086 120.638C173.102 120.653 173.116 120.668 173.132 120.683C173.147 120.698 173.161 120.714 173.177 120.728C173.192 120.743 173.207 120.759 173.222 120.773C173.237 120.788 173.252 120.804 173.267 120.818C173.283 120.833 173.297 120.849 173.313 120.864C173.328 120.879 173.342 120.894 173.358 120.909C173.373 120.924 173.387 120.94 173.403 120.954C173.418 120.969 173.433 120.985 173.448 121C173.463 121.014 173.478 121.03 173.494 121.045C173.509 121.06 173.523 121.075 173.539 121.09C173.554 121.105 173.568 121.12 173.584 121.135C173.599 121.15 173.614 121.166 173.629 121.18C173.644 121.195 173.659 121.211 173.674 121.226C173.69 121.24 173.704 121.256 173.719 121.271C173.735 121.286 173.749 121.301 173.765 121.316C173.78 121.331 173.795 121.347 173.81 121.361C173.825 121.376 173.84 121.392 173.855 121.406C173.87 121.421 173.885 121.437 173.9 121.452C173.916 121.466 173.93 121.482 173.946 121.497C173.961 121.512 173.975 121.527 173.991 121.542C174.006 121.557 174.021 121.573 174.036 121.587C174.051 121.602 174.066 121.618 174.081 121.633C174.097 121.647 174.111 121.663 174.127 121.678C174.142 121.693 174.156 121.708 174.172 121.723C174.187 121.738 174.201 121.753 174.217 121.768C174.232 121.783 174.247 121.799 174.262 121.813C174.277 121.828 174.292 121.844 174.307 121.859C174.323 121.874 174.337 121.889 174.353 121.904C174.368 121.919 174.382 121.934 174.398 121.949C174.413 121.964 174.428 121.98 174.443 121.994C174.458 122.009 174.473 122.025 174.488 122.04C174.503 122.054 174.518 122.07 174.533 122.085C174.549 122.1 174.563 122.115 174.579 122.13C174.594 122.145 174.608 122.161 174.624 122.175C174.639 122.19 174.654 122.206 174.669 122.22C174.684 122.235 174.699 122.251 174.714 122.266C174.73 122.281 174.744 122.296 174.76 122.311C174.775 122.326 174.789 122.341 174.805 122.356C174.82 122.371 174.834 122.387 174.85 122.401C174.865 122.416 174.88 122.432 174.895 122.447C174.91 122.461 174.925 122.477 174.94 122.492C174.956 122.507 174.97 122.522 174.986 122.537C175.001 122.552 175.015 122.567 175.031 122.582C175.046 122.597 175.061 122.613 175.076 122.628C175.091 122.642 175.106 122.658 175.121 122.673C175.137 122.687 175.151 122.703 175.166 122.718C175.182 122.733 175.196 122.748 175.212 122.763C175.227 122.778 175.241 122.794 175.257 122.808C175.272 122.823 175.287 122.839 175.302 122.854C175.317 122.868 175.332 122.884 175.347 122.899C175.363 122.914 175.377 122.929 175.393 122.944C175.408 122.959 175.422 122.974 175.438 122.989C175.453 123.004 175.467 123.02 175.483 123.034C175.498 123.049 175.513 123.065 175.528 123.08C175.544 123.094 175.558 123.11 175.573 123.125C175.589 123.14 175.603 123.155 175.619 123.17C175.634 123.185 175.648 123.201 175.664 123.215C175.679 123.23 175.694 123.246 175.709 123.261C175.725 123.275 175.739 123.291 175.754 123.306C175.77 123.32 175.784 123.336 175.799 123.351C175.815 123.366 175.829 123.381 175.845 123.396C175.86 123.411 175.875 123.427 175.89 123.441C175.905 123.456 175.92 123.472 175.935 123.487C175.95 123.501 175.965 123.517 175.98 123.532C175.996 123.547 176.01 123.562 176.026 123.577C176.041 123.592 176.055 123.608 176.071 123.622C176.086 123.637 176.101 123.653 176.116 123.667C176.131 123.682 176.146 123.698 176.161 123.713C176.177 123.728 176.191 123.743 176.207 123.758C176.222 123.773 176.236 123.788 176.252 123.803C176.267 123.818 176.282 123.834 176.297 123.848C176.312 123.863 176.327 123.879 176.342 123.894C176.358 123.908 176.372 123.924 176.387 123.939C176.403 123.954 176.417 123.969 176.432 123.984C176.448 123.999 176.462 124.014 176.478 124.029C176.493 124.044 176.508 124.06 176.523 124.074C176.538 124.089 176.553 124.105 176.568 124.12C176.584 124.134 176.598 124.15 176.614 124.165C176.629 124.18 176.643 124.196 176.659 124.21C176.674 124.225 176.689 124.241 176.704 124.255C176.719 124.27 176.734 124.286 176.749 124.3C176.764 124.315 176.779 124.331 176.794 124.346C176.81 124.361 176.824 124.376 176.84 124.391C176.855 124.406 176.869 124.421 176.885 124.436C176.9 124.451 176.915 124.467 176.93 124.481C176.945 124.496 176.96 124.512 176.975 124.527C176.991 124.542 177.005 124.557 177.02 124.572C177.036 124.587 177.05 124.602 177.066 124.617C177.081 124.632 177.095 124.648 177.111 124.662C177.126 124.677 177.141 124.693 177.156 124.707C177.171 124.722 177.186 124.738 177.201 124.753C177.217 124.768 177.231 124.783 177.247 124.798C177.262 124.813 177.276 124.829 177.292 124.843C177.307 124.858 177.322 124.874 177.337 124.888C177.352 124.903 177.367 124.919 177.382 124.934C177.397 124.948 177.412 124.964 177.427 124.979C177.443 124.994 177.457 125.009 177.473 125.024C177.488 125.039 177.502 125.055 177.518 125.069C177.533 125.084 177.548 125.1 177.563 125.114C177.578 125.129 177.593 125.145 177.608 125.16C177.624 125.175 177.638 125.19 177.654 125.205C177.669 125.22 177.683 125.235 177.699 125.25C177.714 125.265 177.728 125.281 177.744 125.295C177.759 125.31 177.774 125.326 177.789 125.341C177.804 125.355 177.819 125.371 177.834 125.386C177.85 125.401 177.864 125.416 177.88 125.431C177.895 125.446 177.909 125.462 177.925 125.476C177.94 125.491 177.955 125.507 177.97 125.522C177.985 125.536 178 125.552 178.015 125.567C178.031 125.581 178.045 125.597 178.06 125.612C178.076 125.627 178.09 125.642 178.106 125.657C178.121 125.672 178.136 125.688 178.151 125.702C178.166 125.717 178.181 125.733 178.196 125.748C178.211 125.762 178.226 125.778 178.241 125.793C178.257 125.808 178.271 125.823 178.287 125.838C178.302 125.853 178.316 125.869 178.332 125.883C178.347 125.898 178.361 125.914 178.377 125.928C178.392 125.943 178.407 125.959 178.422 125.974C178.438 125.988 178.452 126.004 178.467 126.019C178.483 126.034 178.497 126.049 178.513 126.064C178.528 126.079 178.543 126.095 178.558 126.109C178.573 126.124 178.588 126.14 178.603 126.155C179.775 127.289 181.346 127.969 183.014 127.999C183.234 128.003 183.456 127.995 183.678 127.976C186.572 127.728 188.9 125.558 189.348 122.692L193.333 97.1874L210.113 96.0211C218.274 95.4539 225.433 93.1213 231.119 89.2193C231.123 89.2244 231.129 89.2289 231.133 89.234C231.135 89.2356 231.136 89.2374 231.138 89.2389C231.151 89.2531 231.166 89.2652 231.179 89.2792C231.18 89.2808 231.181 89.2825 231.183 89.2842C231.196 89.2984 231.211 89.3103 231.224 89.3244C231.225 89.326 231.227 89.3278 231.228 89.3293C231.241 89.3436 231.256 89.3556 231.269 89.3697C231.271 89.3713 231.272 89.373 231.273 89.3746C231.286 89.3888 231.301 89.4008 231.314 89.4149C231.316 89.4165 231.317 89.4182 231.319 89.4198C231.332 89.434 231.346 89.446 231.36 89.4601C231.361 89.4617 231.362 89.4634 231.364 89.465C231.377 89.4792 231.392 89.4912 231.405 89.5053C231.406 89.5069 231.408 89.5087 231.409 89.5103C231.422 89.5245 231.437 89.5365 231.45 89.5505C231.452 89.5521 231.453 89.5539 231.454 89.5555C231.467 89.5696 231.482 89.5817 231.495 89.5957C231.497 89.5973 231.498 89.5991 231.5 89.6007C231.513 89.6149 231.527 89.6269 231.54 89.641C231.542 89.6426 231.543 89.6443 231.545 89.6459C231.558 89.6601 231.573 89.6722 231.586 89.6862C231.587 89.6878 231.588 89.6895 231.59 89.6912C231.603 89.7053 231.618 89.7173 231.631 89.7314C231.632 89.733 231.634 89.7348 231.635 89.7363C231.648 89.7506 231.663 89.7626 231.676 89.7766C231.678 89.7782 231.679 89.78 231.68 89.7816C231.693 89.7958 231.708 89.8078 231.721 89.8219C231.723 89.8234 231.724 89.8252 231.726 89.8268C231.739 89.841 231.753 89.853 231.767 89.867C231.768 89.8687 231.769 89.8704 231.771 89.872C231.784 89.8862 231.799 89.8982 231.812 89.9123C231.813 89.9139 231.815 89.9156 231.816 89.9172C231.829 89.9314 231.844 89.9435 231.857 89.9575C231.858 89.9591 231.86 89.9608 231.861 89.9625C231.874 89.9766 231.889 89.9887 231.902 90.0027C231.904 90.0043 231.905 90.0061 231.906 90.0077C231.92 90.0219 231.934 90.0339 231.947 90.0479C231.949 90.0495 231.95 90.0513 231.952 90.0529C231.965 90.0671 231.979 90.0791 231.993 90.0932C231.994 90.0948 231.995 90.0965 231.997 90.0981C232.01 90.1123 232.025 90.1243 232.038 90.1384C232.039 90.14 232.041 90.1417 232.042 90.1433C232.055 90.1575 232.07 90.1695 232.083 90.1836C232.085 90.1852 232.086 90.1869 232.087 90.1885C232.1 90.2028 232.115 90.2148 232.128 90.2288C232.13 90.2304 232.131 90.2322 232.133 90.2338C232.146 90.2479 232.16 90.26 232.174 90.274C232.175 90.2756 232.176 90.2774 232.178 90.279C232.191 90.2931 232.206 90.3051 232.219 90.3191C232.22 90.3208 232.221 90.3226 232.223 90.3242C232.236 90.3384 232.251 90.3505 232.264 90.3646C232.266 90.3662 232.267 90.3679 232.268 90.3694C232.281 90.3836 232.296 90.3956 232.309 90.4097C232.311 90.4113 232.312 90.4131 232.313 90.4146C232.326 90.4288 232.341 90.4409 232.354 90.4549C232.356 90.4565 232.357 90.4582 232.359 90.4599C232.372 90.4741 232.386 90.486 232.4 90.5001C232.401 90.5017 232.402 90.5035 232.404 90.5051C232.417 90.5193 232.432 90.5313 232.445 90.5453C232.446 90.547 232.448 90.5487 232.449 90.5503C232.462 90.5645 232.477 90.5765 232.49 90.5906C232.492 90.5921 232.493 90.5939 232.494 90.5955C232.507 90.6097 232.522 90.6217 232.535 90.6357C232.537 90.6373 232.538 90.6391 232.54 90.6407C232.553 90.655 232.567 90.667 232.581 90.6811C232.582 90.6827 232.583 90.6844 232.585 90.686C232.598 90.7002 232.613 90.7122 232.626 90.7262C232.627 90.7278 232.628 90.7296 232.63 90.7312C232.643 90.7454 232.658 90.7574 232.671 90.7714C232.672 90.773 232.674 90.7748 232.675 90.7764C232.688 90.7906 232.703 90.8026 232.716 90.8167C232.718 90.8183 232.719 90.82 232.72 90.8216C232.733 90.8358 232.748 90.8478 232.761 90.8619C232.763 90.8635 232.764 90.8652 232.766 90.8668C232.779 90.881 232.793 90.893 232.807 90.9071C232.808 90.9087 232.809 90.9104 232.811 90.912C232.824 90.9262 232.839 90.9382 232.852 90.9522C232.853 90.9539 232.855 90.9557 232.856 90.9573C232.869 90.9715 232.884 90.9835 232.897 90.9976C232.899 90.9992 232.9 91.0009 232.901 91.0025C232.914 91.0167 232.929 91.0287 232.942 91.0427C232.944 91.0444 232.945 91.0461 232.947 91.0477C232.96 91.0619 232.974 91.0739 232.987 91.088C232.989 91.0896 232.99 91.0914 232.992 91.0929C233.005 91.1071 233.02 91.1192 233.033 91.1332C233.034 91.1348 233.035 91.1365 233.037 91.1382C233.05 91.1523 233.065 91.1643 233.078 91.1784C233.079 91.18 233.081 91.1818 233.082 91.1833C233.095 91.1976 233.11 91.2096 233.123 91.2236C233.125 91.2252 233.126 91.227 233.127 91.2286C233.14 91.2427 233.155 91.2547 233.168 91.2687C233.17 91.2704 233.171 91.2722 233.173 91.2738C233.186 91.288 233.201 91.3001 233.214 91.3142C233.215 91.3158 233.216 91.3175 233.218 91.319C233.231 91.3332 233.246 91.3452 233.259 91.3593C233.26 91.3609 233.262 91.3626 233.263 91.3642C233.276 91.3785 233.291 91.3905 233.304 91.4045C233.306 91.4061 233.307 91.4079 233.308 91.4095C233.321 91.4236 233.336 91.4357 233.349 91.4497C233.351 91.4513 233.352 91.4531 233.354 91.4547C233.367 91.4689 233.381 91.4809 233.394 91.4949C233.396 91.4965 233.397 91.4983 233.399 91.4999C233.412 91.5141 233.426 91.5261 233.44 91.5402C233.441 91.5418 233.442 91.5435 233.444 91.5451C233.457 91.5592 233.472 91.5712 233.485 91.5853C233.486 91.5869 233.488 91.5887 233.489 91.5903C233.502 91.6046 233.517 91.6167 233.53 91.6308C233.532 91.6323 233.533 91.634 233.534 91.6356C233.547 91.6498 233.562 91.6618 233.575 91.6759C233.577 91.6774 233.578 91.6792 233.58 91.6808C233.593 91.695 233.607 91.707 233.621 91.721C233.622 91.7227 233.623 91.7244 233.625 91.726C233.638 91.7402 233.653 91.7522 233.666 91.7663C233.667 91.7678 233.668 91.7696 233.67 91.7712C233.683 91.7854 233.698 91.7974 233.711 91.8115C233.712 91.8131 233.714 91.8148 233.715 91.8164C233.728 91.8306 233.743 91.8426 233.756 91.8567C233.758 91.8583 233.759 91.8601 233.76 91.8616C234.977 93.1853 236.675 93.9459 238.44 93.9775C238.626 93.9808 238.813 93.9761 238.999 93.9631L372.046 84.6496C374.439 84.4833 376.514 82.9902 377.421 80.7819L378.796 77.4325L382.91 77.1076C382.922 77.1196 382.935 77.1307 382.946 77.1426C382.961 77.1579 382.977 77.1726 382.992 77.1878C383.007 77.2032 383.022 77.2179 383.037 77.233C383.052 77.2484 383.067 77.2631 383.082 77.2783C383.097 77.2936 383.112 77.3083 383.127 77.3234C383.142 77.3388 383.158 77.3535 383.173 77.3687C383.187 77.384 383.203 77.3987 383.218 77.4139C383.233 77.4292 383.248 77.4439 383.263 77.4591C383.278 77.4745 383.293 77.4892 383.308 77.5043C383.323 77.5197 383.338 77.5344 383.353 77.5496C383.368 77.5649 383.384 77.5796 383.399 77.5948C383.413 77.6101 383.429 77.6248 383.444 77.64C383.459 77.6553 383.474 77.6701 383.489 77.6853C383.504 77.7006 383.519 77.7152 383.534 77.7304C383.549 77.7458 383.565 77.7605 383.58 77.7757C383.594 77.791 383.61 77.8057 383.625 77.8209C383.64 77.8362 383.655 77.8509 383.67 77.8661C383.685 77.8815 383.7 77.8961 383.715 77.9113C383.73 77.9266 383.745 77.9414 383.76 77.9566C383.775 77.9719 383.791 77.9866 383.806 78.0018C383.82 78.0171 383.836 78.0318 383.851 78.047C383.866 78.0623 383.881 78.077 383.896 78.0922C383.911 78.1075 383.926 78.1222 383.941 78.1374C383.956 78.1528 383.972 78.1675 383.987 78.1827C384.001 78.198 384.017 78.2127 384.032 78.2278C384.047 78.2432 384.062 78.2579 384.077 78.2731C384.092 78.2885 384.107 78.3032 384.122 78.3184C384.137 78.3336 384.152 78.3483 384.167 78.3634C384.182 78.3788 384.198 78.3935 384.213 78.4087C384.227 78.4241 384.243 78.4388 384.258 78.454C384.273 78.4693 384.288 78.484 384.303 78.4992C384.318 78.5145 384.333 78.5292 384.348 78.5444C384.363 78.5597 384.379 78.5744 384.394 78.5896C384.408 78.605 384.424 78.6197 384.439 78.6349C384.454 78.6502 384.469 78.6648 384.484 78.6799C384.499 78.6953 384.514 78.71 384.529 78.7253C384.544 78.7406 384.559 78.7553 384.574 78.7705C384.589 78.7858 384.605 78.8005 384.62 78.8157C384.634 78.831 384.65 78.8457 384.665 78.8609C384.68 78.8763 384.695 78.8909 384.71 78.9061C384.725 78.9215 384.74 78.9362 384.755 78.9515C384.77 78.9667 384.785 78.9814 384.8 78.9965C384.815 79.0118 384.831 79.0266 384.846 79.0418C384.861 79.0571 384.876 79.0718 384.891 79.087C384.906 79.1023 384.921 79.1171 384.936 79.1323C384.951 79.1476 384.966 79.1622 384.981 79.1774C384.996 79.1928 385.012 79.2075 385.027 79.2227C385.041 79.238 385.057 79.2528 385.072 79.268C385.087 79.2832 385.102 79.2979 385.117 79.313C385.132 79.3284 385.147 79.3431 385.162 79.3583C385.177 79.3736 385.192 79.3884 385.207 79.4036C385.222 79.4189 385.238 79.4336 385.253 79.4488C385.267 79.4641 385.283 79.4788 385.298 79.494C385.313 79.5093 385.328 79.524 385.343 79.5392C385.358 79.5546 385.373 79.5693 385.388 79.5845C385.403 79.5998 385.419 79.6144 385.433 79.6295C385.448 79.6449 385.464 79.6597 385.479 79.6749C385.494 79.6902 385.509 79.7049 385.524 79.7201C385.539 79.7355 385.554 79.7501 385.569 79.7653C385.584 79.7806 385.599 79.7954 385.614 79.8105C385.629 79.8259 385.645 79.8405 385.66 79.8557C385.675 79.8711 385.69 79.8859 385.705 79.9011C385.72 79.9163 385.735 79.931 385.75 79.9461C385.765 79.9614 385.78 79.9762 385.795 79.9914C385.81 80.0068 385.826 80.0214 385.84 80.0366C385.855 80.052 385.871 80.0667 385.886 80.0818C385.901 80.0972 385.916 80.1119 385.931 80.1271C385.946 80.1424 385.961 80.1571 385.976 80.1723C385.991 80.1877 386.006 80.2024 386.021 80.2176C386.036 80.2329 386.052 80.2475 386.066 80.2626C386.081 80.278 386.097 80.2927 386.112 80.308C386.127 80.3233 386.142 80.3379 386.157 80.3531C386.172 80.3685 386.187 80.3832 386.202 80.3984C386.217 80.4137 386.232 80.4284 386.248 80.4436C386.262 80.4589 386.278 80.4736 386.293 80.4888C386.308 80.5042 386.323 80.5189 386.338 80.5342C386.353 80.5494 386.368 80.564 386.383 80.5791C386.398 80.5945 386.413 80.6092 386.428 80.6245C386.443 80.6398 386.459 80.6545 386.474 80.6697C386.488 80.685 386.504 80.6998 386.519 80.7149C386.534 80.7303 386.549 80.7449 386.564 80.7601C386.579 80.7755 386.594 80.7901 386.609 80.8053C386.624 80.8207 386.64 80.8354 386.655 80.8507C386.669 80.8659 386.685 80.8805 386.7 80.8957C386.714 80.911 386.73 80.9258 386.745 80.941C386.76 80.9563 386.775 80.9711 386.79 80.9862C386.805 81.0016 386.82 81.0163 386.835 81.0315C386.85 81.0468 386.866 81.0615 386.881 81.0767C386.895 81.092 386.911 81.1067 386.926 81.1219C386.941 81.1373 386.956 81.152 386.971 81.1672C386.986 81.1825 387.001 81.1971 387.016 81.2122C388.32 82.5588 390.177 83.329 392.138 83.1939L471.037 77.7134C473.977 77.509 476.362 75.3184 476.811 72.4086L478.802 59.5009C479.021 58.0832 478.803 56.6109 478.109 55.3389Z" fill="#000080"/>
<path d="M172.212 119.764C172.148 119.701 172.085 119.636 172.023 119.57C172.085 119.637 172.148 119.7 172.212 119.764Z" fill="#000080"/>
<path d="M50.3418 46.1358L8.73497 49.3649L6.40039 64.0836L20.0134 62.9088L14.806 96.4548L29.9583 95.4016L35.1661 61.8556L48.0077 60.8545L50.3418 46.1358ZM266.594 60.8743L268.531 48.3551L251.926 49.5093L252.757 44.4008L270.33 43.1792L272.336 30.6553L241.315 32.8116L239.611 32.93L232.069 81.194L241.315 80.5514L265.418 78.876L267.424 66.2134L249.159 67.483L249.989 62.0285L266.594 60.8743ZM313.127 40.5313C313.127 30.5682 304.755 28.4518 296.314 29.0385L276.319 30.4284L268.777 78.6928L283.929 77.6396L286.42 61.6222L288.288 61.4924L293.062 77.0047L310.498 75.7928L303.025 58.1848C309.252 54.2926 313.127 47.7269 313.127 40.5313ZM292.163 49.3226L288.219 49.5968L289.533 41.3411L293.27 41.0814C295.345 40.9372 297.628 41.6086 297.628 44.0303C297.628 47.2129 295.138 49.1158 292.163 49.3226ZM84.3987 43.7687L80.7648 44.0213L77.9971 61.4415L65.6814 62.2976L68.38 44.8822L53.2274 45.9354L45.6859 94.1998L60.838 93.1466L63.6056 75.3801L75.9906 74.5193L73.1542 92.2905L84.3987 91.5089L88.3063 91.2373L95.9169 42.9681L84.3987 43.7687ZM125.963 40.8796L121.535 69.2088C120.895 73.2372 118.952 76.238 114.788 76.5274C111.123 76.7821 109.855 74.652 109.864 71.9131C109.866 71.3019 109.933 70.6593 110.05 70.0072L114.478 41.6779L99.2564 42.736L94.897 70.3686C94.6449 72.1545 94.5132 73.84 94.5118 75.4163C94.5029 85.5469 99.85 91.196 112.75 90.2993C126.691 89.3302 134.621 81.7474 136.895 67.4493L141.185 39.8216L125.963 40.8796ZM174.208 37.5261L171.524 54.3775C171.052 57.6142 170.637 60.8501 170.333 64.0871L161.339 38.4206L150.12 6.4082L137.399 87.8248L152.136 86.8005L154.586 71.3333C155.138 67.6353 155.635 63.9387 156.011 60.2395L165.628 85.8626L176.645 115.215L181.403 84.7662L188.945 36.5018L174.208 37.5261ZM210.379 35.0118L193.012 36.219L185.471 84.4834L203.183 83.2522C211.964 82.6419 219.173 79.8084 224.303 74.9151C229.885 69.592 233.003 61.8302 233.003 51.8432C233.003 37.9482 222.784 34.1496 210.379 35.0118ZM214.612 65.5266C212.764 67.9474 209.984 69.5644 206.089 69.8352L202.63 70.0756L206.089 48.1792L209.479 47.9436C212.282 47.7488 214.396 48.2895 215.76 49.6537C216.956 50.85 217.574 52.6785 217.574 55.1991C217.574 59.1374 216.672 62.8304 214.612 65.5266ZM353.54 56.9728C353.54 52.4066 350.773 49.2779 346.484 48.1921C346.484 48.1922 346.484 48.1921 346.484 48.1921C351.257 45.923 354.647 41.6051 354.647 35.2397C354.647 25.8993 344.961 25.6732 337.904 26.1638L318.877 27.4863L311.335 75.7507L334.306 74.154C339.102 73.8206 343.865 72.3867 347.452 69.6467C351.107 66.8525 353.54 62.701 353.54 56.9728ZM337.382 60.7362C336.465 61.8074 335.039 62.4101 333.407 62.5236L328.287 62.8795L329.463 55.3254L334.375 54.9839C336.313 54.8493 338.457 55.2537 338.457 57.6061C338.457 58.8992 338.058 59.9455 337.382 60.7362ZM338.016 43.159C337.16 43.9887 335.915 44.4294 334.513 44.5268L331.123 44.7625L332.162 37.9097L335.621 37.6693C337.351 37.549 339.219 37.9037 339.219 40.0483C339.219 41.4053 338.766 42.4316 338.016 43.159ZM422.734 20.0801L407.651 21.1285L400.63 66.0604L385.407 22.5528L372.362 23.5928L349.341 72.9772L365.116 71.8807L367.953 64.9722L383.515 63.7435L385.211 70.4248L401.758 69.2817L401.757 69.2785L430.829 67.2576L432.836 54.2489L417.199 55.3358L422.734 20.0801ZM372.383 53.1958L377.631 40.3167L380.8 52.5306L372.383 53.1958ZM450.476 53.0228L456.011 17.7671L440.928 18.8154L433.386 67.0799L464.106 64.9445L466.113 51.9359L450.476 53.0228Z" fill="#9300F3"/>
<path d="M481.458 71.713C481.803 71.713 482.126 71.7686 482.419 71.8783C482.696 71.9818 482.938 72.1307 483.14 72.3211C483.56 72.7171 483.782 73.2714 483.782 73.9243C483.782 74.5773 483.56 75.1316 483.14 75.5276C482.938 75.7179 482.696 75.8669 482.419 75.9704C482.126 76.0801 481.803 76.1357 481.458 76.1357C481.114 76.1357 480.79 76.0801 480.497 75.9704C480.221 75.8669 479.978 75.7179 479.776 75.5276C479.357 75.1317 479.135 74.5773 479.135 73.9244C479.135 73.2714 479.357 72.7171 479.776 72.3211C479.978 72.1308 480.221 71.9818 480.497 71.8783C480.79 71.7686 481.114 71.713 481.458 71.713ZM481.458 70.8711C479.653 70.8711 478.293 72.087 478.293 73.9244C478.293 75.7617 479.653 76.9776 481.458 76.9776C483.264 76.9776 484.624 75.7617 484.624 73.9243C484.624 72.087 483.264 70.8711 481.458 70.8711Z" fill="#000080"/>
<path d="M481.929 75.4331L481.558 74.3488H481.077L481.077 75.4331H480.225L480.225 72.4121H481.706C482.322 72.4121 482.735 72.8003 482.735 73.3825C482.735 73.7032 482.592 73.9648 482.351 74.1378L482.824 75.4331H481.929ZM481.077 73.1083V73.7201H481.524C481.731 73.7201 481.849 73.6104 481.849 73.4121C481.849 73.2306 481.731 73.1083 481.524 73.1083H481.077Z" fill="#000080"/>
</g>
<defs>
<clipPath id="clip0_4350_16865">
<rect width="486.336" height="128" fill="white"/>
</clipPath>
</defs>
</svg>
