<svg width="88" height="84" viewBox="0 0 88 84" fill="none" xmlns="http://www.w3.org/2000/svg">
<path fill-rule="evenodd" clip-rule="evenodd" d="M77.9016 68.0596L14.7915 73.581C12.3378 73.7957 10.1545 71.9617 9.93956 69.5055L6.02805 24.7967C5.81308 22.3397 7.64477 20.1544 10.0985 19.9398L73.2086 14.4184C75.6623 14.2037 77.8456 16.0376 78.0606 18.4947L81.9721 63.2035C82.187 65.6597 80.3553 67.8449 77.9016 68.0596Z" stroke="#A2B6F9" stroke-width="2" stroke-linecap="round" stroke-linejoin="round"/>
<path fill-rule="evenodd" clip-rule="evenodd" d="M15.4363 26.422C15.5474 27.6922 14.6078 28.811 13.3385 28.9221C12.0692 29.0331 10.9496 28.0944 10.8385 26.8243C10.7274 25.555 11.6669 24.4353 12.9362 24.3243C14.2055 24.2132 15.3252 25.1527 15.4363 26.422Z" fill="#A2B6F9"/>
<path fill-rule="evenodd" clip-rule="evenodd" d="M22.333 25.8185C22.4441 27.0887 21.5045 28.2075 20.2352 28.3186C18.9659 28.4296 17.8463 27.4909 17.7352 26.2208C17.6241 24.9515 18.5637 23.8318 19.833 23.7207C21.1023 23.6097 22.222 24.5492 22.333 25.8185Z" fill="#A2B6F9"/>
<path fill-rule="evenodd" clip-rule="evenodd" d="M29.2297 25.217C29.3409 26.4871 28.4013 27.606 27.132 27.717C25.8627 27.8281 24.743 26.8893 24.6319 25.6192C24.5209 24.3499 25.4604 23.2302 26.7297 23.1192C27.999 23.0081 29.1187 23.9477 29.2297 25.217Z" fill="#A2B6F9"/>
<path fill-rule="evenodd" clip-rule="evenodd" d="M39.7756 57.4972L49.2013 50.4956L38.7029 45.2363L39.7756 57.4972Z" stroke="#A2B6F9" stroke-width="2" stroke-linecap="round" stroke-linejoin="round"/>
<path d="M7.28511 34.0863L77.9961 27.8999" stroke="#A2B6F9" stroke-width="2" stroke-linecap="round" stroke-linejoin="round"/>
</svg>
