<svg width="36" height="36" viewBox="0 0 36 36" fill="none" xmlns="http://www.w3.org/2000/svg">
<g id="YouTube - Original" clip-path="url(#clip0_1777_162325)">
<path id="Vector" d="M35.2834 9.27836C35.0799 8.51248 34.6788 7.81349 34.1202 7.25134C33.5616 6.6892 32.8652 6.28361 32.1007 6.07518C29.2861 5.31836 18.0361 5.31836 18.0361 5.31836C18.0361 5.31836 6.78613 5.31836 3.97159 6.07518C3.20703 6.28361 2.51062 6.6892 1.95206 7.25134C1.39351 7.81349 0.992391 8.51248 0.78886 9.27836C0.0361329 12.1052 0.0361328 18.0002 0.0361328 18.0002C0.0361328 18.0002 0.0361329 23.8952 0.78886 26.722C0.992391 27.4879 1.39351 28.1869 1.95206 28.749C2.51062 29.3112 3.20703 29.7167 3.97159 29.9252C6.78613 30.682 18.0361 30.682 18.0361 30.682C18.0361 30.682 29.2861 30.682 32.1007 29.9252C32.8652 29.7167 33.5616 29.3112 34.1202 28.749C34.6788 28.1869 35.0799 27.4879 35.2834 26.722C36.0361 23.8952 36.0361 18.0002 36.0361 18.0002C36.0361 18.0002 36.0361 12.1052 35.2834 9.27836Z" fill="#FF0302"/>
<path id="Vector_2" d="M14.3535 23.3534V12.6475L23.7626 18.0004L14.3535 23.3534Z" fill="white"/>
</g>
<defs>
<clipPath id="clip0_1777_162325">
<rect width="36" height="36" fill="white"/>
</clipPath>
</defs>
</svg>
